<ttFont>
<head>
    <!-- Most of this table will be recalculated by the compiler -->
    <tableVersion value="1.0"/>
    <fontRevision value="1.301"/>
    <checkSumAdjustment value="0x91ddf47d"/>
    <magicNumber value="0x5f0f3cf5"/>
    <flags value="00000000 00001011"/>
    <unitsPerEm value="1000"/>
    <created value="Tue Oct  2 22:58:00 2007"/>
    <modified value="Thu Mar  6 18:40:02 2014"/>
    <xMin value="-100"/>
    <yMin value="-223"/>
    <xMax value="809"/>
    <yMax value="1029"/>
    <macStyle value="00000000 00000010"/>
    <lowestRecPPEM value="9"/>
    <fontDirectionHint value="2"/>
    <indexToLocFormat value="0"/>
    <glyphDataFormat value="0"/>
  </head>
    <TTGlyph name="A" xMin="-20" yMin="0" xMax="426" yMax="742">
      <contour>
        <pt x="394" y="0" on="1"/>
        <pt x="369" y="234" on="1"/>
        <pt x="124" y="234" on="1"/>
        <pt x="13" y="0" on="1"/>
        <pt x="-20" y="0" on="1"/>
        <pt x="333" y="742" on="1"/>
        <pt x="344" y="742" on="1"/>
        <pt x="426" y="0" on="1"/>
      </contour>
      <contour>
        <pt x="324" y="656" on="1"/>
        <pt x="137" y="262" on="1"/>
        <pt x="366" y="262" on="1"/>
      </contour>
    </TTGlyph>
    <TTGlyph name="AE" xMin="-20" yMin="0" xMax="794" yMax="733">
      <contour>
        <pt x="789" y="704" on="1"/>
        <pt x="526" y="704" on="1"/>
        <pt x="467" y="388" on="1"/>
        <pt x="708" y="388" on="1"/>
        <pt x="703" y="359" on="1"/>
        <pt x="462" y="359" on="1"/>
        <pt x="402" y="29" on="1"/>
        <pt x="665" y="29" on="1"/>
        <pt x="660" y="0" on="1"/>
        <pt x="365" y="0" on="1"/>
        <pt x="407" y="234" on="1"/>
        <pt x="183" y="234" on="1"/>
        <pt x="16" y="0" on="1"/>
        <pt x="-20" y="0" on="1"/>
        <pt x="499" y="733" on="1"/>
        <pt x="794" y="733" on="1"/>
      </contour>
      <contour>
        <pt x="486" y="662" on="1"/>
        <pt x="203" y="262" on="1"/>
        <pt x="412" y="262" on="1"/>
      </contour>
    </TTGlyph>
    <TTGlyph name="AEacute" xMin="-20" yMin="0" xMax="794" yMax="905">
      <component glyphName="acute" x="364" y="301" flags="0x4"/>
      <component glyphName="AE" x="0" y="0" flags="0x4"/>
    </TTGlyph>
    <TTGlyph name="Aacute" xMin="-20" yMin="0" xMax="488" yMax="908">
      <component glyphName="A" x="0" y="0" flags="0x204"/>
      <component glyphName="acute" x="145" y="304" flags="0x4"/>
    </TTGlyph>
    <TTGlyph name="Abreve" xMin="-20" yMin="0" xMax="463" yMax="894">
      <component glyphName="A" x="0" y="0" flags="0x204"/>
      <component glyphName="breve" x="87" y="304" flags="0x4"/>
    </TTGlyph>
    <TTGlyph name="Acircumflex" xMin="-20" yMin="0" xMax="447" yMax="899">
      <component glyphName="A" x="0" y="0" flags="0x204"/>
      <component glyphName="circumflex" x="84" y="304" flags="0x4"/>
    </TTGlyph>
    <TTGlyph name="Adieresis" xMin="-20" yMin="0" xMax="445" yMax="859">
      <component glyphName="A" x="0" y="0" flags="0x204"/>
      <component glyphName="dieresis" x="85" y="304" flags="0x4"/>
    </TTGlyph>
    <TTGlyph name="Agrave" xMin="-20" yMin="0" xMax="426" yMax="911">
      <component glyphName="A" x="0" y="0" flags="0x204"/>
      <component glyphName="grave" x="34" y="304" flags="0x4"/>
    </TTGlyph>
    <TTGlyph name="Amacron" xMin="-20" yMin="0" xMax="471" yMax="838">
      <component glyphName="A" x="0" y="0" flags="0x204"/>
      <component glyphName="macron" x="86" y="304" flags="0x4"/>
    </TTGlyph>
    <TTGlyph name="Aogonek" xMin="-20" yMin="-201" xMax="426" yMax="742">
      <contour>
        <pt x="412" y="-171" on="1"/>
        <pt x="398" y="-185" on="0"/>
        <pt x="365" y="-201" on="0"/>
        <pt x="346" y="-201" on="1"/>
        <pt x="320" y="-201" on="0"/>
        <pt x="293" y="-168" on="0"/>
        <pt x="293" y="-145" on="1"/>
        <pt x="293" y="-101" on="0"/>
        <pt x="353" y="-28" on="0"/>
        <pt x="393" y="4" on="1"/>
        <pt x="369" y="234" on="1"/>
        <pt x="124" y="234" on="1"/>
        <pt x="13" y="0" on="1"/>
        <pt x="-20" y="0" on="1"/>
        <pt x="333" y="742" on="1"/>
        <pt x="344" y="742" on="1"/>
        <pt x="426" y="0" on="1"/>
        <pt x="425" y="0" on="1"/>
        <pt x="411" y="-11" on="0"/>
        <pt x="375" y="-41" on="0"/>
        <pt x="344" y="-77" on="0"/>
        <pt x="322" y="-118" on="0"/>
        <pt x="322" y="-139" on="1"/>
        <pt x="322" y="-155" on="0"/>
        <pt x="337" y="-174" on="0"/>
        <pt x="352" y="-174" on="1"/>
        <pt x="366" y="-174" on="0"/>
        <pt x="389" y="-161" on="0"/>
        <pt x="399" y="-150" on="1"/>
      </contour>
      <contour>
        <pt x="324" y="656" on="1"/>
        <pt x="137" y="262" on="1"/>
        <pt x="366" y="262" on="1"/>
      </contour>
    </TTGlyph>
    <TTGlyph name="Aring" xMin="-20" yMin="0" xMax="426" yMax="865">
      <contour>
        <pt x="425" y="793" on="1"/>
        <pt x="425" y="757" on="0"/>
        <pt x="379" y="706" on="0"/>
        <pt x="347" y="702" on="1"/>
        <pt x="426" y="0" on="1"/>
        <pt x="394" y="0" on="1"/>
        <pt x="369" y="234" on="1"/>
        <pt x="124" y="234" on="1"/>
        <pt x="13" y="0" on="1"/>
        <pt x="-20" y="0" on="1"/>
        <pt x="316" y="704" on="1"/>
        <pt x="294" y="711" on="0"/>
        <pt x="266" y="747" on="0"/>
        <pt x="266" y="773" on="1"/>
        <pt x="266" y="792" on="0"/>
        <pt x="281" y="826" on="0"/>
        <pt x="305" y="851" on="0"/>
        <pt x="336" y="865" on="0"/>
        <pt x="353" y="865" on="1"/>
        <pt x="384" y="865" on="0"/>
        <pt x="425" y="825" on="0"/>
      </contour>
      <contour>
        <pt x="324" y="656" on="1"/>
        <pt x="137" y="262" on="1"/>
        <pt x="366" y="262" on="1"/>
      </contour>
      <contour>
        <pt x="400" y="791" on="1"/>
        <pt x="400" y="814" on="0"/>
        <pt x="374" y="843" on="0"/>
        <pt x="352" y="843" on="1"/>
        <pt x="328" y="843" on="0"/>
        <pt x="291" y="803" on="0"/>
        <pt x="291" y="774" on="1"/>
        <pt x="291" y="751" on="0"/>
        <pt x="316" y="723" on="0"/>
        <pt x="339" y="723" on="1"/>
        <pt x="362" y="723" on="0"/>
        <pt x="400" y="762" on="0"/>
      </contour>
    </TTGlyph>
    <TTGlyph name="Aringacute" xMin="-20" yMin="0" xMax="515" yMax="1029">
      <component glyphName="acute" x="172" y="425" flags="0x4"/>
      <component glyphName="Aring" x="0" y="0" flags="0x4"/>
    </TTGlyph>
    <TTGlyph name="Atilde" xMin="-20" yMin="0" xMax="474" yMax="866">
      <component glyphName="A" x="0" y="0" flags="0x204"/>
      <component glyphName="tilde" x="87" y="304" flags="0x4"/>
    </TTGlyph>
    <TTGlyph name="B" xMin="35" yMin="-7" xMax="447" yMax="740">
      <contour>
        <pt x="447" y="580" on="1"/>
        <pt x="447" y="537" on="0"/>
        <pt x="418" y="469" on="0"/>
        <pt x="367" y="418" on="0"/>
        <pt x="300" y="385" on="0"/>
        <pt x="263" y="377" on="1"/>
        <pt x="326" y="360" on="0"/>
        <pt x="401" y="274" on="0"/>
        <pt x="401" y="209" on="1"/>
        <pt x="401" y="162" on="0"/>
        <pt x="367" y="83" on="0"/>
        <pt x="305" y="25" on="0"/>
        <pt x="217" y="-7" on="0"/>
        <pt x="162" y="-7" on="1"/>
        <pt x="128" y="-7" on="0"/>
        <pt x="66" y="3" on="0"/>
        <pt x="35" y="13" on="1"/>
        <pt x="168" y="729" on="1"/>
        <pt x="212" y="740" on="0"/>
        <pt x="261" y="740" on="1"/>
        <pt x="308" y="740" on="0"/>
        <pt x="378" y="714" on="0"/>
        <pt x="424" y="670" on="0"/>
        <pt x="447" y="612" on="0"/>
      </contour>
      <contour>
        <pt x="415" y="577" on="1"/>
        <pt x="415" y="640" on="0"/>
        <pt x="331" y="711" on="0"/>
        <pt x="259" y="711" on="1"/>
        <pt x="237" y="711" on="0"/>
        <pt x="206" y="707" on="0"/>
        <pt x="195" y="705" on="1"/>
        <pt x="137" y="394" on="1"/>
        <pt x="151" y="393" on="0"/>
        <pt x="179" y="392" on="0"/>
        <pt x="191" y="392" on="1"/>
        <pt x="238" y="392" on="0"/>
        <pt x="320" y="418" on="0"/>
        <pt x="380" y="466" on="0"/>
        <pt x="415" y="534" on="0"/>
      </contour>
      <contour>
        <pt x="369" y="207" on="1"/>
        <pt x="369" y="283" on="0"/>
        <pt x="262" y="366" on="0"/>
        <pt x="171" y="366" on="1"/>
        <pt x="164" y="366" on="0"/>
        <pt x="142" y="366" on="0"/>
        <pt x="132" y="365" on="1"/>
        <pt x="71" y="34" on="1"/>
        <pt x="116" y="21" on="0"/>
        <pt x="166" y="21" on="1"/>
        <pt x="212" y="21" on="0"/>
        <pt x="287" y="50" on="0"/>
        <pt x="340" y="100" on="0"/>
        <pt x="369" y="168" on="0"/>
      </contour>
    </TTGlyph>
    <TTGlyph name="C" xMin="65" yMin="-8" xMax="557" yMax="741">
      <contour>
        <pt x="538" y="647" on="1"/>
        <pt x="505" y="677" on="0"/>
        <pt x="431" y="712" on="0"/>
        <pt x="386" y="712" on="1"/>
        <pt x="323" y="712" on="0"/>
        <pt x="216" y="631" on="0"/>
        <pt x="140" y="501" on="0"/>
        <pt x="97" y="339" on="0"/>
        <pt x="97" y="259" on="1"/>
        <pt x="97" y="204" on="0"/>
        <pt x="124" y="116" on="0"/>
        <pt x="173" y="54" on="0"/>
        <pt x="243" y="21" on="0"/>
        <pt x="286" y="21" on="1"/>
        <pt x="328" y="21" on="0"/>
        <pt x="398" y="48" on="0"/>
        <pt x="433" y="73" on="1"/>
        <pt x="448" y="48" on="1"/>
        <pt x="420" y="27" on="0"/>
        <pt x="338" y="-8" on="0"/>
        <pt x="284" y="-8" on="1"/>
        <pt x="236" y="-8" on="0"/>
        <pt x="155" y="28" on="0"/>
        <pt x="97" y="96" on="0"/>
        <pt x="65" y="196" on="0"/>
        <pt x="65" y="259" on="1"/>
        <pt x="65" y="345" on="0"/>
        <pt x="111" y="517" on="0"/>
        <pt x="195" y="655" on="0"/>
        <pt x="315" y="741" on="0"/>
        <pt x="389" y="741" on="1"/>
        <pt x="446" y="741" on="0"/>
        <pt x="529" y="697" on="0"/>
        <pt x="557" y="671" on="1"/>
      </contour>
    </TTGlyph>
    <TTGlyph name="Cacute" xMin="65" yMin="-8" xMax="557" yMax="908">
      <component glyphName="acute" x="200" y="304" flags="0x4"/>
      <component glyphName="C" x="0" y="0" flags="0x4"/>
    </TTGlyph>
    <TTGlyph name="Ccaron" xMin="65" yMin="-8" xMax="557" yMax="898">
      <component glyphName="caron" x="146" y="304" flags="0x4"/>
      <component glyphName="C" x="0" y="0" flags="0x4"/>
    </TTGlyph>
    <TTGlyph name="Ccedilla" xMin="65" yMin="-198" xMax="557" yMax="741">
      <contour>
        <pt x="320" y="-124" on="1"/>
        <pt x="320" y="-155" on="0"/>
        <pt x="268" y="-198" on="0"/>
        <pt x="228" y="-198" on="1"/>
        <pt x="207" y="-198" on="0"/>
        <pt x="163" y="-183" on="0"/>
        <pt x="145" y="-170" on="1"/>
        <pt x="160" y="-146" on="1"/>
        <pt x="175" y="-157" on="0"/>
        <pt x="210" y="-171" on="0"/>
        <pt x="229" y="-171" on="1"/>
        <pt x="255" y="-171" on="0"/>
        <pt x="288" y="-146" on="0"/>
        <pt x="288" y="-125" on="1"/>
        <pt x="288" y="-106" on="0"/>
        <pt x="252" y="-77" on="0"/>
        <pt x="209" y="-72" on="1"/>
        <pt x="208" y="-68" on="1"/>
        <pt x="237" y="-3" on="1"/>
        <pt x="159" y="13" on="0"/>
        <pt x="65" y="147" on="0"/>
        <pt x="65" y="259" on="1"/>
        <pt x="65" y="345" on="0"/>
        <pt x="111" y="517" on="0"/>
        <pt x="195" y="655" on="0"/>
        <pt x="315" y="741" on="0"/>
        <pt x="389" y="741" on="1"/>
        <pt x="446" y="741" on="0"/>
        <pt x="529" y="697" on="0"/>
        <pt x="557" y="671" on="1"/>
        <pt x="538" y="647" on="1"/>
        <pt x="505" y="677" on="0"/>
        <pt x="431" y="712" on="0"/>
        <pt x="386" y="712" on="1"/>
        <pt x="323" y="712" on="0"/>
        <pt x="216" y="631" on="0"/>
        <pt x="140" y="501" on="0"/>
        <pt x="97" y="339" on="0"/>
        <pt x="97" y="259" on="1"/>
        <pt x="97" y="204" on="0"/>
        <pt x="124" y="116" on="0"/>
        <pt x="173" y="54" on="0"/>
        <pt x="243" y="21" on="0"/>
        <pt x="286" y="21" on="1"/>
        <pt x="328" y="21" on="0"/>
        <pt x="398" y="48" on="0"/>
        <pt x="433" y="73" on="1"/>
        <pt x="448" y="48" on="1"/>
        <pt x="420" y="27" on="0"/>
        <pt x="338" y="-8" on="0"/>
        <pt x="284" y="-8" on="1"/>
        <pt x="279" y="-8" on="0"/>
        <pt x="271" y="-8" on="0"/>
        <pt x="266" y="-7" on="1"/>
        <pt x="245" y="-53" on="1"/>
        <pt x="281" y="-63" on="0"/>
        <pt x="320" y="-97" on="0"/>
      </contour>
    </TTGlyph>
    <TTGlyph name="Cdotaccent" xMin="65" yMin="-8" xMax="557" yMax="859">
      <component glyphName="C" x="0" y="0" flags="0x204"/>
      <component glyphName="dotaccent" x="146" y="304" flags="0x4"/>
    </TTGlyph>
    <TTGlyph name="D" xMin="34" yMin="-7" xMax="508" yMax="740">
      <contour>
        <pt x="133" y="-7" on="1"/>
        <pt x="104" y="-7" on="0"/>
        <pt x="51" y="1" on="0"/>
        <pt x="34" y="6" on="1"/>
        <pt x="168" y="732" on="1"/>
        <pt x="183" y="736" on="0"/>
        <pt x="227" y="740" on="0"/>
        <pt x="246" y="740" on="1"/>
        <pt x="303" y="740" on="0"/>
        <pt x="398" y="707" on="0"/>
        <pt x="433" y="673" on="1"/>
        <pt x="471" y="634" on="0"/>
        <pt x="508" y="522" on="0"/>
        <pt x="508" y="456" on="1"/>
        <pt x="508" y="367" on="0"/>
        <pt x="453" y="201" on="0"/>
        <pt x="354" y="71" on="0"/>
        <pt x="216" y="-7" on="0"/>
      </contour>
      <contour>
        <pt x="247" y="711" on="1"/>
        <pt x="237" y="711" on="0"/>
        <pt x="209" y="708" on="0"/>
        <pt x="195" y="706" on="1"/>
        <pt x="69" y="30" on="1"/>
        <pt x="86" y="25" on="0"/>
        <pt x="125" y="22" on="0"/>
        <pt x="136" y="22" on="1"/>
        <pt x="208" y="22" on="0"/>
        <pt x="332" y="93" on="0"/>
        <pt x="424" y="213" on="0"/>
        <pt x="477" y="370" on="0"/>
        <pt x="477" y="456" on="1"/>
        <pt x="477" y="519" on="0"/>
        <pt x="441" y="619" on="0"/>
        <pt x="408" y="652" on="1"/>
        <pt x="378" y="682" on="0"/>
        <pt x="296" y="711" on="0"/>
      </contour>
    </TTGlyph>
    <TTGlyph name="Dcaron" xMin="34" yMin="-7" xMax="508" yMax="895">
      <component glyphName="caron" x="68" y="301" flags="0x4"/>
      <component glyphName="D" x="0" y="0" flags="0x4"/>
    </TTGlyph>
    <TTGlyph name="Dcroat" xMin="51" yMin="-7" xMax="525" yMax="740">
      <component glyphName="Eth" x="0" y="0" flags="0x204"/>
    </TTGlyph>
    <TTGlyph name="E" xMin="33" yMin="0" xMax="463" yMax="733">
      <contour>
        <pt x="458" y="704" on="1"/>
        <pt x="194" y="704" on="1"/>
        <pt x="136" y="388" on="1"/>
        <pt x="377" y="388" on="1"/>
        <pt x="372" y="359" on="1"/>
        <pt x="131" y="359" on="1"/>
        <pt x="70" y="29" on="1"/>
        <pt x="334" y="29" on="1"/>
        <pt x="328" y="0" on="1"/>
        <pt x="33" y="0" on="1"/>
        <pt x="168" y="733" on="1"/>
        <pt x="463" y="733" on="1"/>
      </contour>
    </TTGlyph>
    <TTGlyph name="Eacute" xMin="33" yMin="0" xMax="463" yMax="905">
      <component glyphName="acute" x="120" y="301" flags="0x4"/>
      <component glyphName="E" x="0" y="0" flags="0x4"/>
    </TTGlyph>
    <TTGlyph name="Ebreve" xMin="33" yMin="0" xMax="463" yMax="891">
      <component glyphName="E" x="0" y="0" flags="0x204"/>
      <component glyphName="breve" x="67" y="301" flags="0x4"/>
    </TTGlyph>
    <TTGlyph name="Ecaron" xMin="33" yMin="0" xMax="463" yMax="895">
      <component glyphName="caron" x="66" y="301" flags="0x4"/>
      <component glyphName="E" x="0" y="0" flags="0x4"/>
    </TTGlyph>
    <TTGlyph name="Ecircumflex" xMin="33" yMin="0" xMax="463" yMax="896">
      <component glyphName="circumflex" x="64" y="301" flags="0x4"/>
      <component glyphName="E" x="0" y="0" flags="0x4"/>
    </TTGlyph>
    <TTGlyph name="Edieresis" xMin="33" yMin="0" xMax="463" yMax="856">
      <component glyphName="dieresis" x="65" y="301" flags="0x4"/>
      <component glyphName="E" x="0" y="0" flags="0x4"/>
    </TTGlyph>
    <TTGlyph name="Edotaccent" xMin="33" yMin="0" xMax="463" yMax="856">
      <component glyphName="E" x="0" y="0" flags="0x204"/>
      <component glyphName="dotaccent" x="66" y="301" flags="0x4"/>
    </TTGlyph>
    <TTGlyph name="Egrave" xMin="33" yMin="0" xMax="463" yMax="908">
      <component glyphName="E" x="0" y="0" flags="0x204"/>
      <component glyphName="grave" x="14" y="301" flags="0x4"/>
    </TTGlyph>
    <TTGlyph name="Emacron" xMin="33" yMin="0" xMax="463" yMax="835">
      <component glyphName="E" x="0" y="0" flags="0x204"/>
      <component glyphName="macron" x="65" y="301" flags="0x4"/>
    </TTGlyph>
    <TTGlyph name="Eogonek" xMin="33" yMin="-201" xMax="463" yMax="733">
      <contour>
        <pt x="458" y="704" on="1"/>
        <pt x="194" y="704" on="1"/>
        <pt x="136" y="388" on="1"/>
        <pt x="377" y="388" on="1"/>
        <pt x="372" y="359" on="1"/>
        <pt x="131" y="359" on="1"/>
        <pt x="70" y="29" on="1"/>
        <pt x="334" y="29" on="1"/>
        <pt x="328" y="0" on="1"/>
        <pt x="303" y="0" on="1"/>
        <pt x="289" y="-11" on="0"/>
        <pt x="253" y="-41" on="0"/>
        <pt x="222" y="-77" on="0"/>
        <pt x="200" y="-118" on="0"/>
        <pt x="200" y="-139" on="1"/>
        <pt x="200" y="-155" on="0"/>
        <pt x="215" y="-174" on="0"/>
        <pt x="230" y="-174" on="1"/>
        <pt x="244" y="-174" on="0"/>
        <pt x="267" y="-161" on="0"/>
        <pt x="277" y="-150" on="1"/>
        <pt x="290" y="-171" on="1"/>
        <pt x="276" y="-185" on="0"/>
        <pt x="243" y="-201" on="0"/>
        <pt x="224" y="-201" on="1"/>
        <pt x="198" y="-201" on="0"/>
        <pt x="171" y="-168" on="0"/>
        <pt x="171" y="-145" on="1"/>
        <pt x="171" y="-102" on="0"/>
        <pt x="228" y="-31" on="0"/>
        <pt x="266" y="0" on="1"/>
        <pt x="33" y="0" on="1"/>
        <pt x="168" y="733" on="1"/>
        <pt x="463" y="733" on="1"/>
      </contour>
    </TTGlyph>
    <TTGlyph name="Eth" xMin="51" yMin="-7" xMax="525" yMax="740">
      <contour>
        <pt x="525" y="456" on="1"/>
        <pt x="525" y="367" on="0"/>
        <pt x="470" y="201" on="0"/>
        <pt x="371" y="71" on="0"/>
        <pt x="233" y="-7" on="0"/>
        <pt x="151" y="-7" on="1"/>
        <pt x="122" y="-7" on="0"/>
        <pt x="68" y="1" on="0"/>
        <pt x="51" y="6" on="1"/>
        <pt x="116" y="358" on="1"/>
        <pt x="60" y="358" on="1"/>
        <pt x="65" y="387" on="1"/>
        <pt x="121" y="387" on="1"/>
        <pt x="185" y="732" on="1"/>
        <pt x="200" y="736" on="0"/>
        <pt x="244" y="740" on="0"/>
        <pt x="263" y="740" on="1"/>
        <pt x="320" y="740" on="0"/>
        <pt x="416" y="707" on="0"/>
        <pt x="450" y="673" on="1"/>
        <pt x="488" y="634" on="0"/>
        <pt x="525" y="522" on="0"/>
      </contour>
      <contour>
        <pt x="494" y="456" on="1"/>
        <pt x="494" y="519" on="0"/>
        <pt x="458" y="619" on="0"/>
        <pt x="426" y="652" on="1"/>
        <pt x="396" y="682" on="0"/>
        <pt x="313" y="711" on="0"/>
        <pt x="264" y="711" on="1"/>
        <pt x="254" y="711" on="0"/>
        <pt x="225" y="709" on="0"/>
        <pt x="212" y="706" on="1"/>
        <pt x="153" y="387" on="1"/>
        <pt x="282" y="387" on="1"/>
        <pt x="277" y="358" on="1"/>
        <pt x="147" y="358" on="1"/>
        <pt x="87" y="30" on="1"/>
        <pt x="104" y="25" on="0"/>
        <pt x="143" y="22" on="0"/>
        <pt x="154" y="22" on="1"/>
        <pt x="225" y="22" on="0"/>
        <pt x="349" y="93" on="0"/>
        <pt x="441" y="213" on="0"/>
        <pt x="494" y="370" on="0"/>
      </contour>
    </TTGlyph>
    <TTGlyph name="Euro" xMin="30" yMin="-8" xMax="510" yMax="667">
      <contour>
        <pt x="92" y="265" on="1"/>
        <pt x="95" y="325" on="0"/>
        <pt x="110" y="383" on="1"/>
        <pt x="57" y="383" on="1"/>
        <pt x="61" y="410" on="1"/>
        <pt x="117" y="410" on="1"/>
        <pt x="132" y="462" on="0"/>
        <pt x="181" y="556" on="0"/>
        <pt x="246" y="626" on="0"/>
        <pt x="327" y="667" on="0"/>
        <pt x="374" y="667" on="1"/>
        <pt x="418" y="667" on="0"/>
        <pt x="488" y="633" on="0"/>
        <pt x="510" y="611" on="1"/>
        <pt x="491" y="588" on="1"/>
        <pt x="468" y="611" on="0"/>
        <pt x="406" y="639" on="0"/>
        <pt x="371" y="639" on="1"/>
        <pt x="332" y="639" on="0"/>
        <pt x="263" y="603" on="0"/>
        <pt x="207" y="541" on="0"/>
        <pt x="164" y="457" on="0"/>
        <pt x="150" y="410" on="1"/>
        <pt x="406" y="410" on="1"/>
        <pt x="402" y="383" on="1"/>
        <pt x="142" y="383" on="1"/>
        <pt x="127" y="325" on="0"/>
        <pt x="124" y="265" on="1"/>
        <pt x="381" y="265" on="1"/>
        <pt x="376" y="238" on="1"/>
        <pt x="123" y="238" on="1"/>
        <pt x="123" y="231" on="1"/>
        <pt x="123" y="131" on="0"/>
        <pt x="212" y="20" on="0"/>
        <pt x="284" y="20" on="1"/>
        <pt x="318" y="20" on="0"/>
        <pt x="375" y="41" on="0"/>
        <pt x="404" y="62" on="1"/>
        <pt x="417" y="36" on="1"/>
        <pt x="394" y="20" on="0"/>
        <pt x="325" y="-8" on="0"/>
        <pt x="282" y="-8" on="1"/>
        <pt x="241" y="-8" on="0"/>
        <pt x="171" y="23" on="0"/>
        <pt x="120" y="84" on="0"/>
        <pt x="91" y="173" on="0"/>
        <pt x="91" y="231" on="1"/>
        <pt x="91" y="238" on="1"/>
        <pt x="30" y="238" on="1"/>
        <pt x="35" y="265" on="1"/>
      </contour>
    </TTGlyph>
    <TTGlyph name="Euro.lin" xMin="35" yMin="-8" xMax="585" yMax="735">
      <contour>
        <pt x="134" y="450" on="1"/>
        <pt x="152" y="509" on="0"/>
        <pt x="209" y="613" on="0"/>
        <pt x="284" y="690" on="0"/>
        <pt x="375" y="735" on="0"/>
        <pt x="427" y="735" on="1"/>
        <pt x="478" y="735" on="0"/>
        <pt x="559" y="695" on="0"/>
        <pt x="585" y="669" on="1"/>
        <pt x="565" y="647" on="1"/>
        <pt x="538" y="673" on="0"/>
        <pt x="466" y="705" on="0"/>
        <pt x="424" y="705" on="1"/>
        <pt x="380" y="705" on="0"/>
        <pt x="302" y="666" on="0"/>
        <pt x="236" y="597" on="0"/>
        <pt x="185" y="504" on="0"/>
        <pt x="168" y="450" on="1"/>
        <pt x="466" y="450" on="1"/>
        <pt x="461" y="423" on="1"/>
        <pt x="160" y="423" on="1"/>
        <pt x="142" y="360" on="0"/>
        <pt x="139" y="292" on="1"/>
        <pt x="438" y="292" on="1"/>
        <pt x="432" y="264" on="1"/>
        <pt x="138" y="264" on="1"/>
        <pt x="138" y="259" on="1"/>
        <pt x="138" y="204" on="0"/>
        <pt x="166" y="116" on="0"/>
        <pt x="216" y="54" on="0"/>
        <pt x="286" y="21" on="0"/>
        <pt x="329" y="21" on="1"/>
        <pt x="369" y="21" on="0"/>
        <pt x="436" y="46" on="0"/>
        <pt x="471" y="71" on="1"/>
        <pt x="485" y="45" on="1"/>
        <pt x="459" y="27" on="0"/>
        <pt x="378" y="-8" on="0"/>
        <pt x="327" y="-8" on="1"/>
        <pt x="275" y="-8" on="0"/>
        <pt x="193" y="31" on="0"/>
        <pt x="136" y="101" on="0"/>
        <pt x="106" y="199" on="0"/>
        <pt x="106" y="259" on="1"/>
        <pt x="106" y="264" on="1"/>
        <pt x="35" y="264" on="1"/>
        <pt x="40" y="292" on="1"/>
        <pt x="107" y="292" on="1"/>
        <pt x="110" y="356" on="0"/>
        <pt x="127" y="423" on="1"/>
        <pt x="64" y="423" on="1"/>
        <pt x="69" y="450" on="1"/>
      </contour>
    </TTGlyph>
    <TTGlyph name="F" xMin="33" yMin="0" xMax="465" yMax="733">
      <contour>
        <pt x="460" y="704" on="1"/>
        <pt x="195" y="704" on="1"/>
        <pt x="136" y="384" on="1"/>
        <pt x="376" y="384" on="1"/>
        <pt x="371" y="356" on="1"/>
        <pt x="130" y="356" on="1"/>
        <pt x="65" y="0" on="1"/>
        <pt x="33" y="0" on="1"/>
        <pt x="168" y="733" on="1"/>
        <pt x="465" y="733" on="1"/>
      </contour>
    </TTGlyph>
    <TTGlyph name="G" xMin="65" yMin="-8" xMax="553" yMax="741">
      <contour>
        <pt x="450" y="44" on="1"/>
        <pt x="427" y="28" on="0"/>
        <pt x="348" y="-8" on="0"/>
        <pt x="289" y="-8" on="1"/>
        <pt x="239" y="-8" on="0"/>
        <pt x="157" y="30" on="0"/>
        <pt x="98" y="101" on="0"/>
        <pt x="65" y="202" on="0"/>
        <pt x="65" y="265" on="1"/>
        <pt x="65" y="350" on="0"/>
        <pt x="114" y="520" on="0"/>
        <pt x="202" y="656" on="0"/>
        <pt x="324" y="741" on="0"/>
        <pt x="396" y="741" on="1"/>
        <pt x="449" y="741" on="0"/>
        <pt x="527" y="705" on="0"/>
        <pt x="553" y="682" on="1"/>
        <pt x="534" y="657" on="1"/>
        <pt x="510" y="677" on="0"/>
        <pt x="444" y="712" on="0"/>
        <pt x="394" y="712" on="1"/>
        <pt x="329" y="712" on="0"/>
        <pt x="220" y="631" on="0"/>
        <pt x="141" y="502" on="0"/>
        <pt x="97" y="342" on="0"/>
        <pt x="97" y="263" on="1"/>
        <pt x="97" y="208" on="0"/>
        <pt x="125" y="119" on="0"/>
        <pt x="176" y="56" on="0"/>
        <pt x="247" y="21" on="0"/>
        <pt x="290" y="21" on="1"/>
        <pt x="333" y="21" on="0"/>
        <pt x="404" y="46" on="0"/>
        <pt x="422" y="59" on="1"/>
        <pt x="472" y="327" on="1"/>
        <pt x="315" y="327" on="1"/>
        <pt x="320" y="356" on="1"/>
        <pt x="509" y="356" on="1"/>
      </contour>
    </TTGlyph>
    <TTGlyph name="G.alt" xMin="65" yMin="-7" xMax="553" yMax="741">
      <contour>
        <pt x="544" y="360" on="1"/>
        <pt x="535" y="280" on="0"/>
        <pt x="491" y="146" on="0"/>
        <pt x="424" y="48" on="0"/>
        <pt x="334" y="-7" on="0"/>
        <pt x="277" y="-7" on="1"/>
        <pt x="227" y="-7" on="0"/>
        <pt x="148" y="36" on="0"/>
        <pt x="94" y="110" on="0"/>
        <pt x="65" y="209" on="0"/>
        <pt x="65" y="265" on="1"/>
        <pt x="65" y="350" on="0"/>
        <pt x="114" y="520" on="0"/>
        <pt x="202" y="656" on="0"/>
        <pt x="324" y="741" on="0"/>
        <pt x="396" y="741" on="1"/>
        <pt x="449" y="741" on="0"/>
        <pt x="527" y="705" on="0"/>
        <pt x="553" y="682" on="1"/>
        <pt x="534" y="657" on="1"/>
        <pt x="510" y="677" on="0"/>
        <pt x="444" y="712" on="0"/>
        <pt x="394" y="712" on="1"/>
        <pt x="329" y="712" on="0"/>
        <pt x="220" y="631" on="0"/>
        <pt x="141" y="502" on="0"/>
        <pt x="97" y="342" on="0"/>
        <pt x="97" y="263" on="1"/>
        <pt x="97" y="212" on="0"/>
        <pt x="122" y="123" on="0"/>
        <pt x="169" y="58" on="0"/>
        <pt x="237" y="21" on="0"/>
        <pt x="280" y="21" on="1"/>
        <pt x="323" y="21" on="0"/>
        <pt x="398" y="67" on="0"/>
        <pt x="458" y="149" on="0"/>
        <pt x="499" y="263" on="0"/>
        <pt x="508" y="331" on="1"/>
        <pt x="305" y="331" on="1"/>
        <pt x="310" y="360" on="1"/>
      </contour>
    </TTGlyph>
    <TTGlyph name="Gbreve" xMin="65" yMin="-8" xMax="553" yMax="894">
      <component glyphName="G" x="0" y="0" flags="0x204"/>
      <component glyphName="breve" x="140" y="304" flags="0x4"/>
    </TTGlyph>
    <TTGlyph name="Gbreve.alt" xMin="65" yMin="-7" xMax="553" yMax="894">
      <component glyphName="G.alt" x="0" y="0" flags="0x204"/>
      <component glyphName="breve" x="140" y="304" flags="0x4"/>
    </TTGlyph>
    <TTGlyph name="Gcommaaccent" xMin="65" yMin="-212" xMax="553" yMax="741">
      <component glyphName="commaaccent" x="147" y="0" flags="0x4"/>
      <component glyphName="G" x="0" y="0" flags="0x4"/>
    </TTGlyph>
    <TTGlyph name="Gcommaaccent.alt" xMin="65" yMin="-212" xMax="553" yMax="741">
      <component glyphName="commaaccent" x="161" y="0" flags="0x4"/>
      <component glyphName="G.alt" x="0" y="0" flags="0x4"/>
    </TTGlyph>
    <TTGlyph name="Gdotaccent" xMin="65" yMin="-8" xMax="553" yMax="859">
      <component glyphName="G" x="0" y="0" flags="0x204"/>
      <component glyphName="dotaccent" x="139" y="304" flags="0x4"/>
    </TTGlyph>
    <TTGlyph name="Gdotaccent.alt" xMin="65" yMin="-7" xMax="553" yMax="859">
      <component glyphName="G.alt" x="0" y="0" flags="0x4"/>
      <component glyphName="dotaccent" x="139" y="304" flags="0x4"/>
    </TTGlyph>
    <TTGlyph name="H" xMin="33" yMin="0" xMax="543" yMax="733">
      <contour>
        <pt x="408" y="0" on="1"/>
        <pt x="376" y="0" on="1"/>
        <pt x="442" y="360" on="1"/>
        <pt x="131" y="360" on="1"/>
        <pt x="65" y="0" on="1"/>
        <pt x="33" y="0" on="1"/>
        <pt x="168" y="733" on="1"/>
        <pt x="200" y="733" on="1"/>
        <pt x="136" y="389" on="1"/>
        <pt x="447" y="389" on="1"/>
        <pt x="511" y="733" on="1"/>
        <pt x="543" y="733" on="1"/>
      </contour>
    </TTGlyph>
    <TTGlyph name="Hbar" xMin="33" yMin="0" xMax="578" yMax="733">
      <contour>
        <pt x="517" y="592" on="1"/>
        <pt x="578" y="592" on="1"/>
        <pt x="573" y="564" on="1"/>
        <pt x="512" y="564" on="1"/>
        <pt x="408" y="0" on="1"/>
        <pt x="376" y="0" on="1"/>
        <pt x="442" y="360" on="1"/>
        <pt x="131" y="360" on="1"/>
        <pt x="65" y="0" on="1"/>
        <pt x="33" y="0" on="1"/>
        <pt x="137" y="564" on="1"/>
        <pt x="76" y="564" on="1"/>
        <pt x="81" y="592" on="1"/>
        <pt x="142" y="592" on="1"/>
        <pt x="168" y="733" on="1"/>
        <pt x="200" y="733" on="1"/>
        <pt x="174" y="592" on="1"/>
        <pt x="484" y="592" on="1"/>
        <pt x="511" y="733" on="1"/>
        <pt x="543" y="733" on="1"/>
      </contour>
      <contour>
        <pt x="447" y="389" on="1"/>
        <pt x="479" y="564" on="1"/>
        <pt x="169" y="564" on="1"/>
        <pt x="136" y="389" on="1"/>
      </contour>
    </TTGlyph>
    <TTGlyph name="I" xMin="36" yMin="0" xMax="203" yMax="733">
      <contour>
        <pt x="68" y="0" on="1"/>
        <pt x="36" y="0" on="1"/>
        <pt x="171" y="733" on="1"/>
        <pt x="203" y="733" on="1"/>
      </contour>
    </TTGlyph>
    <TTGlyph name="Iacute" xMin="36" yMin="0" xMax="341" yMax="905">
      <component glyphName="I" x="0" y="0" flags="0x204"/>
      <component glyphName="acute" x="-2" y="301" flags="0x4"/>
    </TTGlyph>
    <TTGlyph name="Ibreve" xMin="36" yMin="0" xMax="317" yMax="891">
      <component glyphName="I" x="0" y="0" flags="0x204"/>
      <component glyphName="breve" x="-59" y="301" flags="0x4"/>
    </TTGlyph>
    <TTGlyph name="Icircumflex" xMin="36" yMin="0" xMax="301" yMax="896">
      <component glyphName="I" x="0" y="0" flags="0x204"/>
      <component glyphName="circumflex" x="-62" y="301" flags="0x4"/>
    </TTGlyph>
    <TTGlyph name="Idieresis" xMin="36" yMin="0" xMax="299" yMax="856">
      <component glyphName="I" x="0" y="0" flags="0x204"/>
      <component glyphName="dieresis" x="-61" y="301" flags="0x4"/>
    </TTGlyph>
    <TTGlyph name="Idotaccent" xMin="36" yMin="0" xMax="235" yMax="856">
      <component glyphName="I" x="0" y="0" flags="0x204"/>
      <component glyphName="dotaccent" x="-60" y="301" flags="0x4"/>
    </TTGlyph>
    <TTGlyph name="Igrave" xMin="36" yMin="0" xMax="231" yMax="908">
      <component glyphName="I" x="0" y="0" flags="0x204"/>
      <component glyphName="grave" x="-112" y="301" flags="0x4"/>
    </TTGlyph>
    <TTGlyph name="Imacron" xMin="36" yMin="0" xMax="324" yMax="835">
      <component glyphName="I" x="0" y="0" flags="0x204"/>
      <component glyphName="macron" x="-61" y="301" flags="0x4"/>
    </TTGlyph>
    <TTGlyph name="Iogonek" xMin="-51" yMin="-201" xMax="203" yMax="733">
      <contour>
        <pt x="68" y="0" on="1"/>
        <pt x="51" y="-17" on="0"/>
        <pt x="18" y="-51" on="0"/>
        <pt x="-7" y="-85" on="0"/>
        <pt x="-22" y="-120" on="0"/>
        <pt x="-22" y="-138" on="1"/>
        <pt x="-22" y="-155" on="0"/>
        <pt x="-6" y="-174" on="0"/>
        <pt x="9" y="-174" on="1"/>
        <pt x="22" y="-174" on="0"/>
        <pt x="45" y="-161" on="0"/>
        <pt x="56" y="-150" on="1"/>
        <pt x="69" y="-171" on="1"/>
        <pt x="54" y="-185" on="0"/>
        <pt x="22" y="-201" on="0"/>
        <pt x="2" y="-201" on="1"/>
        <pt x="-24" y="-201" on="0"/>
        <pt x="-51" y="-168" on="0"/>
        <pt x="-51" y="-145" on="1"/>
        <pt x="-51" y="-106" on="0"/>
        <pt x="0" y="-32" on="0"/>
        <pt x="36" y="3" on="1"/>
        <pt x="171" y="733" on="1"/>
        <pt x="203" y="733" on="1"/>
      </contour>
    </TTGlyph>
    <TTGlyph name="J" xMin="-19" yMin="-10" xMax="361" yMax="733">
      <contour>
        <pt x="252" y="144" on="1"/>
        <pt x="238" y="68" on="0"/>
        <pt x="166" y="-10" on="0"/>
        <pt x="103" y="-10" on="1"/>
        <pt x="67" y="-10" on="0"/>
        <pt x="6" y="17" on="0"/>
        <pt x="-19" y="40" on="1"/>
        <pt x="-3" y="63" on="1"/>
        <pt x="23" y="40" on="0"/>
        <pt x="74" y="18" on="0"/>
        <pt x="104" y="18" on="1"/>
        <pt x="155" y="18" on="0"/>
        <pt x="210" y="89" on="0"/>
        <pt x="222" y="152" on="1"/>
        <pt x="329" y="733" on="1"/>
        <pt x="361" y="733" on="1"/>
      </contour>
    </TTGlyph>
    <TTGlyph name="K" xMin="33" yMin="0" xMax="499" yMax="733">
      <contour>
        <pt x="160" y="373" on="1"/>
        <pt x="371" y="0" on="1"/>
        <pt x="333" y="0" on="1"/>
        <pt x="132" y="362" on="1"/>
        <pt x="65" y="0" on="1"/>
        <pt x="33" y="0" on="1"/>
        <pt x="168" y="733" on="1"/>
        <pt x="200" y="733" on="1"/>
        <pt x="136" y="387" on="1"/>
        <pt x="459" y="733" on="1"/>
        <pt x="499" y="733" on="1"/>
      </contour>
    </TTGlyph>
    <TTGlyph name="Kcommaaccent" xMin="33" yMin="-212" xMax="499" yMax="733">
      <component glyphName="commaaccent" x="84" y="0" flags="0x4"/>
      <component glyphName="K" x="0" y="0" flags="0x4"/>
    </TTGlyph>
    <TTGlyph name="L" xMin="33" yMin="0" xMax="335" yMax="733">
      <contour>
        <pt x="330" y="0" on="1"/>
        <pt x="33" y="0" on="1"/>
        <pt x="168" y="733" on="1"/>
        <pt x="200" y="733" on="1"/>
        <pt x="70" y="28" on="1"/>
        <pt x="335" y="28" on="1"/>
      </contour>
    </TTGlyph>
    <TTGlyph name="Lacute" xMin="33" yMin="0" xMax="345" yMax="902">
      <component glyphName="acute" x="2" y="298" flags="0x4"/>
      <component glyphName="L" x="0" y="0" flags="0x4"/>
    </TTGlyph>
    <TTGlyph name="Lcaron" xMin="33" yMin="0" xMax="343" yMax="735">
      <component glyphName="caron.alt" x="181" y="-2" flags="0x4"/>
      <component glyphName="L" x="0" y="0" flags="0x4"/>
    </TTGlyph>
    <TTGlyph name="Lcommaaccent" xMin="33" yMin="-212" xMax="335" yMax="733">
      <component glyphName="commaaccent" x="71" y="0" flags="0x4"/>
      <component glyphName="L" x="0" y="0" flags="0x4"/>
    </TTGlyph>
    <TTGlyph name="Ldot" xMin="33" yMin="0" xMax="355" yMax="733">
      <component glyphName="L" x="0" y="0" flags="0x204"/>
      <component glyphName="dotaccent" x="60" y="-158" flags="0x4"/>
    </TTGlyph>
    <TTGlyph name="Lslash" xMin="51" yMin="0" xMax="362" yMax="733">
      <contour>
        <pt x="357" y="0" on="1"/>
        <pt x="56" y="0" on="1"/>
        <pt x="119" y="344" on="1"/>
        <pt x="51" y="316" on="1"/>
        <pt x="56" y="347" on="1"/>
        <pt x="76" y="355" on="0"/>
        <pt x="91" y="361" on="1"/>
        <pt x="103" y="365" on="0"/>
        <pt x="114" y="371" on="1"/>
        <pt x="119" y="374" on="0"/>
        <pt x="125" y="376" on="1"/>
        <pt x="191" y="733" on="1"/>
        <pt x="223" y="733" on="1"/>
        <pt x="160" y="391" on="1"/>
        <pt x="277" y="440" on="1"/>
        <pt x="272" y="408" on="1"/>
        <pt x="154" y="359" on="1"/>
        <pt x="124" y="193" on="1"/>
        <pt x="111" y="120" on="0"/>
        <pt x="94" y="28" on="1"/>
        <pt x="362" y="28" on="1"/>
      </contour>
    </TTGlyph>
    <TTGlyph name="M" xMin="27" yMin="0" xMax="638" yMax="738">
      <contour>
        <pt x="525" y="0" on="1"/>
        <pt x="494" y="0" on="1"/>
        <pt x="595" y="631" on="1"/>
        <pt x="309" y="159" on="1"/>
        <pt x="301" y="159" on="1"/>
        <pt x="189" y="631" on="1"/>
        <pt x="58" y="0" on="1"/>
        <pt x="27" y="0" on="1"/>
        <pt x="183" y="736" on="1"/>
        <pt x="196" y="738" on="1"/>
        <pt x="315" y="222" on="1"/>
        <pt x="625" y="738" on="1"/>
        <pt x="638" y="736" on="1"/>
      </contour>
    </TTGlyph>
    <TTGlyph name="M.alt" xMin="27" yMin="0" xMax="638" yMax="738">
      <contour>
        <pt x="525" y="0" on="1"/>
        <pt x="494" y="0" on="1"/>
        <pt x="596" y="635" on="1"/>
        <pt x="315" y="189" on="1"/>
        <pt x="306" y="189" on="1"/>
        <pt x="190" y="636" on="1"/>
        <pt x="58" y="0" on="1"/>
        <pt x="27" y="0" on="1"/>
        <pt x="183" y="736" on="1"/>
        <pt x="196" y="738" on="1"/>
        <pt x="321" y="251" on="1"/>
        <pt x="625" y="738" on="1"/>
        <pt x="638" y="736" on="1"/>
      </contour>
    </TTGlyph>
    <TTGlyph name="N" xMin="34" yMin="-4" xMax="558" yMax="737">
      <contour>
        <pt x="423" y="-3" on="1"/>
        <pt x="412" y="-4" on="1"/>
        <pt x="182" y="646" on="1"/>
        <pt x="64" y="0" on="1"/>
        <pt x="34" y="0" on="1"/>
        <pt x="169" y="736" on="1"/>
        <pt x="182" y="737" on="1"/>
        <pt x="410" y="88" on="1"/>
        <pt x="528" y="733" on="1"/>
        <pt x="558" y="733" on="1"/>
      </contour>
    </TTGlyph>
    <TTGlyph name="Nacute" xMin="34" yMin="-4" xMax="558" yMax="900">
      <component glyphName="acute" x="166" y="296" flags="0x4"/>
      <component glyphName="N" x="0" y="0" flags="0x4"/>
    </TTGlyph>
    <TTGlyph name="Ncaron" xMin="34" yMin="-4" xMax="558" yMax="890">
      <component glyphName="caron" x="112" y="296" flags="0x4"/>
      <component glyphName="N" x="0" y="0" flags="0x4"/>
    </TTGlyph>
    <TTGlyph name="Ncommaaccent" xMin="34" yMin="-212" xMax="558" yMax="737">
      <component glyphName="commaaccent" x="117" y="0" flags="0x4"/>
      <component glyphName="N" x="0" y="0" flags="0x4"/>
    </TTGlyph>
    <TTGlyph name="Ntilde" xMin="34" yMin="-4" xMax="558" yMax="858">
      <component glyphName="N" x="0" y="0" flags="0x204"/>
      <component glyphName="tilde" x="112" y="296" flags="0x4"/>
    </TTGlyph>
    <TTGlyph name="O" xMin="66" yMin="-8" xMax="574" yMax="741">
      <contour>
        <pt x="574" y="462" on="1"/>
        <pt x="574" y="409" on="0"/>
        <pt x="553" y="297" on="0"/>
        <pt x="514" y="193" on="0"/>
        <pt x="458" y="101" on="0"/>
        <pt x="388" y="32" on="0"/>
        <pt x="305" y="-8" on="0"/>
        <pt x="259" y="-8" on="1"/>
        <pt x="216" y="-8" on="0"/>
        <pt x="145" y="31" on="0"/>
        <pt x="94" y="104" on="0"/>
        <pt x="66" y="208" on="0"/>
        <pt x="66" y="272" on="1"/>
        <pt x="66" y="325" on="0"/>
        <pt x="87" y="436" on="0"/>
        <pt x="126" y="540" on="0"/>
        <pt x="182" y="632" on="0"/>
        <pt x="252" y="701" on="0"/>
        <pt x="335" y="741" on="0"/>
        <pt x="381" y="741" on="1"/>
        <pt x="424" y="741" on="0"/>
        <pt x="495" y="702" on="0"/>
        <pt x="546" y="629" on="0"/>
        <pt x="574" y="526" on="0"/>
      </contour>
      <contour>
        <pt x="543" y="462" on="1"/>
        <pt x="543" y="520" on="0"/>
        <pt x="518" y="613" on="0"/>
        <pt x="475" y="678" on="0"/>
        <pt x="415" y="712" on="0"/>
        <pt x="379" y="712" on="1"/>
        <pt x="320" y="712" on="0"/>
        <pt x="218" y="634" on="0"/>
        <pt x="142" y="509" on="0"/>
        <pt x="98" y="351" on="0"/>
        <pt x="98" y="271" on="1"/>
        <pt x="98" y="212" on="0"/>
        <pt x="123" y="119" on="0"/>
        <pt x="166" y="55" on="0"/>
        <pt x="226" y="21" on="0"/>
        <pt x="262" y="21" on="1"/>
        <pt x="320" y="21" on="0"/>
        <pt x="422" y="99" on="0"/>
        <pt x="499" y="224" on="0"/>
        <pt x="543" y="382" on="0"/>
      </contour>
    </TTGlyph>
    <TTGlyph name="OE" xMin="66" yMin="-7" xMax="801" yMax="740">
      <contour>
        <pt x="796" y="704" on="1"/>
        <pt x="532" y="704" on="1"/>
        <pt x="474" y="388" on="1"/>
        <pt x="715" y="388" on="1"/>
        <pt x="710" y="359" on="1"/>
        <pt x="469" y="359" on="1"/>
        <pt x="409" y="29" on="1"/>
        <pt x="672" y="29" on="1"/>
        <pt x="667" y="0" on="1"/>
        <pt x="390" y="0" on="1"/>
        <pt x="375" y="-2" on="0"/>
        <pt x="340" y="-7" on="0"/>
        <pt x="324" y="-7" on="1"/>
        <pt x="261" y="-7" on="0"/>
        <pt x="164" y="34" on="0"/>
        <pt x="99" y="109" on="0"/>
        <pt x="66" y="214" on="0"/>
        <pt x="66" y="278" on="1"/>
        <pt x="66" y="366" on="0"/>
        <pt x="121" y="533" on="0"/>
        <pt x="220" y="662" on="0"/>
        <pt x="357" y="740" on="0"/>
        <pt x="440" y="740" on="1"/>
        <pt x="458" y="740" on="0"/>
        <pt x="494" y="735" on="0"/>
        <pt x="510" y="733" on="1"/>
        <pt x="801" y="733" on="1"/>
      </contour>
      <contour>
        <pt x="322" y="22" on="1"/>
        <pt x="333" y="22" on="0"/>
        <pt x="363" y="24" on="0"/>
        <pt x="376" y="27" on="1"/>
        <pt x="500" y="704" on="1"/>
        <pt x="484" y="708" on="0"/>
        <pt x="447" y="711" on="0"/>
        <pt x="437" y="711" on="1"/>
        <pt x="366" y="711" on="0"/>
        <pt x="242" y="640" on="0"/>
        <pt x="150" y="520" on="0"/>
        <pt x="97" y="363" on="0"/>
        <pt x="97" y="278" on="1"/>
        <pt x="97" y="212" on="0"/>
        <pt x="139" y="101" on="0"/>
        <pt x="183" y="67" on="1"/>
        <pt x="209" y="46" on="0"/>
        <pt x="278" y="22" on="0"/>
      </contour>
    </TTGlyph>
    <TTGlyph name="Oacute" xMin="66" yMin="-8" xMax="574" yMax="908">
      <component glyphName="acute" x="194" y="304" flags="0x4"/>
      <component glyphName="O" x="0" y="0" flags="0x4"/>
    </TTGlyph>
    <TTGlyph name="Obreve" xMin="66" yMin="-8" xMax="574" yMax="894">
      <component glyphName="O" x="0" y="0" flags="0x204"/>
      <component glyphName="breve" x="141" y="304" flags="0x4"/>
    </TTGlyph>
    <TTGlyph name="Ocircumflex" xMin="66" yMin="-8" xMax="574" yMax="899">
      <component glyphName="circumflex" x="138" y="304" flags="0x4"/>
      <component glyphName="O" x="0" y="0" flags="0x4"/>
    </TTGlyph>
    <TTGlyph name="Odieresis" xMin="66" yMin="-8" xMax="574" yMax="859">
      <component glyphName="dieresis" x="139" y="304" flags="0x4"/>
      <component glyphName="O" x="0" y="0" flags="0x4"/>
    </TTGlyph>
    <TTGlyph name="Ograve" xMin="66" yMin="-8" xMax="574" yMax="911">
      <component glyphName="O" x="0" y="0" flags="0x204"/>
      <component glyphName="grave" x="88" y="304" flags="0x4"/>
    </TTGlyph>
    <TTGlyph name="Ohungarumlaut" xMin="66" yMin="-8" xMax="574" yMax="951">
      <component glyphName="hungarumlaut" x="165" y="304" flags="0x4"/>
      <component glyphName="O" x="0" y="0" flags="0x4"/>
    </TTGlyph>
    <TTGlyph name="Omacron" xMin="66" yMin="-8" xMax="574" yMax="838">
      <component glyphName="macron" x="139" y="304" flags="0x4"/>
      <component glyphName="O" x="0" y="0" flags="0x4"/>
    </TTGlyph>
    <TTGlyph name="Oslash" xMin="10" yMin="-8" xMax="630" yMax="743">
      <contour>
        <pt x="574" y="462" on="1"/>
        <pt x="574" y="409" on="0"/>
        <pt x="553" y="297" on="0"/>
        <pt x="514" y="193" on="0"/>
        <pt x="458" y="101" on="0"/>
        <pt x="388" y="32" on="0"/>
        <pt x="305" y="-8" on="0"/>
        <pt x="259" y="-8" on="1"/>
        <pt x="210" y="-8" on="0"/>
        <pt x="133" y="41" on="0"/>
        <pt x="107" y="87" on="1"/>
        <pt x="30" y="-7" on="1"/>
        <pt x="10" y="9" on="1"/>
        <pt x="94" y="113" on="1"/>
        <pt x="66" y="181" on="0"/>
        <pt x="66" y="272" on="1"/>
        <pt x="66" y="325" on="0"/>
        <pt x="87" y="436" on="0"/>
        <pt x="126" y="540" on="0"/>
        <pt x="182" y="632" on="0"/>
        <pt x="252" y="701" on="0"/>
        <pt x="335" y="741" on="0"/>
        <pt x="381" y="741" on="1"/>
        <pt x="429" y="741" on="0"/>
        <pt x="506" y="692" on="0"/>
        <pt x="532" y="647" on="1"/>
        <pt x="610" y="743" on="1"/>
        <pt x="630" y="727" on="1"/>
        <pt x="545" y="621" on="1"/>
        <pt x="574" y="555" on="0"/>
      </contour>
      <contour>
        <pt x="543" y="462" on="1"/>
        <pt x="543" y="500" on="0"/>
        <pt x="532" y="567" on="0"/>
        <pt x="522" y="594" on="1"/>
        <pt x="129" y="113" on="1"/>
        <pt x="151" y="68" on="0"/>
        <pt x="219" y="21" on="0"/>
        <pt x="262" y="21" on="1"/>
        <pt x="320" y="21" on="0"/>
        <pt x="422" y="99" on="0"/>
        <pt x="499" y="224" on="0"/>
        <pt x="543" y="382" on="0"/>
      </contour>
      <contour>
        <pt x="98" y="271" on="1"/>
        <pt x="98" y="233" on="0"/>
        <pt x="108" y="168" on="0"/>
        <pt x="117" y="141" on="1"/>
        <pt x="510" y="622" on="1"/>
        <pt x="488" y="666" on="0"/>
        <pt x="421" y="712" on="0"/>
        <pt x="379" y="712" on="1"/>
        <pt x="320" y="712" on="0"/>
        <pt x="218" y="634" on="0"/>
        <pt x="142" y="509" on="0"/>
        <pt x="98" y="351" on="0"/>
      </contour>
    </TTGlyph>
    <TTGlyph name="Oslashacute" xMin="10" yMin="-8" xMax="630" yMax="908">
      <component glyphName="Oslash" x="0" y="0" flags="0x204"/>
      <component glyphName="acute" x="193" y="304" flags="0x4"/>
    </TTGlyph>
    <TTGlyph name="Otilde" xMin="66" yMin="-8" xMax="574" yMax="866">
      <component glyphName="O" x="0" y="0" flags="0x204"/>
      <component glyphName="tilde" x="140" y="304" flags="0x4"/>
    </TTGlyph>
    <TTGlyph name="P" xMin="33" yMin="0" xMax="453" yMax="739">
      <contour>
        <pt x="453" y="540" on="1"/>
        <pt x="453" y="482" on="0"/>
        <pt x="416" y="381" on="0"/>
        <pt x="348" y="306" on="0"/>
        <pt x="251" y="262" on="0"/>
        <pt x="192" y="262" on="1"/>
        <pt x="172" y="262" on="0"/>
        <pt x="132" y="266" on="0"/>
        <pt x="115" y="269" on="1"/>
        <pt x="65" y="0" on="1"/>
        <pt x="33" y="0" on="1"/>
        <pt x="167" y="730" on="1"/>
        <pt x="189" y="735" on="0"/>
        <pt x="234" y="739" on="0"/>
        <pt x="251" y="739" on="1"/>
        <pt x="300" y="739" on="0"/>
        <pt x="376" y="709" on="0"/>
        <pt x="427" y="657" on="0"/>
        <pt x="453" y="583" on="0"/>
      </contour>
      <contour>
        <pt x="421" y="539" on="1"/>
        <pt x="421" y="575" on="0"/>
        <pt x="401" y="637" on="0"/>
        <pt x="359" y="683" on="0"/>
        <pt x="294" y="710" on="0"/>
        <pt x="249" y="710" on="1"/>
        <pt x="238" y="710" on="0"/>
        <pt x="210" y="707" on="0"/>
        <pt x="195" y="705" on="1"/>
        <pt x="120" y="297" on="1"/>
        <pt x="139" y="294" on="0"/>
        <pt x="175" y="290" on="0"/>
        <pt x="192" y="290" on="1"/>
        <pt x="245" y="290" on="0"/>
        <pt x="330" y="330" on="0"/>
        <pt x="389" y="397" on="0"/>
        <pt x="421" y="488" on="0"/>
      </contour>
    </TTGlyph>
    <TTGlyph name="Q" xMin="66" yMin="-13" xMax="574" yMax="741">
      <contour>
        <pt x="574" y="474" on="1"/>
        <pt x="574" y="423" on="0"/>
        <pt x="558" y="319" on="0"/>
        <pt x="527" y="220" on="0"/>
        <pt x="483" y="131" on="0"/>
        <pt x="455" y="95" on="1"/>
        <pt x="515" y="6" on="1"/>
        <pt x="492" y="-13" on="1"/>
        <pt x="435" y="72" on="1"/>
        <pt x="400" y="34" on="0"/>
        <pt x="316" y="-8" on="0"/>
        <pt x="268" y="-8" on="1"/>
        <pt x="221" y="-8" on="0"/>
        <pt x="147" y="32" on="0"/>
        <pt x="94" y="103" on="0"/>
        <pt x="66" y="201" on="0"/>
        <pt x="66" y="260" on="1"/>
        <pt x="66" y="317" on="0"/>
        <pt x="87" y="433" on="0"/>
        <pt x="126" y="539" on="0"/>
        <pt x="180" y="633" on="0"/>
        <pt x="248" y="701" on="0"/>
        <pt x="328" y="741" on="0"/>
        <pt x="372" y="741" on="1"/>
        <pt x="418" y="741" on="0"/>
        <pt x="493" y="701" on="0"/>
        <pt x="546" y="630" on="0"/>
        <pt x="574" y="532" on="0"/>
      </contour>
      <contour>
        <pt x="543" y="474" on="1"/>
        <pt x="543" y="527" on="0"/>
        <pt x="518" y="614" on="0"/>
        <pt x="473" y="677" on="0"/>
        <pt x="409" y="712" on="0"/>
        <pt x="370" y="712" on="1"/>
        <pt x="315" y="712" on="0"/>
        <pt x="216" y="635" on="0"/>
        <pt x="142" y="508" on="0"/>
        <pt x="98" y="345" on="0"/>
        <pt x="98" y="259" on="1"/>
        <pt x="98" y="206" on="0"/>
        <pt x="123" y="118" on="0"/>
        <pt x="168" y="55" on="0"/>
        <pt x="232" y="21" on="0"/>
        <pt x="271" y="21" on="1"/>
        <pt x="311" y="21" on="0"/>
        <pt x="386" y="62" on="0"/>
        <pt x="418" y="98" on="1"/>
        <pt x="311" y="252" on="1"/>
        <pt x="334" y="271" on="1"/>
        <pt x="437" y="123" on="1"/>
        <pt x="461" y="155" on="0"/>
        <pt x="500" y="235" on="0"/>
        <pt x="528" y="325" on="0"/>
        <pt x="543" y="424" on="0"/>
      </contour>
    </TTGlyph>
    <TTGlyph name="R" xMin="33" yMin="0" xMax="463" yMax="739">
      <contour>
        <pt x="463" y="554" on="1"/>
        <pt x="463" y="512" on="0"/>
        <pt x="437" y="435" on="0"/>
        <pt x="389" y="373" on="0"/>
        <pt x="321" y="328" on="0"/>
        <pt x="278" y="317" on="1"/>
        <pt x="383" y="0" on="1"/>
        <pt x="348" y="0" on="1"/>
        <pt x="246" y="310" on="1"/>
        <pt x="225" y="307" on="0"/>
        <pt x="204" y="307" on="1"/>
        <pt x="182" y="307" on="0"/>
        <pt x="145" y="311" on="0"/>
        <pt x="123" y="313" on="1"/>
        <pt x="65" y="0" on="1"/>
        <pt x="33" y="0" on="1"/>
        <pt x="167" y="729" on="1"/>
        <pt x="193" y="734" on="0"/>
        <pt x="237" y="739" on="0"/>
        <pt x="260" y="739" on="1"/>
        <pt x="309" y="739" on="0"/>
        <pt x="385" y="712" on="0"/>
        <pt x="437" y="662" on="0"/>
        <pt x="463" y="594" on="0"/>
      </contour>
      <contour>
        <pt x="430" y="552" on="1"/>
        <pt x="430" y="622" on="0"/>
        <pt x="345" y="710" on="0"/>
        <pt x="257" y="710" on="1"/>
        <pt x="239" y="710" on="0"/>
        <pt x="215" y="707" on="0"/>
        <pt x="195" y="705" on="1"/>
        <pt x="128" y="342" on="1"/>
        <pt x="167" y="336" on="0"/>
        <pt x="206" y="336" on="1"/>
        <pt x="257" y="336" on="0"/>
        <pt x="340" y="371" on="0"/>
        <pt x="399" y="430" on="0"/>
        <pt x="430" y="508" on="0"/>
      </contour>
    </TTGlyph>
    <TTGlyph name="Racute" xMin="33" yMin="0" xMax="463" yMax="905">
      <component glyphName="acute" x="120" y="301" flags="0x4"/>
      <component glyphName="R" x="0" y="0" flags="0x4"/>
    </TTGlyph>
    <TTGlyph name="Rcaron" xMin="33" yMin="0" xMax="463" yMax="895">
      <component glyphName="caron" x="66" y="301" flags="0x4"/>
      <component glyphName="R" x="0" y="0" flags="0x4"/>
    </TTGlyph>
    <TTGlyph name="Rcommaaccent" xMin="33" yMin="-212" xMax="463" yMax="739">
      <component glyphName="commaaccent" x="69" y="0" flags="0x4"/>
      <component glyphName="R" x="0" y="0" flags="0x4"/>
    </TTGlyph>
    <TTGlyph name="S" xMin="-10" yMin="-8" xMax="431" yMax="741">
      <contour>
        <pt x="410" y="647" on="1"/>
        <pt x="389" y="673" on="0"/>
        <pt x="322" y="713" on="0"/>
        <pt x="282" y="713" on="1"/>
        <pt x="252" y="713" on="0"/>
        <pt x="202" y="693" on="0"/>
        <pt x="164" y="656" on="0"/>
        <pt x="143" y="604" on="0"/>
        <pt x="143" y="572" on="1"/>
        <pt x="143" y="522" on="0"/>
        <pt x="195" y="443" on="0"/>
        <pt x="240" y="397" on="1"/>
        <pt x="261" y="374" on="0"/>
        <pt x="302" y="326" on="0"/>
        <pt x="333" y="273" on="0"/>
        <pt x="353" y="215" on="0"/>
        <pt x="353" y="183" on="1"/>
        <pt x="353" y="139" on="0"/>
        <pt x="325" y="69" on="0"/>
        <pt x="275" y="19" on="0"/>
        <pt x="208" y="-8" on="0"/>
        <pt x="169" y="-8" on="1"/>
        <pt x="140" y="-8" on="0"/>
        <pt x="88" y="9" on="0"/>
        <pt x="43" y="36" on="0"/>
        <pt x="5" y="72" on="0"/>
        <pt x="-10" y="91" on="1"/>
        <pt x="11" y="113" on="1"/>
        <pt x="42" y="71" on="0"/>
        <pt x="121" y="20" on="0"/>
        <pt x="169" y="20" on="1"/>
        <pt x="202" y="20" on="0"/>
        <pt x="258" y="44" on="0"/>
        <pt x="299" y="87" on="0"/>
        <pt x="321" y="146" on="0"/>
        <pt x="321" y="181" on="1"/>
        <pt x="321" y="210" on="0"/>
        <pt x="303" y="262" on="0"/>
        <pt x="272" y="311" on="0"/>
        <pt x="233" y="357" on="0"/>
        <pt x="212" y="380" on="1"/>
        <pt x="192" y="402" on="0"/>
        <pt x="155" y="444" on="0"/>
        <pt x="127" y="490" on="0"/>
        <pt x="110" y="541" on="0"/>
        <pt x="110" y="571" on="1"/>
        <pt x="110" y="609" on="0"/>
        <pt x="136" y="671" on="0"/>
        <pt x="183" y="716" on="0"/>
        <pt x="246" y="741" on="0"/>
        <pt x="283" y="741" on="1"/>
        <pt x="331" y="741" on="0"/>
        <pt x="408" y="698" on="0"/>
        <pt x="431" y="670" on="1"/>
      </contour>
    </TTGlyph>
    <TTGlyph name="Sacute" xMin="-10" yMin="-8" xMax="442" yMax="908">
      <component glyphName="acute" x="99" y="304" flags="0x4"/>
      <component glyphName="S" x="0" y="0" flags="0x4"/>
    </TTGlyph>
    <TTGlyph name="Scaron" xMin="-10" yMin="-8" xMax="431" yMax="898">
      <component glyphName="caron" x="45" y="304" flags="0x4"/>
      <component glyphName="S" x="0" y="0" flags="0x4"/>
    </TTGlyph>
    <TTGlyph name="Scedilla" xMin="-10" yMin="-198" xMax="431" yMax="741">
      <contour>
        <pt x="236" y="-124" on="1"/>
        <pt x="236" y="-155" on="0"/>
        <pt x="184" y="-198" on="0"/>
        <pt x="144" y="-198" on="1"/>
        <pt x="123" y="-198" on="0"/>
        <pt x="79" y="-183" on="0"/>
        <pt x="61" y="-170" on="1"/>
        <pt x="76" y="-146" on="1"/>
        <pt x="91" y="-157" on="0"/>
        <pt x="126" y="-171" on="0"/>
        <pt x="145" y="-171" on="1"/>
        <pt x="171" y="-171" on="0"/>
        <pt x="204" y="-146" on="0"/>
        <pt x="204" y="-125" on="1"/>
        <pt x="204" y="-106" on="0"/>
        <pt x="168" y="-77" on="0"/>
        <pt x="125" y="-72" on="1"/>
        <pt x="124" y="-68" on="1"/>
        <pt x="151" y="-7" on="1"/>
        <pt x="98" y="-2" on="0"/>
        <pt x="18" y="56" on="0"/>
        <pt x="-10" y="91" on="1"/>
        <pt x="11" y="113" on="1"/>
        <pt x="42" y="71" on="0"/>
        <pt x="121" y="20" on="0"/>
        <pt x="169" y="20" on="1"/>
        <pt x="202" y="20" on="0"/>
        <pt x="258" y="44" on="0"/>
        <pt x="299" y="87" on="0"/>
        <pt x="321" y="146" on="0"/>
        <pt x="321" y="181" on="1"/>
        <pt x="321" y="210" on="0"/>
        <pt x="303" y="262" on="0"/>
        <pt x="272" y="311" on="0"/>
        <pt x="233" y="357" on="0"/>
        <pt x="212" y="380" on="1"/>
        <pt x="192" y="402" on="0"/>
        <pt x="155" y="444" on="0"/>
        <pt x="127" y="490" on="0"/>
        <pt x="110" y="541" on="0"/>
        <pt x="110" y="571" on="1"/>
        <pt x="110" y="609" on="0"/>
        <pt x="136" y="671" on="0"/>
        <pt x="183" y="716" on="0"/>
        <pt x="246" y="741" on="0"/>
        <pt x="283" y="741" on="1"/>
        <pt x="331" y="741" on="0"/>
        <pt x="408" y="698" on="0"/>
        <pt x="431" y="670" on="1"/>
        <pt x="410" y="647" on="1"/>
        <pt x="389" y="673" on="0"/>
        <pt x="322" y="713" on="0"/>
        <pt x="282" y="713" on="1"/>
        <pt x="252" y="713" on="0"/>
        <pt x="202" y="693" on="0"/>
        <pt x="164" y="656" on="0"/>
        <pt x="143" y="604" on="0"/>
        <pt x="143" y="572" on="1"/>
        <pt x="143" y="522" on="0"/>
        <pt x="195" y="443" on="0"/>
        <pt x="240" y="397" on="1"/>
        <pt x="261" y="374" on="0"/>
        <pt x="302" y="326" on="0"/>
        <pt x="333" y="273" on="0"/>
        <pt x="353" y="215" on="0"/>
        <pt x="353" y="183" on="1"/>
        <pt x="353" y="141" on="0"/>
        <pt x="327" y="73" on="0"/>
        <pt x="281" y="24" on="0"/>
        <pt x="218" y="-5" on="0"/>
        <pt x="182" y="-7" on="1"/>
        <pt x="161" y="-53" on="1"/>
        <pt x="197" y="-63" on="0"/>
        <pt x="236" y="-97" on="0"/>
      </contour>
    </TTGlyph>
    <TTGlyph name="Scommaaccent" xMin="-10" yMin="-212" xMax="431" yMax="741">
      <component glyphName="commaaccent" x="48" y="0" flags="0x4"/>
      <component glyphName="S" x="0" y="0" flags="0x4"/>
    </TTGlyph>
    <TTGlyph name="T" xMin="102" yMin="0" xMax="481" yMax="733">
      <contour>
        <pt x="476" y="703" on="1"/>
        <pt x="304" y="703" on="1"/>
        <pt x="175" y="0" on="1"/>
        <pt x="143" y="0" on="1"/>
        <pt x="272" y="703" on="1"/>
        <pt x="102" y="703" on="1"/>
        <pt x="108" y="733" on="1"/>
        <pt x="481" y="733" on="1"/>
      </contour>
    </TTGlyph>
    <TTGlyph name="Tcaron" xMin="102" yMin="0" xMax="481" yMax="895">
      <component glyphName="caron" x="47" y="301" flags="0x4"/>
      <component glyphName="T" x="0" y="0" flags="0x4"/>
    </TTGlyph>
    <TTGlyph name="Tcommaaccent" xMin="83" yMin="-212" xMax="481" yMax="733">
      <component glyphName="commaaccent" x="51" y="0" flags="0x4"/>
      <component glyphName="T" x="0" y="0" flags="0x4"/>
    </TTGlyph>
    <TTGlyph name="Thorn" xMin="33" yMin="0" xMax="431" yMax="733">
      <contour>
        <pt x="168" y="733" on="1"/>
        <pt x="200" y="733" on="1"/>
        <pt x="178" y="617" on="1"/>
        <pt x="191" y="619" on="0"/>
        <pt x="220" y="619" on="0"/>
        <pt x="228" y="619" on="1"/>
        <pt x="277" y="619" on="0"/>
        <pt x="353" y="590" on="0"/>
        <pt x="404" y="537" on="0"/>
        <pt x="431" y="464" on="0"/>
        <pt x="431" y="421" on="1"/>
        <pt x="431" y="363" on="0"/>
        <pt x="394" y="261" on="0"/>
        <pt x="326" y="186" on="0"/>
        <pt x="229" y="143" on="0"/>
        <pt x="170" y="143" on="1"/>
        <pt x="150" y="143" on="0"/>
        <pt x="110" y="147" on="0"/>
        <pt x="92" y="150" on="1"/>
        <pt x="65" y="0" on="1"/>
        <pt x="33" y="0" on="1"/>
      </contour>
      <contour>
        <pt x="399" y="419" on="1"/>
        <pt x="399" y="455" on="0"/>
        <pt x="379" y="517" on="0"/>
        <pt x="337" y="564" on="0"/>
        <pt x="272" y="591" on="0"/>
        <pt x="227" y="591" on="1"/>
        <pt x="216" y="591" on="0"/>
        <pt x="188" y="588" on="0"/>
        <pt x="173" y="586" on="1"/>
        <pt x="98" y="178" on="1"/>
        <pt x="117" y="175" on="0"/>
        <pt x="153" y="171" on="0"/>
        <pt x="170" y="171" on="1"/>
        <pt x="223" y="171" on="0"/>
        <pt x="308" y="210" on="0"/>
        <pt x="367" y="278" on="0"/>
        <pt x="399" y="368" on="0"/>
      </contour>
    </TTGlyph>
    <TTGlyph name="U" xMin="67" yMin="-7" xMax="550" yMax="733">
      <contour>
        <pt x="453" y="199" on="1"/>
        <pt x="444" y="154" on="0"/>
        <pt x="412" y="78" on="0"/>
        <pt x="359" y="23" on="0"/>
        <pt x="286" y="-7" on="0"/>
        <pt x="237" y="-7" on="1"/>
        <pt x="158" y="-7" on="0"/>
        <pt x="67" y="79" on="0"/>
        <pt x="67" y="154" on="1"/>
        <pt x="67" y="192" on="0"/>
        <pt x="76" y="239" on="1"/>
        <pt x="166" y="733" on="1"/>
        <pt x="199" y="733" on="1"/>
        <pt x="106" y="227" on="1"/>
        <pt x="103" y="210" on="0"/>
        <pt x="98" y="178" on="0"/>
        <pt x="98" y="155" on="1"/>
        <pt x="98" y="92" on="0"/>
        <pt x="175" y="21" on="0"/>
        <pt x="241" y="21" on="1"/>
        <pt x="315" y="21" on="0"/>
        <pt x="404" y="111" on="0"/>
        <pt x="421" y="205" on="1"/>
        <pt x="518" y="733" on="1"/>
        <pt x="550" y="733" on="1"/>
      </contour>
    </TTGlyph>
    <TTGlyph name="Uacute" xMin="67" yMin="-7" xMax="550" yMax="900">
      <component glyphName="acute" x="158" y="296" flags="0x4"/>
      <component glyphName="U" x="0" y="0" flags="0x4"/>
    </TTGlyph>
    <TTGlyph name="Ubreve" xMin="67" yMin="-7" xMax="550" yMax="886">
      <component glyphName="U" x="0" y="0" flags="0x204"/>
      <component glyphName="breve" x="105" y="296" flags="0x4"/>
    </TTGlyph>
    <TTGlyph name="Ucircumflex" xMin="67" yMin="-7" xMax="550" yMax="891">
      <component glyphName="circumflex" x="102" y="296" flags="0x4"/>
      <component glyphName="U" x="0" y="0" flags="0x4"/>
    </TTGlyph>
    <TTGlyph name="Udieresis" xMin="67" yMin="-7" xMax="550" yMax="851">
      <component glyphName="dieresis" x="103" y="296" flags="0x4"/>
      <component glyphName="U" x="0" y="0" flags="0x4"/>
    </TTGlyph>
    <TTGlyph name="Ugrave" xMin="67" yMin="-7" xMax="550" yMax="903">
      <component glyphName="U" x="0" y="0" flags="0x204"/>
      <component glyphName="grave" x="52" y="296" flags="0x4"/>
    </TTGlyph>
    <TTGlyph name="Uhungarumlaut" xMin="67" yMin="-7" xMax="550" yMax="943">
      <component glyphName="U" x="0" y="0" flags="0x204"/>
      <component glyphName="hungarumlaut" x="129" y="296" flags="0x4"/>
    </TTGlyph>
    <TTGlyph name="Umacron" xMin="67" yMin="-7" xMax="550" yMax="830">
      <component glyphName="U" x="0" y="0" flags="0x204"/>
      <component glyphName="macron" x="104" y="296" flags="0x4"/>
    </TTGlyph>
    <TTGlyph name="Uogonek" xMin="67" yMin="-201" xMax="550" yMax="733">
      <contour>
        <pt x="453" y="199" on="1"/>
        <pt x="445" y="155" on="0"/>
        <pt x="414" y="83" on="0"/>
        <pt x="366" y="29" on="0"/>
        <pt x="299" y="-3" on="0"/>
        <pt x="254" y="-6" on="1"/>
        <pt x="240" y="-18" on="0"/>
        <pt x="207" y="-47" on="0"/>
        <pt x="179" y="-81" on="0"/>
        <pt x="160" y="-119" on="0"/>
        <pt x="160" y="-138" on="1"/>
        <pt x="160" y="-155" on="0"/>
        <pt x="175" y="-174" on="0"/>
        <pt x="190" y="-174" on="1"/>
        <pt x="203" y="-174" on="0"/>
        <pt x="226" y="-161" on="0"/>
        <pt x="237" y="-150" on="1"/>
        <pt x="250" y="-171" on="1"/>
        <pt x="236" y="-185" on="0"/>
        <pt x="203" y="-201" on="0"/>
        <pt x="183" y="-201" on="1"/>
        <pt x="157" y="-201" on="0"/>
        <pt x="130" y="-168" on="0"/>
        <pt x="130" y="-145" on="1"/>
        <pt x="130" y="-104" on="0"/>
        <pt x="182" y="-35" on="0"/>
        <pt x="217" y="-6" on="1"/>
        <pt x="147" y="-1" on="0"/>
        <pt x="67" y="84" on="0"/>
        <pt x="67" y="154" on="1"/>
        <pt x="67" y="192" on="0"/>
        <pt x="76" y="239" on="1"/>
        <pt x="166" y="733" on="1"/>
        <pt x="199" y="733" on="1"/>
        <pt x="106" y="227" on="1"/>
        <pt x="103" y="210" on="0"/>
        <pt x="98" y="178" on="0"/>
        <pt x="98" y="155" on="1"/>
        <pt x="98" y="92" on="0"/>
        <pt x="175" y="21" on="0"/>
        <pt x="241" y="21" on="1"/>
        <pt x="315" y="21" on="0"/>
        <pt x="404" y="111" on="0"/>
        <pt x="421" y="205" on="1"/>
        <pt x="518" y="733" on="1"/>
        <pt x="550" y="733" on="1"/>
      </contour>
    </TTGlyph>
    <TTGlyph name="Uring" xMin="67" yMin="-7" xMax="550" yMax="943">
      <component glyphName="ring" x="107" y="296" flags="0x4"/>
      <component glyphName="U" x="0" y="0" flags="0x4"/>
    </TTGlyph>
    <TTGlyph name="V" xMin="122" yMin="-10" xMax="575" yMax="733">
      <contour>
        <pt x="218" y="-10" on="1"/>
        <pt x="207" y="-10" on="1"/>
        <pt x="122" y="733" on="1"/>
        <pt x="154" y="733" on="1"/>
        <pt x="227" y="69" on="1"/>
        <pt x="539" y="733" on="1"/>
        <pt x="575" y="733" on="1"/>
      </contour>
    </TTGlyph>
    <TTGlyph name="W" xMin="139" yMin="-8" xMax="787" yMax="733">
      <contour>
        <pt x="512" y="-7" on="1"/>
        <pt x="496" y="-8" on="1"/>
        <pt x="446" y="645" on="1"/>
        <pt x="159" y="-8" on="1"/>
        <pt x="144" y="-7" on="1"/>
        <pt x="139" y="733" on="1"/>
        <pt x="169" y="733" on="1"/>
        <pt x="171" y="83" on="1"/>
        <pt x="455" y="733" on="1"/>
        <pt x="469" y="733" on="1"/>
        <pt x="517" y="81" on="1"/>
        <pt x="754" y="733" on="1"/>
        <pt x="787" y="733" on="1"/>
      </contour>
    </TTGlyph>
    <TTGlyph name="Wacute" xMin="139" yMin="-8" xMax="787" yMax="905">
      <component glyphName="acute" x="267" y="301" flags="0x4"/>
      <component glyphName="W" x="0" y="0" flags="0x4"/>
    </TTGlyph>
    <TTGlyph name="Wcircumflex" xMin="139" yMin="-8" xMax="787" yMax="896">
      <component glyphName="circumflex" x="211" y="301" flags="0x4"/>
      <component glyphName="W" x="0" y="0" flags="0x4"/>
    </TTGlyph>
    <TTGlyph name="Wdieresis" xMin="139" yMin="-8" xMax="787" yMax="856">
      <component glyphName="dieresis" x="212" y="301" flags="0x4"/>
      <component glyphName="W" x="0" y="0" flags="0x4"/>
    </TTGlyph>
    <TTGlyph name="Wgrave" xMin="139" yMin="-8" xMax="787" yMax="908">
      <component glyphName="W" x="0" y="0" flags="0x204"/>
      <component glyphName="grave" x="161" y="301" flags="0x4"/>
    </TTGlyph>
    <TTGlyph name="X" xMin="-4" yMin="0" xMax="539" yMax="733">
      <contour>
        <pt x="291" y="372" on="1"/>
        <pt x="415" y="0" on="1"/>
        <pt x="382" y="0" on="1"/>
        <pt x="268" y="346" on="1"/>
        <pt x="32" y="0" on="1"/>
        <pt x="-4" y="0" on="1"/>
        <pt x="256" y="377" on="1"/>
        <pt x="136" y="733" on="1"/>
        <pt x="169" y="733" on="1"/>
        <pt x="279" y="403" on="1"/>
        <pt x="502" y="733" on="1"/>
        <pt x="539" y="733" on="1"/>
      </contour>
    </TTGlyph>
    <TTGlyph name="Y" xMin="114" yMin="0" xMax="517" yMax="733">
      <contour>
        <pt x="256" y="320" on="1"/>
        <pt x="197" y="0" on="1"/>
        <pt x="165" y="0" on="1"/>
        <pt x="224" y="319" on="1"/>
        <pt x="114" y="733" on="1"/>
        <pt x="146" y="733" on="1"/>
        <pt x="245" y="354" on="1"/>
        <pt x="480" y="733" on="1"/>
        <pt x="517" y="733" on="1"/>
      </contour>
    </TTGlyph>
    <TTGlyph name="Yacute" xMin="114" yMin="0" xMax="517" yMax="900">
      <component glyphName="Y" x="0" y="0" flags="0x204"/>
      <component glyphName="acute" x="122" y="296" flags="0x4"/>
    </TTGlyph>
    <TTGlyph name="Ycircumflex" xMin="114" yMin="0" xMax="517" yMax="891">
      <component glyphName="Y" x="0" y="0" flags="0x204"/>
      <component glyphName="circumflex" x="66" y="296" flags="0x4"/>
    </TTGlyph>
    <TTGlyph name="Ydieresis" xMin="114" yMin="0" xMax="517" yMax="851">
      <component glyphName="Y" x="0" y="0" flags="0x204"/>
      <component glyphName="dieresis" x="67" y="296" flags="0x4"/>
    </TTGlyph>
    <TTGlyph name="Ygrave" xMin="114" yMin="0" xMax="517" yMax="903">
      <component glyphName="Y" x="0" y="0" flags="0x204"/>
      <component glyphName="grave" x="16" y="296" flags="0x4"/>
    </TTGlyph>
    <TTGlyph name="Z" xMin="-2" yMin="0" xMax="513" yMax="733">
      <contour>
        <pt x="48" y="29" on="1"/>
        <pt x="382" y="29" on="1"/>
        <pt x="377" y="0" on="1"/>
        <pt x="0" y="0" on="1"/>
        <pt x="-2" y="6" on="1"/>
        <pt x="462" y="704" on="1"/>
        <pt x="144" y="704" on="1"/>
        <pt x="149" y="733" on="1"/>
        <pt x="510" y="733" on="1"/>
        <pt x="513" y="726" on="1"/>
      </contour>
    </TTGlyph>
    <TTGlyph name="Zacute" xMin="-2" yMin="0" xMax="513" yMax="905">
      <component glyphName="acute" x="129" y="301" flags="0x4"/>
      <component glyphName="Z" x="0" y="0" flags="0x4"/>
    </TTGlyph>
    <TTGlyph name="Zcaron" xMin="-2" yMin="0" xMax="513" yMax="895">
      <component glyphName="caron" x="75" y="301" flags="0x4"/>
      <component glyphName="Z" x="0" y="0" flags="0x4"/>
    </TTGlyph>
    <TTGlyph name="Zdotaccent" xMin="-2" yMin="0" xMax="513" yMax="856">
      <component glyphName="Z" x="0" y="0" flags="0x204"/>
      <component glyphName="dotaccent" x="75" y="301" flags="0x4"/>
    </TTGlyph>
    <TTGlyph name="a" xMin="13" yMin="-9" xMax="305" yMax="439">
      <contour>
        <pt x="305" y="343" on="1"/>
        <pt x="305" y="332" on="0"/>
        <pt x="301" y="299" on="0"/>
        <pt x="299" y="290" on="1"/>
        <pt x="245" y="0" on="1"/>
        <pt x="214" y="0" on="1"/>
        <pt x="222" y="45" on="1"/>
        <pt x="204" y="23" on="0"/>
        <pt x="150" y="-9" on="0"/>
        <pt x="114" y="-9" on="1"/>
        <pt x="72" y="-9" on="0"/>
        <pt x="13" y="46" on="0"/>
        <pt x="13" y="100" on="1"/>
        <pt x="13" y="134" on="0"/>
        <pt x="35" y="193" on="0"/>
        <pt x="73" y="237" on="0"/>
        <pt x="126" y="263" on="0"/>
        <pt x="157" y="263" on="1"/>
        <pt x="192" y="263" on="0"/>
        <pt x="239" y="237" on="0"/>
        <pt x="254" y="223" on="1"/>
        <pt x="266" y="288" on="1"/>
        <pt x="270" y="311" on="0"/>
        <pt x="272" y="331" on="0"/>
        <pt x="272" y="339" on="1"/>
        <pt x="272" y="374" on="0"/>
        <pt x="225" y="410" on="0"/>
        <pt x="184" y="410" on="1"/>
        <pt x="159" y="410" on="0"/>
        <pt x="117" y="400" on="0"/>
        <pt x="100" y="393" on="1"/>
        <pt x="93" y="420" on="1"/>
        <pt x="113" y="428" on="0"/>
        <pt x="161" y="439" on="0"/>
        <pt x="189" y="439" on="1"/>
        <pt x="240" y="439" on="0"/>
        <pt x="305" y="387" on="0"/>
      </contour>
      <contour>
        <pt x="249" y="197" on="1"/>
        <pt x="236" y="211" on="0"/>
        <pt x="189" y="236" on="0"/>
        <pt x="158" y="236" on="1"/>
        <pt x="132" y="236" on="0"/>
        <pt x="90" y="214" on="0"/>
        <pt x="61" y="177" on="0"/>
        <pt x="45" y="129" on="0"/>
        <pt x="45" y="104" on="1"/>
        <pt x="45" y="64" on="0"/>
        <pt x="84" y="17" on="0"/>
        <pt x="119" y="17" on="1"/>
        <pt x="151" y="17" on="0"/>
        <pt x="204" y="51" on="0"/>
        <pt x="227" y="78" on="1"/>
      </contour>
    </TTGlyph>
    <TTGlyph name="aacute" xMin="13" yMin="-9" xMax="354" yMax="604">
      <component glyphName="a" x="0" y="0" flags="0x204"/>
      <component glyphName="acute" x="11" y="0" flags="0x4"/>
    </TTGlyph>
    <TTGlyph name="abreve" xMin="13" yMin="-9" xMax="335" yMax="590">
      <component glyphName="a" x="0" y="0" flags="0x204"/>
      <component glyphName="breve" x="-41" y="0" flags="0x4"/>
    </TTGlyph>
    <TTGlyph name="acircumflex" xMin="13" yMin="-9" xMax="319" yMax="595">
      <component glyphName="a" x="0" y="0" flags="0x204"/>
      <component glyphName="circumflex" x="-44" y="0" flags="0x4"/>
    </TTGlyph>
    <TTGlyph name="acute" xMin="175" yMin="479" xMax="343" yMax="604">
      <contour>
        <pt x="186" y="479" on="1"/>
        <pt x="175" y="496" on="1"/>
        <pt x="324" y="604" on="1"/>
        <pt x="343" y="576" on="1"/>
      </contour>
    </TTGlyph>
    <TTGlyph name="adieresis" xMin="13" yMin="-9" xMax="317" yMax="555">
      <component glyphName="a" x="0" y="0" flags="0x204"/>
      <component glyphName="dieresis" x="-43" y="0" flags="0x4"/>
    </TTGlyph>
    <TTGlyph name="ae" xMin="16" yMin="-9" xMax="542" yMax="439">
      <contour>
        <pt x="121" y="-9" on="1"/>
        <pt x="76" y="-9" on="0"/>
        <pt x="16" y="48" on="0"/>
        <pt x="16" y="103" on="1"/>
        <pt x="16" y="136" on="0"/>
        <pt x="37" y="194" on="0"/>
        <pt x="76" y="237" on="0"/>
        <pt x="128" y="263" on="0"/>
        <pt x="160" y="263" on="1"/>
        <pt x="194" y="263" on="0"/>
        <pt x="242" y="237" on="0"/>
        <pt x="257" y="223" on="1"/>
        <pt x="268" y="285" on="1"/>
        <pt x="275" y="317" on="0"/>
        <pt x="275" y="337" on="1"/>
        <pt x="275" y="371" on="0"/>
        <pt x="229" y="410" on="0"/>
        <pt x="187" y="410" on="1"/>
        <pt x="162" y="410" on="0"/>
        <pt x="120" y="400" on="0"/>
        <pt x="103" y="393" on="1"/>
        <pt x="96" y="420" on="1"/>
        <pt x="116" y="428" on="0"/>
        <pt x="164" y="439" on="0"/>
        <pt x="192" y="439" on="1"/>
        <pt x="240" y="439" on="0"/>
        <pt x="300" y="392" on="0"/>
        <pt x="302" y="350" on="1"/>
        <pt x="328" y="392" on="0"/>
        <pt x="394" y="439" on="0"/>
        <pt x="435" y="439" on="1"/>
        <pt x="464" y="439" on="0"/>
        <pt x="505" y="416" on="0"/>
        <pt x="531" y="378" on="0"/>
        <pt x="542" y="326" on="0"/>
        <pt x="542" y="298" on="1"/>
        <pt x="542" y="280" on="0"/>
        <pt x="535" y="229" on="0"/>
        <pt x="530" y="209" on="1"/>
        <pt x="285" y="209" on="1"/>
        <pt x="283" y="193" on="0"/>
        <pt x="281" y="163" on="0"/>
        <pt x="281" y="151" on="1"/>
        <pt x="281" y="89" on="0"/>
        <pt x="333" y="19" on="0"/>
        <pt x="388" y="19" on="1"/>
        <pt x="410" y="19" on="0"/>
        <pt x="451" y="32" on="0"/>
        <pt x="469" y="43" on="1"/>
        <pt x="479" y="17" on="1"/>
        <pt x="459" y="6" on="0"/>
        <pt x="412" y="-9" on="0"/>
        <pt x="386" y="-9" on="1"/>
        <pt x="274" y="-9" on="0"/>
        <pt x="255" y="105" on="1"/>
        <pt x="236" y="57" on="0"/>
        <pt x="169" y="-9" on="0"/>
      </contour>
      <contour>
        <pt x="124" y="18" on="1"/>
        <pt x="168" y="18" on="0"/>
        <pt x="237" y="109" on="0"/>
        <pt x="253" y="197" on="1"/>
        <pt x="236" y="213" on="0"/>
        <pt x="191" y="236" on="0"/>
        <pt x="161" y="236" on="1"/>
        <pt x="135" y="236" on="0"/>
        <pt x="93" y="214" on="0"/>
        <pt x="64" y="177" on="0"/>
        <pt x="48" y="130" on="0"/>
        <pt x="48" y="105" on="1"/>
        <pt x="48" y="64" on="0"/>
        <pt x="88" y="18" on="0"/>
      </contour>
      <contour>
        <pt x="505" y="236" on="1"/>
        <pt x="508" y="250" on="0"/>
        <pt x="512" y="284" on="0"/>
        <pt x="512" y="300" on="1"/>
        <pt x="512" y="321" on="0"/>
        <pt x="504" y="361" on="0"/>
        <pt x="486" y="392" on="0"/>
        <pt x="456" y="411" on="0"/>
        <pt x="433" y="411" on="1"/>
        <pt x="407" y="411" on="0"/>
        <pt x="362" y="383" on="0"/>
        <pt x="325" y="335" on="0"/>
        <pt x="297" y="272" on="0"/>
        <pt x="290" y="236" on="1"/>
      </contour>
    </TTGlyph>
    <TTGlyph name="aeacute" xMin="16" yMin="-9" xMax="542" yMax="604">
      <component glyphName="acute" x="130" y="0" flags="0x4"/>
      <component glyphName="ae" x="0" y="0" flags="0x4"/>
    </TTGlyph>
    <TTGlyph name="agrave" xMin="13" yMin="-9" xMax="305" yMax="607">
      <component glyphName="a" x="0" y="0" flags="0x204"/>
      <component glyphName="grave" x="-94" y="0" flags="0x4"/>
    </TTGlyph>
    <TTGlyph name="amacron" xMin="13" yMin="-9" xMax="343" yMax="534">
      <component glyphName="a" x="0" y="0" flags="0x204"/>
      <component glyphName="macron" x="-42" y="0" flags="0x4"/>
    </TTGlyph>
    <TTGlyph name="ampersand" xMin="24" yMin="-14" xMax="468" yMax="670">
      <contour>
        <pt x="468" y="286" on="1"/>
        <pt x="437" y="234" on="0"/>
        <pt x="374" y="140" on="0"/>
        <pt x="340" y="102" on="1"/>
        <pt x="356" y="74" on="0"/>
        <pt x="386" y="24" on="0"/>
        <pt x="400" y="3" on="1"/>
        <pt x="374" y="-14" on="1"/>
        <pt x="361" y="5" on="0"/>
        <pt x="333" y="51" on="0"/>
        <pt x="319" y="77" on="1"/>
        <pt x="280" y="37" on="0"/>
        <pt x="199" y="-9" on="0"/>
        <pt x="154" y="-9" on="1"/>
        <pt x="94" y="-9" on="0"/>
        <pt x="24" y="68" on="0"/>
        <pt x="24" y="129" on="1"/>
        <pt x="24" y="205" on="0"/>
        <pt x="116" y="321" on="0"/>
        <pt x="191" y="360" on="1"/>
        <pt x="181" y="392" on="0"/>
        <pt x="170" y="454" on="0"/>
        <pt x="170" y="483" on="1"/>
        <pt x="170" y="522" on="0"/>
        <pt x="190" y="590" on="0"/>
        <pt x="226" y="641" on="0"/>
        <pt x="277" y="670" on="0"/>
        <pt x="307" y="670" on="1"/>
        <pt x="350" y="670" on="0"/>
        <pt x="401" y="615" on="0"/>
        <pt x="401" y="572" on="1"/>
        <pt x="401" y="535" on="0"/>
        <pt x="375" y="470" on="0"/>
        <pt x="329" y="413" on="0"/>
        <pt x="265" y="365" on="0"/>
        <pt x="228" y="346" on="1"/>
        <pt x="244" y="295" on="0"/>
        <pt x="297" y="183" on="0"/>
        <pt x="326" y="129" on="1"/>
        <pt x="358" y="167" on="0"/>
        <pt x="418" y="256" on="0"/>
        <pt x="445" y="304" on="1"/>
      </contour>
      <contour>
        <pt x="304" y="103" on="1"/>
        <pt x="274" y="159" on="0"/>
        <pt x="217" y="279" on="0"/>
        <pt x="200" y="333" on="1"/>
        <pt x="134" y="297" on="0"/>
        <pt x="55" y="195" on="0"/>
        <pt x="55" y="131" on="1"/>
        <pt x="55" y="81" on="0"/>
        <pt x="109" y="19" on="0"/>
        <pt x="157" y="19" on="1"/>
        <pt x="195" y="19" on="0"/>
        <pt x="268" y="65" on="0"/>
      </contour>
      <contour>
        <pt x="369" y="569" on="1"/>
        <pt x="369" y="602" on="0"/>
        <pt x="334" y="643" on="0"/>
        <pt x="304" y="643" on="1"/>
        <pt x="281" y="643" on="0"/>
        <pt x="243" y="616" on="0"/>
        <pt x="216" y="571" on="0"/>
        <pt x="201" y="514" on="0"/>
        <pt x="201" y="485" on="1"/>
        <pt x="201" y="458" on="0"/>
        <pt x="212" y="403" on="0"/>
        <pt x="220" y="374" on="1"/>
        <pt x="291" y="411" on="0"/>
        <pt x="369" y="507" on="0"/>
      </contour>
    </TTGlyph>
    <TTGlyph name="ampersand.cap" xMin="28" yMin="-15" xMax="535" yMax="740">
      <contour>
        <pt x="535" y="314" on="1"/>
        <pt x="500" y="257" on="0"/>
        <pt x="426" y="155" on="0"/>
        <pt x="387" y="112" on="1"/>
        <pt x="404" y="81" on="0"/>
        <pt x="439" y="26" on="0"/>
        <pt x="455" y="2" on="1"/>
        <pt x="429" y="-15" on="1"/>
        <pt x="399" y="30" on="0"/>
        <pt x="365" y="87" on="1"/>
        <pt x="320" y="42" on="0"/>
        <pt x="227" y="-9" on="0"/>
        <pt x="176" y="-9" on="1"/>
        <pt x="143" y="-9" on="0"/>
        <pt x="88" y="14" on="0"/>
        <pt x="49" y="54" on="0"/>
        <pt x="28" y="111" on="0"/>
        <pt x="28" y="145" on="1"/>
        <pt x="28" y="228" on="0"/>
        <pt x="130" y="354" on="0"/>
        <pt x="218" y="398" on="1"/>
        <pt x="207" y="433" on="0"/>
        <pt x="193" y="504" on="0"/>
        <pt x="193" y="536" on="1"/>
        <pt x="193" y="579" on="0"/>
        <pt x="215" y="654" on="0"/>
        <pt x="255" y="709" on="0"/>
        <pt x="311" y="740" on="0"/>
        <pt x="346" y="740" on="1"/>
        <pt x="395" y="740" on="0"/>
        <pt x="452" y="678" on="0"/>
        <pt x="452" y="630" on="1"/>
        <pt x="452" y="589" on="0"/>
        <pt x="423" y="518" on="0"/>
        <pt x="371" y="457" on="0"/>
        <pt x="299" y="405" on="0"/>
        <pt x="255" y="384" on="1"/>
        <pt x="274" y="327" on="0"/>
        <pt x="337" y="200" on="0"/>
        <pt x="372" y="139" on="1"/>
        <pt x="410" y="181" on="0"/>
        <pt x="479" y="280" on="0"/>
        <pt x="511" y="332" on="1"/>
      </contour>
      <contour>
        <pt x="351" y="114" on="1"/>
        <pt x="315" y="177" on="0"/>
        <pt x="248" y="311" on="0"/>
        <pt x="227" y="371" on="1"/>
        <pt x="151" y="331" on="0"/>
        <pt x="60" y="219" on="0"/>
        <pt x="60" y="147" on="1"/>
        <pt x="60" y="90" on="0"/>
        <pt x="123" y="19" on="0"/>
        <pt x="180" y="19" on="1"/>
        <pt x="223" y="19" on="0"/>
        <pt x="309" y="71" on="0"/>
      </contour>
      <contour>
        <pt x="247" y="412" on="1"/>
        <pt x="332" y="453" on="0"/>
        <pt x="420" y="558" on="0"/>
        <pt x="420" y="627" on="1"/>
        <pt x="420" y="665" on="0"/>
        <pt x="378" y="712" on="0"/>
        <pt x="343" y="712" on="1"/>
        <pt x="314" y="712" on="0"/>
        <pt x="270" y="682" on="0"/>
        <pt x="240" y="633" on="0"/>
        <pt x="224" y="570" on="0"/>
        <pt x="224" y="537" on="1"/>
        <pt x="224" y="508" on="0"/>
        <pt x="237" y="444" on="0"/>
      </contour>
    </TTGlyph>
    <TTGlyph name="aogonek" xMin="13" yMin="-201" xMax="305" yMax="439">
      <contour>
        <pt x="231" y="-171" on="1"/>
        <pt x="217" y="-185" on="0"/>
        <pt x="184" y="-201" on="0"/>
        <pt x="165" y="-201" on="1"/>
        <pt x="139" y="-201" on="0"/>
        <pt x="112" y="-168" on="0"/>
        <pt x="112" y="-145" on="1"/>
        <pt x="112" y="-123" on="0"/>
        <pt x="129" y="-82" on="0"/>
        <pt x="157" y="-44" on="0"/>
        <pt x="195" y="-10" on="0"/>
        <pt x="215" y="6" on="1"/>
        <pt x="222" y="45" on="1"/>
        <pt x="204" y="23" on="0"/>
        <pt x="150" y="-9" on="0"/>
        <pt x="114" y="-9" on="1"/>
        <pt x="72" y="-9" on="0"/>
        <pt x="13" y="46" on="0"/>
        <pt x="13" y="100" on="1"/>
        <pt x="13" y="134" on="0"/>
        <pt x="35" y="193" on="0"/>
        <pt x="73" y="237" on="0"/>
        <pt x="126" y="263" on="0"/>
        <pt x="157" y="263" on="1"/>
        <pt x="192" y="263" on="0"/>
        <pt x="239" y="237" on="0"/>
        <pt x="254" y="223" on="1"/>
        <pt x="266" y="288" on="1"/>
        <pt x="270" y="311" on="0"/>
        <pt x="272" y="331" on="0"/>
        <pt x="272" y="339" on="1"/>
        <pt x="272" y="374" on="0"/>
        <pt x="225" y="410" on="0"/>
        <pt x="184" y="410" on="1"/>
        <pt x="159" y="410" on="0"/>
        <pt x="117" y="400" on="0"/>
        <pt x="100" y="393" on="1"/>
        <pt x="93" y="420" on="1"/>
        <pt x="113" y="428" on="0"/>
        <pt x="161" y="439" on="0"/>
        <pt x="189" y="439" on="1"/>
        <pt x="240" y="439" on="0"/>
        <pt x="305" y="387" on="0"/>
        <pt x="305" y="343" on="1"/>
        <pt x="305" y="332" on="0"/>
        <pt x="301" y="299" on="0"/>
        <pt x="299" y="290" on="1"/>
        <pt x="245" y="0" on="1"/>
        <pt x="244" y="0" on="1"/>
        <pt x="230" y="-11" on="0"/>
        <pt x="194" y="-41" on="0"/>
        <pt x="163" y="-77" on="0"/>
        <pt x="141" y="-118" on="0"/>
        <pt x="141" y="-139" on="1"/>
        <pt x="141" y="-155" on="0"/>
        <pt x="156" y="-174" on="0"/>
        <pt x="171" y="-174" on="1"/>
        <pt x="185" y="-174" on="0"/>
        <pt x="208" y="-161" on="0"/>
        <pt x="218" y="-150" on="1"/>
      </contour>
      <contour>
        <pt x="249" y="197" on="1"/>
        <pt x="236" y="211" on="0"/>
        <pt x="189" y="236" on="0"/>
        <pt x="158" y="236" on="1"/>
        <pt x="132" y="236" on="0"/>
        <pt x="90" y="214" on="0"/>
        <pt x="61" y="177" on="0"/>
        <pt x="45" y="129" on="0"/>
        <pt x="45" y="104" on="1"/>
        <pt x="45" y="64" on="0"/>
        <pt x="84" y="17" on="0"/>
        <pt x="119" y="17" on="1"/>
        <pt x="151" y="17" on="0"/>
        <pt x="204" y="51" on="0"/>
        <pt x="227" y="78" on="1"/>
      </contour>
    </TTGlyph>
    <TTGlyph name="aring" xMin="13" yMin="-9" xMax="311" yMax="647">
      <component glyphName="a" x="0" y="0" flags="0x204"/>
      <component glyphName="ring" x="-39" y="0" flags="0x4"/>
    </TTGlyph>
    <TTGlyph name="aringacute" xMin="13" yMin="-9" xMax="399" yMax="811">
      <component glyphName="a" x="0" y="0" flags="0x204"/>
      <component glyphName="acute" x="56" y="207" flags="0x4"/>
      <component glyphName="ring" x="-39" y="0" flags="0x4"/>
    </TTGlyph>
    <TTGlyph name="arrowleft" xMin="27" yMin="46" xMax="519" yMax="468">
      <contour>
        <pt x="73" y="243" on="1"/>
        <pt x="216" y="65" on="1"/>
        <pt x="194" y="46" on="1"/>
        <pt x="27" y="254" on="1"/>
        <pt x="28" y="259" on="1"/>
        <pt x="272" y="468" on="1"/>
        <pt x="289" y="446" on="1"/>
        <pt x="83" y="271" on="1"/>
        <pt x="519" y="271" on="1"/>
        <pt x="514" y="243" on="1"/>
      </contour>
    </TTGlyph>
    <TTGlyph name="arrowleft.cap" xMin="48" yMin="159" xMax="540" yMax="581">
      <component glyphName="arrowleft" x="21" y="113" flags="0x204"/>
    </TTGlyph>
    <TTGlyph name="arrowright" xMin="39" yMin="46" xMax="531" yMax="468">
      <contour>
        <pt x="486" y="271" on="1"/>
        <pt x="343" y="449" on="1"/>
        <pt x="365" y="468" on="1"/>
        <pt x="531" y="260" on="1"/>
        <pt x="530" y="255" on="1"/>
        <pt x="287" y="46" on="1"/>
        <pt x="269" y="68" on="1"/>
        <pt x="475" y="243" on="1"/>
        <pt x="39" y="243" on="1"/>
        <pt x="44" y="271" on="1"/>
      </contour>
    </TTGlyph>
    <TTGlyph name="arrowright.cap" xMin="60" yMin="159" xMax="552" yMax="581">
      <component glyphName="arrowright" x="21" y="113" flags="0x204"/>
    </TTGlyph>
    <TTGlyph name="asciicircum" xMin="168" yMin="541" xMax="373" yMax="650">
      <contour>
        <pt x="340" y="541" on="1"/>
        <pt x="285" y="619" on="1"/>
        <pt x="204" y="541" on="1"/>
        <pt x="168" y="541" on="1"/>
        <pt x="282" y="650" on="1"/>
        <pt x="297" y="650" on="1"/>
        <pt x="373" y="541" on="1"/>
      </contour>
    </TTGlyph>
    <TTGlyph name="asciitilde" xMin="102" yMin="252" xMax="342" yMax="321">
      <contour>
        <pt x="342" y="296" on="1"/>
        <pt x="322" y="273" on="0"/>
        <pt x="287" y="252" on="0"/>
        <pt x="267" y="252" on="1"/>
        <pt x="252" y="252" on="0"/>
        <pt x="228" y="265" on="0"/>
        <pt x="217" y="273" on="1"/>
        <pt x="206" y="281" on="0"/>
        <pt x="187" y="293" on="0"/>
        <pt x="175" y="293" on="1"/>
        <pt x="163" y="293" on="0"/>
        <pt x="137" y="277" on="0"/>
        <pt x="119" y="258" on="1"/>
        <pt x="102" y="278" on="1"/>
        <pt x="123" y="301" on="0"/>
        <pt x="158" y="321" on="0"/>
        <pt x="178" y="321" on="1"/>
        <pt x="193" y="321" on="0"/>
        <pt x="217" y="308" on="0"/>
        <pt x="229" y="300" on="1"/>
        <pt x="240" y="292" on="0"/>
        <pt x="258" y="280" on="0"/>
        <pt x="269" y="280" on="1"/>
        <pt x="282" y="280" on="0"/>
        <pt x="307" y="296" on="0"/>
        <pt x="325" y="315" on="1"/>
      </contour>
    </TTGlyph>
    <TTGlyph name="asterisk" xMin="98" yMin="506" xMax="330" yMax="735">
      <contour>
        <pt x="226" y="608" on="1"/>
        <pt x="274" y="518" on="1"/>
        <pt x="251" y="506" on="1"/>
        <pt x="206" y="596" on="1"/>
        <pt x="131" y="519" on="1"/>
        <pt x="112" y="535" on="1"/>
        <pt x="190" y="612" on="1"/>
        <pt x="98" y="653" on="1"/>
        <pt x="108" y="676" on="1"/>
        <pt x="201" y="632" on="1"/>
        <pt x="220" y="735" on="1"/>
        <pt x="244" y="734" on="1"/>
        <pt x="224" y="630" on="1"/>
        <pt x="326" y="652" on="1"/>
        <pt x="330" y="627" on="1"/>
      </contour>
    </TTGlyph>
    <TTGlyph name="at" xMin="54" yMin="-8" xMax="551" yMax="612">
      <contour>
        <pt x="551" y="378" on="1"/>
        <pt x="551" y="343" on="0"/>
        <pt x="536" y="261" on="0"/>
        <pt x="504" y="191" on="0"/>
        <pt x="455" y="143" on="0"/>
        <pt x="421" y="143" on="1"/>
        <pt x="395" y="143" on="0"/>
        <pt x="358" y="171" on="0"/>
        <pt x="353" y="197" on="1"/>
        <pt x="336" y="176" on="0"/>
        <pt x="298" y="149" on="0"/>
        <pt x="275" y="149" on="1"/>
        <pt x="246" y="149" on="0"/>
        <pt x="203" y="190" on="0"/>
        <pt x="203" y="225" on="1"/>
        <pt x="203" y="270" on="0"/>
        <pt x="254" y="327" on="0"/>
        <pt x="291" y="327" on="1"/>
        <pt x="314" y="327" on="0"/>
        <pt x="350" y="308" on="0"/>
        <pt x="364" y="294" on="1"/>
        <pt x="370" y="325" on="0"/>
        <pt x="373" y="347" on="0"/>
        <pt x="373" y="357" on="1"/>
        <pt x="373" y="382" on="0"/>
        <pt x="340" y="407" on="0"/>
        <pt x="314" y="407" on="1"/>
        <pt x="287" y="407" on="0"/>
        <pt x="260" y="397" on="1"/>
        <pt x="256" y="422" on="1"/>
        <pt x="270" y="427" on="0"/>
        <pt x="303" y="434" on="0"/>
        <pt x="318" y="434" on="1"/>
        <pt x="357" y="434" on="0"/>
        <pt x="401" y="394" on="0"/>
        <pt x="401" y="359" on="1"/>
        <pt x="401" y="349" on="0"/>
        <pt x="398" y="329" on="0"/>
        <pt x="397" y="322" on="1"/>
        <pt x="382" y="242" on="1"/>
        <pt x="375" y="211" on="0"/>
        <pt x="394" y="168" on="0"/>
        <pt x="422" y="168" on="1"/>
        <pt x="448" y="168" on="0"/>
        <pt x="486" y="211" on="0"/>
        <pt x="510" y="274" on="0"/>
        <pt x="522" y="346" on="0"/>
        <pt x="522" y="376" on="1"/>
        <pt x="522" y="426" on="0"/>
        <pt x="495" y="504" on="0"/>
        <pt x="447" y="558" on="0"/>
        <pt x="380" y="586" on="0"/>
        <pt x="341" y="586" on="1"/>
        <pt x="286" y="586" on="0"/>
        <pt x="191" y="527" on="0"/>
        <pt x="121" y="430" on="0"/>
        <pt x="81" y="307" on="0"/>
        <pt x="81" y="243" on="1"/>
        <pt x="81" y="193" on="0"/>
        <pt x="112" y="110" on="0"/>
        <pt x="167" y="50" on="0"/>
        <pt x="244" y="17" on="0"/>
        <pt x="290" y="17" on="1"/>
        <pt x="312" y="17" on="0"/>
        <pt x="359" y="25" on="0"/>
        <pt x="382" y="35" on="1"/>
        <pt x="388" y="11" on="1"/>
        <pt x="362" y="2" on="0"/>
        <pt x="311" y="-8" on="0"/>
        <pt x="288" y="-8" on="1"/>
        <pt x="236" y="-8" on="0"/>
        <pt x="150" y="29" on="0"/>
        <pt x="88" y="95" on="0"/>
        <pt x="54" y="187" on="0"/>
        <pt x="54" y="243" on="1"/>
        <pt x="54" y="313" on="0"/>
        <pt x="98" y="445" on="0"/>
        <pt x="176" y="549" on="0"/>
        <pt x="281" y="612" on="0"/>
        <pt x="343" y="612" on="1"/>
        <pt x="387" y="612" on="0"/>
        <pt x="463" y="580" on="0"/>
        <pt x="519" y="520" on="0"/>
        <pt x="551" y="433" on="0"/>
      </contour>
      <contour>
        <pt x="359" y="267" on="1"/>
        <pt x="348" y="281" on="0"/>
        <pt x="313" y="302" on="0"/>
        <pt x="293" y="302" on="1"/>
        <pt x="267" y="302" on="0"/>
        <pt x="232" y="261" on="0"/>
        <pt x="232" y="226" on="1"/>
        <pt x="232" y="204" on="0"/>
        <pt x="258" y="174" on="0"/>
        <pt x="280" y="174" on="1"/>
        <pt x="300" y="174" on="0"/>
        <pt x="336" y="201" on="0"/>
        <pt x="350" y="223" on="1"/>
      </contour>
    </TTGlyph>
    <TTGlyph name="at.cap" xMin="68" yMin="-10" xMax="638" yMax="744">
      <contour>
        <pt x="441" y="10" on="1"/>
        <pt x="414" y="0" on="0"/>
        <pt x="358" y="-10" on="0"/>
        <pt x="333" y="-10" on="1"/>
        <pt x="274" y="-10" on="0"/>
        <pt x="177" y="31" on="0"/>
        <pt x="107" y="106" on="0"/>
        <pt x="68" y="212" on="0"/>
        <pt x="68" y="277" on="1"/>
        <pt x="68" y="367" on="0"/>
        <pt x="119" y="535" on="0"/>
        <pt x="209" y="665" on="0"/>
        <pt x="333" y="744" on="0"/>
        <pt x="406" y="744" on="1"/>
        <pt x="457" y="744" on="0"/>
        <pt x="543" y="707" on="0"/>
        <pt x="604" y="638" on="0"/>
        <pt x="638" y="541" on="0"/>
        <pt x="638" y="481" on="1"/>
        <pt x="638" y="456" on="0"/>
        <pt x="630" y="393" on="0"/>
        <pt x="614" y="328" on="0"/>
        <pt x="589" y="265" on="0"/>
        <pt x="556" y="216" on="0"/>
        <pt x="513" y="186" on="0"/>
        <pt x="487" y="186" on="1"/>
        <pt x="458" y="186" on="0"/>
        <pt x="418" y="217" on="0"/>
        <pt x="413" y="245" on="1"/>
        <pt x="394" y="221" on="0"/>
        <pt x="347" y="191" on="0"/>
        <pt x="319" y="191" on="1"/>
        <pt x="287" y="191" on="0"/>
        <pt x="238" y="233" on="0"/>
        <pt x="238" y="277" on="1"/>
        <pt x="238" y="304" on="0"/>
        <pt x="254" y="349" on="0"/>
        <pt x="282" y="380" on="0"/>
        <pt x="319" y="398" on="0"/>
        <pt x="340" y="398" on="1"/>
        <pt x="366" y="398" on="0"/>
        <pt x="407" y="376" on="0"/>
        <pt x="424" y="359" on="1"/>
        <pt x="428" y="383" on="0"/>
        <pt x="434" y="414" on="0"/>
        <pt x="436" y="432" on="0"/>
        <pt x="437" y="441" on="0"/>
        <pt x="437" y="445" on="1"/>
        <pt x="437" y="473" on="0"/>
        <pt x="400" y="504" on="0"/>
        <pt x="365" y="504" on="1"/>
        <pt x="339" y="504" on="0"/>
        <pt x="309" y="494" on="1"/>
        <pt x="307" y="519" on="1"/>
        <pt x="339" y="532" on="0"/>
        <pt x="373" y="532" on="1"/>
        <pt x="412" y="532" on="0"/>
        <pt x="467" y="492" on="0"/>
        <pt x="467" y="450" on="1"/>
        <pt x="467" y="442" on="0"/>
        <pt x="465" y="422" on="0"/>
        <pt x="463" y="414" on="1"/>
        <pt x="440" y="293" on="1"/>
        <pt x="433" y="258" on="0"/>
        <pt x="460" y="212" on="0"/>
        <pt x="490" y="212" on="1"/>
        <pt x="510" y="212" on="0"/>
        <pt x="544" y="241" on="0"/>
        <pt x="570" y="288" on="0"/>
        <pt x="590" y="346" on="0"/>
        <pt x="603" y="405" on="0"/>
        <pt x="609" y="458" on="0"/>
        <pt x="609" y="477" on="1"/>
        <pt x="609" y="532" on="0"/>
        <pt x="579" y="621" on="0"/>
        <pt x="525" y="684" on="0"/>
        <pt x="450" y="718" on="0"/>
        <pt x="404" y="718" on="1"/>
        <pt x="340" y="718" on="0"/>
        <pt x="228" y="643" on="0"/>
        <pt x="145" y="520" on="0"/>
        <pt x="97" y="362" on="0"/>
        <pt x="97" y="278" on="1"/>
        <pt x="97" y="218" on="0"/>
        <pt x="132" y="121" on="0"/>
        <pt x="195" y="52" on="0"/>
        <pt x="282" y="15" on="0"/>
        <pt x="334" y="15" on="1"/>
        <pt x="359" y="15" on="0"/>
        <pt x="409" y="25" on="0"/>
        <pt x="435" y="34" on="1"/>
      </contour>
      <contour>
        <pt x="418" y="332" on="1"/>
        <pt x="405" y="347" on="0"/>
        <pt x="364" y="372" on="0"/>
        <pt x="341" y="372" on="1"/>
        <pt x="312" y="372" on="0"/>
        <pt x="268" y="320" on="0"/>
        <pt x="268" y="279" on="1"/>
        <pt x="268" y="250" on="0"/>
        <pt x="300" y="217" on="0"/>
        <pt x="325" y="217" on="1"/>
        <pt x="348" y="217" on="0"/>
        <pt x="390" y="246" on="0"/>
        <pt x="407" y="271" on="1"/>
      </contour>
    </TTGlyph>
    <TTGlyph name="atilde" xMin="13" yMin="-9" xMax="346" yMax="562">
      <component glyphName="a" x="0" y="0" flags="0x204"/>
      <component glyphName="tilde" x="-41" y="0" flags="0x4"/>
    </TTGlyph>
    <TTGlyph name="b" xMin="17" yMin="-7" xMax="344" yMax="733">
      <contour>
        <pt x="344" y="286" on="1"/>
        <pt x="344" y="238" on="0"/>
        <pt x="318" y="134" on="0"/>
        <pt x="269" y="48" on="0"/>
        <pt x="199" y="-7" on="0"/>
        <pt x="156" y="-7" on="1"/>
        <pt x="121" y="-7" on="0"/>
        <pt x="72" y="26" on="0"/>
        <pt x="57" y="47" on="1"/>
        <pt x="48" y="0" on="1"/>
        <pt x="17" y="0" on="1"/>
        <pt x="152" y="733" on="1"/>
        <pt x="184" y="733" on="1"/>
        <pt x="120" y="388" on="1"/>
        <pt x="143" y="410" on="0"/>
        <pt x="197" y="437" on="0"/>
        <pt x="227" y="437" on="1"/>
        <pt x="250" y="437" on="0"/>
        <pt x="292" y="419" on="0"/>
        <pt x="325" y="382" on="0"/>
        <pt x="344" y="325" on="0"/>
      </contour>
      <contour>
        <pt x="313" y="280" on="1"/>
        <pt x="313" y="345" on="0"/>
        <pt x="262" y="409" on="0"/>
        <pt x="223" y="409" on="1"/>
        <pt x="193" y="409" on="0"/>
        <pt x="137" y="376" on="0"/>
        <pt x="114" y="353" on="1"/>
        <pt x="64" y="80" on="1"/>
        <pt x="79" y="56" on="0"/>
        <pt x="125" y="21" on="0"/>
        <pt x="155" y="21" on="1"/>
        <pt x="190" y="21" on="0"/>
        <pt x="248" y="72" on="0"/>
        <pt x="290" y="149" on="0"/>
        <pt x="313" y="240" on="0"/>
      </contour>
    </TTGlyph>
    <TTGlyph name="backslash" xMin="96" yMin="-216" xMax="202" yMax="733">
      <contour>
        <pt x="173" y="-216" on="1"/>
        <pt x="96" y="733" on="1"/>
        <pt x="125" y="733" on="1"/>
        <pt x="202" y="-216" on="1"/>
      </contour>
    </TTGlyph>
    <TTGlyph name="backslash.cap" xMin="91" yMin="-112" xMax="197" yMax="837">
      <component glyphName="backslash" x="-5" y="104" flags="0x204"/>
    </TTGlyph>
    <TTGlyph name="bar" xMin="-3" yMin="-215" xMax="199" yMax="734">
      <contour>
        <pt x="-3" y="-215" on="1"/>
        <pt x="171" y="734" on="1"/>
        <pt x="199" y="734" on="1"/>
        <pt x="25" y="-215" on="1"/>
      </contour>
    </TTGlyph>
    <TTGlyph name="bar.cap" xMin="17" yMin="-111" xMax="219" yMax="838">
      <component glyphName="bar" x="20" y="104" flags="0x204"/>
    </TTGlyph>
    <TTGlyph name="braceleft" xMin="22" yMin="-223" xMax="324" yMax="740">
      <contour>
        <pt x="318" y="713" on="1"/>
        <pt x="314" y="713" on="1"/>
        <pt x="268" y="713" on="0"/>
        <pt x="214" y="670" on="0"/>
        <pt x="204" y="617" on="1"/>
        <pt x="156" y="347" on="1"/>
        <pt x="148" y="307" on="0"/>
        <pt x="115" y="266" on="0"/>
        <pt x="83" y="258" on="1"/>
        <pt x="125" y="244" on="0"/>
        <pt x="125" y="198" on="1"/>
        <pt x="125" y="190" on="0"/>
        <pt x="123" y="173" on="0"/>
        <pt x="122" y="165" on="1"/>
        <pt x="76" y="-88" on="1"/>
        <pt x="74" y="-97" on="0"/>
        <pt x="71" y="-120" on="0"/>
        <pt x="71" y="-128" on="1"/>
        <pt x="71" y="-164" on="0"/>
        <pt x="115" y="-195" on="0"/>
        <pt x="154" y="-196" on="1"/>
        <pt x="149" y="-223" on="1"/>
        <pt x="98" y="-222" on="0"/>
        <pt x="39" y="-180" on="0"/>
        <pt x="39" y="-132" on="1"/>
        <pt x="39" y="-121" on="0"/>
        <pt x="42" y="-95" on="0"/>
        <pt x="44" y="-83" on="1"/>
        <pt x="91" y="173" on="1"/>
        <pt x="92" y="179" on="0"/>
        <pt x="93" y="192" on="0"/>
        <pt x="93" y="199" on="1"/>
        <pt x="93" y="244" on="0"/>
        <pt x="40" y="244" on="1"/>
        <pt x="22" y="244" on="1"/>
        <pt x="27" y="274" on="1"/>
        <pt x="44" y="274" on="1"/>
        <pt x="109" y="274" on="0"/>
        <pt x="123" y="345" on="1"/>
        <pt x="171" y="617" on="1"/>
        <pt x="184" y="687" on="0"/>
        <pt x="257" y="740" on="0"/>
        <pt x="317" y="740" on="1"/>
        <pt x="324" y="740" on="1"/>
      </contour>
    </TTGlyph>
    <TTGlyph name="braceleft.cap" xMin="41" yMin="-119" xMax="343" yMax="844">
      <component glyphName="braceleft" x="19" y="104" flags="0x204"/>
    </TTGlyph>
    <TTGlyph name="braceright" xMin="-69" yMin="-222" xMax="233" yMax="741">
      <contour>
        <pt x="-64" y="-195" on="1"/>
        <pt x="-59" y="-195" on="1"/>
        <pt x="-13" y="-195" on="0"/>
        <pt x="40" y="-152" on="0"/>
        <pt x="50" y="-99" on="1"/>
        <pt x="99" y="171" on="1"/>
        <pt x="107" y="210" on="0"/>
        <pt x="140" y="252" on="0"/>
        <pt x="171" y="260" on="1"/>
        <pt x="151" y="266" on="0"/>
        <pt x="130" y="297" on="0"/>
        <pt x="130" y="320" on="1"/>
        <pt x="130" y="335" on="0"/>
        <pt x="133" y="353" on="1"/>
        <pt x="179" y="606" on="1"/>
        <pt x="181" y="615" on="0"/>
        <pt x="183" y="638" on="0"/>
        <pt x="183" y="646" on="1"/>
        <pt x="183" y="682" on="0"/>
        <pt x="139" y="713" on="0"/>
        <pt x="101" y="714" on="1"/>
        <pt x="106" y="741" on="1"/>
        <pt x="157" y="740" on="0"/>
        <pt x="216" y="698" on="0"/>
        <pt x="216" y="650" on="1"/>
        <pt x="216" y="639" on="0"/>
        <pt x="213" y="613" on="0"/>
        <pt x="211" y="601" on="1"/>
        <pt x="164" y="345" on="1"/>
        <pt x="163" y="339" on="0"/>
        <pt x="161" y="326" on="0"/>
        <pt x="161" y="319" on="1"/>
        <pt x="161" y="274" on="0"/>
        <pt x="215" y="274" on="1"/>
        <pt x="233" y="274" on="1"/>
        <pt x="227" y="244" on="1"/>
        <pt x="211" y="244" on="1"/>
        <pt x="179" y="244" on="0"/>
        <pt x="139" y="210" on="0"/>
        <pt x="132" y="172" on="1"/>
        <pt x="83" y="-99" on="1"/>
        <pt x="70" y="-169" on="0"/>
        <pt x="-2" y="-222" on="0"/>
        <pt x="-62" y="-222" on="1"/>
        <pt x="-69" y="-222" on="1"/>
      </contour>
    </TTGlyph>
    <TTGlyph name="braceright.cap" xMin="-50" yMin="-118" xMax="252" yMax="845">
      <component glyphName="braceright" x="19" y="104" flags="0x204"/>
    </TTGlyph>
    <TTGlyph name="bracketleft" xMin="-11" yMin="-217" xMax="314" yMax="732">
      <contour>
        <pt x="309" y="705" on="1"/>
        <pt x="189" y="705" on="1"/>
        <pt x="25" y="-188" on="1"/>
        <pt x="145" y="-188" on="1"/>
        <pt x="140" y="-217" on="1"/>
        <pt x="-11" y="-217" on="1"/>
        <pt x="163" y="732" on="1"/>
        <pt x="314" y="732" on="1"/>
      </contour>
    </TTGlyph>
    <TTGlyph name="bracketleft.cap" xMin="7" yMin="-112" xMax="332" yMax="837">
      <component glyphName="bracketleft" x="18" y="105" flags="0x204"/>
    </TTGlyph>
    <TTGlyph name="bracketright" xMin="-65" yMin="-216" xMax="261" yMax="733">
      <contour>
        <pt x="86" y="-216" on="1"/>
        <pt x="-65" y="-216" on="1"/>
        <pt x="-60" y="-189" on="1"/>
        <pt x="60" y="-189" on="1"/>
        <pt x="224" y="706" on="1"/>
        <pt x="104" y="706" on="1"/>
        <pt x="109" y="733" on="1"/>
        <pt x="261" y="733" on="1"/>
      </contour>
    </TTGlyph>
    <TTGlyph name="bracketright.cap" xMin="-46" yMin="-112" xMax="280" yMax="837">
      <component glyphName="bracketright" x="19" y="104" flags="0x204"/>
    </TTGlyph>
    <TTGlyph name="breve" xMin="175" yMin="486" xMax="376" yMax="590">
      <contour>
        <pt x="376" y="587" on="1"/>
        <pt x="368" y="545" on="0"/>
        <pt x="311" y="486" on="0"/>
        <pt x="264" y="486" on="1"/>
        <pt x="221" y="486" on="0"/>
        <pt x="175" y="530" on="0"/>
        <pt x="175" y="565" on="1"/>
        <pt x="175" y="570" on="0"/>
        <pt x="176" y="582" on="0"/>
        <pt x="177" y="587" on="1"/>
        <pt x="203" y="590" on="1"/>
        <pt x="201" y="582" on="0"/>
        <pt x="201" y="574" on="0"/>
        <pt x="201" y="569" on="1"/>
        <pt x="201" y="541" on="0"/>
        <pt x="237" y="510" on="0"/>
        <pt x="265" y="510" on="1"/>
        <pt x="300" y="510" on="0"/>
        <pt x="342" y="556" on="0"/>
        <pt x="350" y="590" on="1"/>
      </contour>
    </TTGlyph>
    <TTGlyph name="bullet" xMin="89" yMin="284" xMax="249" yMax="448">
      <contour>
        <pt x="249" y="369" on="1"/>
        <pt x="249" y="333" on="0"/>
        <pt x="200" y="284" on="0"/>
        <pt x="166" y="284" on="1"/>
        <pt x="134" y="284" on="0"/>
        <pt x="89" y="329" on="0"/>
        <pt x="89" y="363" on="1"/>
        <pt x="89" y="399" on="0"/>
        <pt x="137" y="448" on="0"/>
        <pt x="172" y="448" on="1"/>
        <pt x="204" y="448" on="0"/>
        <pt x="249" y="403" on="0"/>
      </contour>
    </TTGlyph>
    <TTGlyph name="c" xMin="26" yMin="-8" xMax="323" yMax="438">
      <contour>
        <pt x="303" y="370" on="1"/>
        <pt x="288" y="386" on="0"/>
        <pt x="245" y="409" on="0"/>
        <pt x="216" y="409" on="1"/>
        <pt x="181" y="409" on="0"/>
        <pt x="123" y="366" on="0"/>
        <pt x="81" y="297" on="0"/>
        <pt x="58" y="208" on="0"/>
        <pt x="58" y="162" on="1"/>
        <pt x="58" y="97" on="0"/>
        <pt x="115" y="20" on="0"/>
        <pt x="165" y="20" on="1"/>
        <pt x="188" y="20" on="0"/>
        <pt x="228" y="34" on="0"/>
        <pt x="247" y="46" on="1"/>
        <pt x="259" y="21" on="1"/>
        <pt x="215" y="-8" on="0"/>
        <pt x="165" y="-8" on="1"/>
        <pt x="99" y="-8" on="0"/>
        <pt x="26" y="82" on="0"/>
        <pt x="26" y="158" on="1"/>
        <pt x="26" y="212" on="0"/>
        <pt x="54" y="313" on="0"/>
        <pt x="104" y="391" on="0"/>
        <pt x="175" y="438" on="0"/>
        <pt x="218" y="438" on="1"/>
        <pt x="253" y="438" on="0"/>
        <pt x="306" y="412" on="0"/>
        <pt x="323" y="392" on="1"/>
      </contour>
    </TTGlyph>
    <TTGlyph name="cacute" xMin="26" yMin="-8" xMax="367" yMax="604">
      <component glyphName="acute" x="24" y="0" flags="0x4"/>
      <component glyphName="c" x="0" y="0" flags="0x4"/>
    </TTGlyph>
    <TTGlyph name="caron" xMin="175" yMin="486" xMax="379" yMax="594">
      <contour>
        <pt x="265" y="486" on="1"/>
        <pt x="250" y="486" on="1"/>
        <pt x="175" y="594" on="1"/>
        <pt x="208" y="594" on="1"/>
        <pt x="262" y="516" on="1"/>
        <pt x="343" y="594" on="1"/>
        <pt x="379" y="594" on="1"/>
      </contour>
    </TTGlyph>
    <TTGlyph name="caron.alt" xMin="50" yMin="544" xMax="162" yMax="737">
      <contour>
        <pt x="162" y="732" on="1"/>
        <pt x="154" y="678" on="0"/>
        <pt x="107" y="580" on="0"/>
        <pt x="62" y="544" on="1"/>
        <pt x="50" y="557" on="1"/>
        <pt x="88" y="595" on="0"/>
        <pt x="125" y="686" on="0"/>
        <pt x="133" y="737" on="1"/>
      </contour>
    </TTGlyph>
    <TTGlyph name="ccaron" xMin="26" yMin="-8" xMax="350" yMax="594">
      <component glyphName="caron" x="-29" y="0" flags="0x4"/>
      <component glyphName="c" x="0" y="0" flags="0x4"/>
    </TTGlyph>
    <TTGlyph name="ccedilla" xMin="26" yMin="-198" xMax="323" yMax="438">
      <contour>
        <pt x="206" y="-124" on="1"/>
        <pt x="206" y="-155" on="0"/>
        <pt x="154" y="-198" on="0"/>
        <pt x="114" y="-198" on="1"/>
        <pt x="93" y="-198" on="0"/>
        <pt x="49" y="-183" on="0"/>
        <pt x="31" y="-170" on="1"/>
        <pt x="46" y="-146" on="1"/>
        <pt x="61" y="-157" on="0"/>
        <pt x="96" y="-171" on="0"/>
        <pt x="115" y="-171" on="1"/>
        <pt x="141" y="-171" on="0"/>
        <pt x="174" y="-146" on="0"/>
        <pt x="174" y="-125" on="1"/>
        <pt x="174" y="-106" on="0"/>
        <pt x="138" y="-77" on="0"/>
        <pt x="95" y="-72" on="1"/>
        <pt x="94" y="-68" on="1"/>
        <pt x="123" y="-2" on="1"/>
        <pt x="76" y="11" on="0"/>
        <pt x="26" y="95" on="0"/>
        <pt x="26" y="158" on="1"/>
        <pt x="26" y="212" on="0"/>
        <pt x="54" y="313" on="0"/>
        <pt x="104" y="391" on="0"/>
        <pt x="175" y="438" on="0"/>
        <pt x="218" y="438" on="1"/>
        <pt x="253" y="438" on="0"/>
        <pt x="306" y="412" on="0"/>
        <pt x="323" y="392" on="1"/>
        <pt x="303" y="370" on="1"/>
        <pt x="288" y="386" on="0"/>
        <pt x="245" y="409" on="0"/>
        <pt x="216" y="409" on="1"/>
        <pt x="181" y="409" on="0"/>
        <pt x="123" y="366" on="0"/>
        <pt x="81" y="297" on="0"/>
        <pt x="58" y="208" on="0"/>
        <pt x="58" y="162" on="1"/>
        <pt x="58" y="97" on="0"/>
        <pt x="115" y="20" on="0"/>
        <pt x="165" y="20" on="1"/>
        <pt x="188" y="20" on="0"/>
        <pt x="228" y="34" on="0"/>
        <pt x="247" y="46" on="1"/>
        <pt x="259" y="21" on="1"/>
        <pt x="215" y="-8" on="0"/>
        <pt x="165" y="-8" on="1"/>
        <pt x="156" y="-8" on="0"/>
        <pt x="152" y="-7" on="1"/>
        <pt x="131" y="-53" on="1"/>
        <pt x="167" y="-63" on="0"/>
        <pt x="206" y="-97" on="0"/>
      </contour>
    </TTGlyph>
    <TTGlyph name="cdotaccent" xMin="26" yMin="-8" xMax="323" yMax="555">
      <component glyphName="c" x="0" y="0" flags="0x204"/>
      <component glyphName="dotaccent" x="-29" y="0" flags="0x4"/>
    </TTGlyph>
    <TTGlyph name="cedilla" xMin="62" yMin="-198" xMax="237" yMax="14">
      <contour>
        <pt x="237" y="-124" on="1"/>
        <pt x="237" y="-155" on="0"/>
        <pt x="185" y="-198" on="0"/>
        <pt x="145" y="-198" on="1"/>
        <pt x="124" y="-198" on="0"/>
        <pt x="80" y="-183" on="0"/>
        <pt x="62" y="-170" on="1"/>
        <pt x="77" y="-146" on="1"/>
        <pt x="92" y="-157" on="0"/>
        <pt x="127" y="-171" on="0"/>
        <pt x="146" y="-171" on="1"/>
        <pt x="172" y="-171" on="0"/>
        <pt x="205" y="-146" on="0"/>
        <pt x="205" y="-125" on="1"/>
        <pt x="205" y="-106" on="0"/>
        <pt x="169" y="-77" on="0"/>
        <pt x="126" y="-72" on="1"/>
        <pt x="125" y="-68" on="1"/>
        <pt x="162" y="14" on="1"/>
        <pt x="190" y="7" on="1"/>
        <pt x="162" y="-53" on="1"/>
        <pt x="198" y="-63" on="0"/>
        <pt x="237" y="-97" on="0"/>
      </contour>
    </TTGlyph>
    <TTGlyph name="cent" xMin="28" yMin="-82" xMax="332" yMax="518">
      <contour>
        <pt x="258" y="434" on="1"/>
        <pt x="281" y="429" on="0"/>
        <pt x="318" y="407" on="0"/>
        <pt x="332" y="392" on="1"/>
        <pt x="312" y="369" on="1"/>
        <pt x="301" y="381" on="0"/>
        <pt x="270" y="401" on="0"/>
        <pt x="251" y="406" on="1"/>
        <pt x="152" y="21" on="1"/>
        <pt x="157" y="20" on="0"/>
        <pt x="167" y="20" on="0"/>
        <pt x="172" y="20" on="1"/>
        <pt x="196" y="20" on="0"/>
        <pt x="237" y="35" on="0"/>
        <pt x="255" y="46" on="1"/>
        <pt x="268" y="22" on="1"/>
        <pt x="246" y="8" on="0"/>
        <pt x="197" y="-8" on="0"/>
        <pt x="170" y="-8" on="1"/>
        <pt x="163" y="-8" on="0"/>
        <pt x="151" y="-7" on="0"/>
        <pt x="145" y="-6" on="1"/>
        <pt x="126" y="-82" on="1"/>
        <pt x="100" y="-79" on="1"/>
        <pt x="120" y="0" on="1"/>
        <pt x="78" y="15" on="0"/>
        <pt x="28" y="96" on="0"/>
        <pt x="28" y="160" on="1"/>
        <pt x="28" y="213" on="0"/>
        <pt x="56" y="313" on="0"/>
        <pt x="107" y="391" on="0"/>
        <pt x="181" y="438" on="0"/>
        <pt x="226" y="438" on="1"/>
        <pt x="232" y="438" on="1"/>
        <pt x="253" y="518" on="1"/>
        <pt x="279" y="515" on="1"/>
      </contour>
      <contour>
        <pt x="59" y="162" on="1"/>
        <pt x="59" y="111" on="0"/>
        <pt x="95" y="42" on="0"/>
        <pt x="127" y="28" on="1"/>
        <pt x="225" y="410" on="1"/>
        <pt x="221" y="410" on="1"/>
        <pt x="185" y="410" on="0"/>
        <pt x="125" y="367" on="0"/>
        <pt x="83" y="297" on="0"/>
        <pt x="59" y="208" on="0"/>
      </contour>
    </TTGlyph>
    <TTGlyph name="cent.lin" xMin="58" yMin="70" xMax="362" yMax="670">
      <component glyphName="cent" x="30" y="152" flags="0x204"/>
    </TTGlyph>
    <TTGlyph name="circumflex" xMin="159" yMin="486" xMax="363" yMax="595">
      <contour>
        <pt x="329" y="486" on="1"/>
        <pt x="276" y="564" on="1"/>
        <pt x="195" y="486" on="1"/>
        <pt x="159" y="486" on="1"/>
        <pt x="272" y="595" on="1"/>
        <pt x="287" y="595" on="1"/>
        <pt x="363" y="486" on="1"/>
      </contour>
    </TTGlyph>
    <TTGlyph name="colon" xMin="-9" yMin="-8" xMax="114" yMax="381">
      <contour>
        <pt x="114" y="350" on="1"/>
        <pt x="114" y="336" on="0"/>
        <pt x="94" y="318" on="0"/>
        <pt x="81" y="318" on="1"/>
        <pt x="68" y="318" on="0"/>
        <pt x="50" y="334" on="0"/>
        <pt x="50" y="348" on="1"/>
        <pt x="50" y="362" on="0"/>
        <pt x="70" y="381" on="0"/>
        <pt x="83" y="381" on="1"/>
        <pt x="96" y="381" on="0"/>
        <pt x="114" y="364" on="0"/>
      </contour>
      <contour>
        <pt x="55" y="25" on="1"/>
        <pt x="55" y="11" on="0"/>
        <pt x="35" y="-8" on="0"/>
        <pt x="22" y="-8" on="1"/>
        <pt x="9" y="-8" on="0"/>
        <pt x="-9" y="9" on="0"/>
        <pt x="-9" y="22" on="1"/>
        <pt x="-9" y="36" on="0"/>
        <pt x="11" y="56" on="0"/>
        <pt x="24" y="56" on="1"/>
        <pt x="37" y="56" on="0"/>
        <pt x="55" y="38" on="0"/>
      </contour>
    </TTGlyph>
    <TTGlyph name="comma" xMin="-42" yMin="-92" xMax="54" yMax="56">
      <contour>
        <pt x="54" y="17" on="1"/>
        <pt x="54" y="-2" on="0"/>
        <pt x="35" y="-37" on="0"/>
        <pt x="8" y="-65" on="0"/>
        <pt x="-23" y="-86" on="0"/>
        <pt x="-35" y="-92" on="1"/>
        <pt x="-42" y="-81" on="1"/>
        <pt x="-20" y="-67" on="0"/>
        <pt x="16" y="-31" on="0"/>
        <pt x="24" y="-8" on="1"/>
        <pt x="-9" y="-2" on="0"/>
        <pt x="-9" y="25" on="1"/>
        <pt x="-9" y="38" on="0"/>
        <pt x="9" y="56" on="0"/>
        <pt x="21" y="56" on="1"/>
        <pt x="32" y="56" on="0"/>
        <pt x="54" y="36" on="0"/>
      </contour>
    </TTGlyph>
    <TTGlyph name="commaaccent" xMin="32" yMin="-212" xMax="127" yMax="-64">
      <contour>
        <pt x="127" y="-103" on="1"/>
        <pt x="127" y="-122" on="0"/>
        <pt x="108" y="-157" on="0"/>
        <pt x="81" y="-185" on="0"/>
        <pt x="51" y="-206" on="0"/>
        <pt x="39" y="-212" on="1"/>
        <pt x="32" y="-201" on="1"/>
        <pt x="53" y="-187" on="0"/>
        <pt x="89" y="-151" on="0"/>
        <pt x="97" y="-128" on="1"/>
        <pt x="82" y="-125" on="0"/>
        <pt x="64" y="-108" on="0"/>
        <pt x="64" y="-95" on="1"/>
        <pt x="64" y="-82" on="0"/>
        <pt x="82" y="-64" on="0"/>
        <pt x="94" y="-64" on="1"/>
        <pt x="105" y="-64" on="0"/>
        <pt x="127" y="-84" on="0"/>
      </contour>
    </TTGlyph>
    <TTGlyph name="copyright" xMin="69" yMin="-12" xMax="651" yMax="744">
      <contour>
        <pt x="429" y="207" on="1"/>
        <pt x="412" y="196" on="0"/>
        <pt x="367" y="180" on="0"/>
        <pt x="343" y="180" on="1"/>
        <pt x="289" y="180" on="0"/>
        <pt x="227" y="255" on="0"/>
        <pt x="227" y="323" on="1"/>
        <pt x="227" y="365" on="0"/>
        <pt x="253" y="448" on="0"/>
        <pt x="300" y="514" on="0"/>
        <pt x="363" y="555" on="0"/>
        <pt x="401" y="555" on="1"/>
        <pt x="427" y="555" on="0"/>
        <pt x="469" y="538" on="0"/>
        <pt x="486" y="524" on="1"/>
        <pt x="469" y="501" on="1"/>
        <pt x="455" y="512" on="0"/>
        <pt x="422" y="527" on="0"/>
        <pt x="399" y="527" on="1"/>
        <pt x="370" y="527" on="0"/>
        <pt x="318" y="493" on="0"/>
        <pt x="280" y="436" on="0"/>
        <pt x="258" y="363" on="0"/>
        <pt x="258" y="323" on="1"/>
        <pt x="258" y="266" on="0"/>
        <pt x="306" y="209" on="0"/>
        <pt x="345" y="209" on="1"/>
        <pt x="368" y="209" on="0"/>
        <pt x="406" y="224" on="0"/>
        <pt x="420" y="232" on="1"/>
      </contour>
      <contour>
        <pt x="624" y="441" on="1"/>
        <pt x="624" y="502" on="0"/>
        <pt x="592" y="604" on="0"/>
        <pt x="535" y="678" on="0"/>
        <pt x="454" y="720" on="0"/>
        <pt x="405" y="720" on="1"/>
        <pt x="340" y="720" on="0"/>
        <pt x="227" y="648" on="0"/>
        <pt x="143" y="529" on="0"/>
        <pt x="95" y="375" on="0"/>
        <pt x="95" y="292" on="1"/>
        <pt x="95" y="231" on="0"/>
        <pt x="127" y="129" on="0"/>
        <pt x="185" y="54" on="0"/>
        <pt x="266" y="12" on="0"/>
        <pt x="315" y="12" on="1"/>
        <pt x="379" y="12" on="0"/>
        <pt x="492" y="83" on="0"/>
        <pt x="576" y="202" on="0"/>
        <pt x="624" y="357" on="0"/>
      </contour>
      <contour>
        <pt x="651" y="442" on="1"/>
        <pt x="651" y="355" on="0"/>
        <pt x="600" y="192" on="0"/>
        <pt x="510" y="65" on="0"/>
        <pt x="386" y="-12" on="0"/>
        <pt x="313" y="-12" on="1"/>
        <pt x="257" y="-12" on="0"/>
        <pt x="167" y="33" on="0"/>
        <pt x="104" y="114" on="0"/>
        <pt x="69" y="225" on="0"/>
        <pt x="69" y="291" on="1"/>
        <pt x="69" y="378" on="0"/>
        <pt x="120" y="541" on="0"/>
        <pt x="210" y="667" on="0"/>
        <pt x="334" y="744" on="0"/>
        <pt x="407" y="744" on="1"/>
        <pt x="462" y="744" on="0"/>
        <pt x="553" y="699" on="0"/>
        <pt x="616" y="618" on="0"/>
        <pt x="651" y="507" on="0"/>
      </contour>
    </TTGlyph>
    <TTGlyph name="d" xMin="28" yMin="-7" xMax="410" yMax="733">
      <contour>
        <pt x="275" y="0" on="1"/>
        <pt x="244" y="0" on="1"/>
        <pt x="253" y="44" on="1"/>
        <pt x="229" y="21" on="0"/>
        <pt x="175" y="-7" on="0"/>
        <pt x="144" y="-7" on="1"/>
        <pt x="121" y="-7" on="0"/>
        <pt x="79" y="11" on="0"/>
        <pt x="47" y="48" on="0"/>
        <pt x="28" y="105" on="0"/>
        <pt x="28" y="144" on="1"/>
        <pt x="28" y="192" on="0"/>
        <pt x="54" y="296" on="0"/>
        <pt x="103" y="381" on="0"/>
        <pt x="172" y="437" on="0"/>
        <pt x="215" y="437" on="1"/>
        <pt x="251" y="437" on="0"/>
        <pt x="299" y="404" on="0"/>
        <pt x="315" y="382" on="1"/>
        <pt x="379" y="733" on="1"/>
        <pt x="410" y="733" on="1"/>
      </contour>
      <contour>
        <pt x="308" y="349" on="1"/>
        <pt x="293" y="373" on="0"/>
        <pt x="246" y="409" on="0"/>
        <pt x="216" y="409" on="1"/>
        <pt x="181" y="409" on="0"/>
        <pt x="123" y="358" on="0"/>
        <pt x="81" y="281" on="0"/>
        <pt x="58" y="189" on="0"/>
        <pt x="58" y="149" on="1"/>
        <pt x="58" y="84" on="0"/>
        <pt x="110" y="21" on="0"/>
        <pt x="148" y="21" on="1"/>
        <pt x="179" y="21" on="0"/>
        <pt x="234" y="54" on="0"/>
        <pt x="258" y="78" on="1"/>
      </contour>
    </TTGlyph>
    <TTGlyph name="dagger" xMin="99" yMin="188" xMax="366" yMax="733">
      <contour>
        <pt x="361" y="564" on="1"/>
        <pt x="245" y="564" on="1"/>
        <pt x="176" y="188" on="1"/>
        <pt x="146" y="188" on="1"/>
        <pt x="215" y="564" on="1"/>
        <pt x="99" y="564" on="1"/>
        <pt x="104" y="592" on="1"/>
        <pt x="220" y="592" on="1"/>
        <pt x="246" y="733" on="1"/>
        <pt x="276" y="733" on="1"/>
        <pt x="250" y="592" on="1"/>
        <pt x="366" y="592" on="1"/>
      </contour>
    </TTGlyph>
    <TTGlyph name="daggerdbl" xMin="70" yMin="188" xMax="378" yMax="733">
      <contour>
        <pt x="373" y="558" on="1"/>
        <pt x="257" y="558" on="1"/>
        <pt x="221" y="364" on="1"/>
        <pt x="337" y="364" on="1"/>
        <pt x="332" y="335" on="1"/>
        <pt x="216" y="335" on="1"/>
        <pt x="189" y="188" on="1"/>
        <pt x="159" y="188" on="1"/>
        <pt x="186" y="335" on="1"/>
        <pt x="70" y="335" on="1"/>
        <pt x="75" y="364" on="1"/>
        <pt x="191" y="364" on="1"/>
        <pt x="227" y="558" on="1"/>
        <pt x="111" y="558" on="1"/>
        <pt x="116" y="586" on="1"/>
        <pt x="232" y="586" on="1"/>
        <pt x="259" y="733" on="1"/>
        <pt x="289" y="733" on="1"/>
        <pt x="262" y="586" on="1"/>
        <pt x="378" y="586" on="1"/>
      </contour>
    </TTGlyph>
    <TTGlyph name="dcaron" xMin="28" yMin="-7" xMax="517" yMax="735">
      <component glyphName="caron.alt" x="355" y="-2" flags="0x4"/>
      <component glyphName="d" x="0" y="0" flags="0x4"/>
    </TTGlyph>
    <TTGlyph name="dcroat" xMin="28" yMin="-7" xMax="438" yMax="733">
      <contour>
        <pt x="387" y="608" on="1"/>
        <pt x="438" y="608" on="1"/>
        <pt x="433" y="579" on="1"/>
        <pt x="381" y="579" on="1"/>
        <pt x="275" y="0" on="1"/>
        <pt x="244" y="0" on="1"/>
        <pt x="253" y="44" on="1"/>
        <pt x="229" y="21" on="0"/>
        <pt x="175" y="-7" on="0"/>
        <pt x="144" y="-7" on="1"/>
        <pt x="121" y="-7" on="0"/>
        <pt x="79" y="11" on="0"/>
        <pt x="47" y="48" on="0"/>
        <pt x="28" y="105" on="0"/>
        <pt x="28" y="144" on="1"/>
        <pt x="28" y="192" on="0"/>
        <pt x="54" y="296" on="0"/>
        <pt x="103" y="381" on="0"/>
        <pt x="172" y="437" on="0"/>
        <pt x="215" y="437" on="1"/>
        <pt x="251" y="437" on="0"/>
        <pt x="299" y="404" on="0"/>
        <pt x="315" y="382" on="1"/>
        <pt x="351" y="579" on="1"/>
        <pt x="234" y="579" on="1"/>
        <pt x="239" y="608" on="1"/>
        <pt x="356" y="608" on="1"/>
        <pt x="379" y="733" on="1"/>
        <pt x="410" y="733" on="1"/>
      </contour>
      <contour>
        <pt x="308" y="349" on="1"/>
        <pt x="293" y="373" on="0"/>
        <pt x="246" y="409" on="0"/>
        <pt x="216" y="409" on="1"/>
        <pt x="181" y="409" on="0"/>
        <pt x="123" y="358" on="0"/>
        <pt x="81" y="281" on="0"/>
        <pt x="58" y="189" on="0"/>
        <pt x="58" y="149" on="1"/>
        <pt x="58" y="84" on="0"/>
        <pt x="110" y="21" on="0"/>
        <pt x="148" y="21" on="1"/>
        <pt x="179" y="21" on="0"/>
        <pt x="234" y="54" on="0"/>
        <pt x="258" y="78" on="1"/>
      </contour>
    </TTGlyph>
    <TTGlyph name="degree" xMin="122" yMin="485" xMax="335" yMax="710">
      <contour>
        <pt x="335" y="610" on="1"/>
        <pt x="335" y="584" on="0"/>
        <pt x="316" y="538" on="0"/>
        <pt x="285" y="504" on="0"/>
        <pt x="243" y="485" on="0"/>
        <pt x="219" y="485" on="1"/>
        <pt x="177" y="485" on="0"/>
        <pt x="122" y="540" on="0"/>
        <pt x="122" y="585" on="1"/>
        <pt x="122" y="611" on="0"/>
        <pt x="141" y="657" on="0"/>
        <pt x="172" y="691" on="0"/>
        <pt x="214" y="710" on="0"/>
        <pt x="238" y="710" on="1"/>
        <pt x="280" y="710" on="0"/>
        <pt x="335" y="655" on="0"/>
      </contour>
      <contour>
        <pt x="307" y="608" on="1"/>
        <pt x="307" y="643" on="0"/>
        <pt x="269" y="686" on="0"/>
        <pt x="237" y="686" on="1"/>
        <pt x="219" y="686" on="0"/>
        <pt x="187" y="670" on="0"/>
        <pt x="163" y="643" on="0"/>
        <pt x="150" y="607" on="0"/>
        <pt x="150" y="586" on="1"/>
        <pt x="150" y="551" on="0"/>
        <pt x="188" y="509" on="0"/>
        <pt x="220" y="509" on="1"/>
        <pt x="257" y="509" on="0"/>
        <pt x="307" y="566" on="0"/>
      </contour>
    </TTGlyph>
    <TTGlyph name="degree.lin" xMin="124" yMin="484" xMax="360" yMax="735">
      <contour>
        <pt x="360" y="623" on="1"/>
        <pt x="360" y="594" on="0"/>
        <pt x="339" y="543" on="0"/>
        <pt x="304" y="505" on="0"/>
        <pt x="257" y="484" on="0"/>
        <pt x="231" y="484" on="1"/>
        <pt x="184" y="484" on="0"/>
        <pt x="124" y="545" on="0"/>
        <pt x="124" y="595" on="1"/>
        <pt x="124" y="624" on="0"/>
        <pt x="144" y="675" on="0"/>
        <pt x="179" y="713" on="0"/>
        <pt x="226" y="735" on="0"/>
        <pt x="253" y="735" on="1"/>
        <pt x="300" y="735" on="0"/>
        <pt x="360" y="673" on="0"/>
      </contour>
      <contour>
        <pt x="331" y="622" on="1"/>
        <pt x="331" y="660" on="0"/>
        <pt x="286" y="710" on="0"/>
        <pt x="251" y="710" on="1"/>
        <pt x="230" y="710" on="0"/>
        <pt x="195" y="692" on="0"/>
        <pt x="168" y="661" on="0"/>
        <pt x="153" y="620" on="0"/>
        <pt x="153" y="596" on="1"/>
        <pt x="153" y="557" on="0"/>
        <pt x="197" y="508" on="0"/>
        <pt x="233" y="508" on="1"/>
        <pt x="254" y="508" on="0"/>
        <pt x="289" y="526" on="0"/>
        <pt x="316" y="556" on="0"/>
        <pt x="331" y="598" on="0"/>
      </contour>
    </TTGlyph>
    <TTGlyph name="dieresis" xMin="173" yMin="496" xMax="360" yMax="555">
      <contour>
        <pt x="231" y="527" on="1"/>
        <pt x="231" y="514" on="0"/>
        <pt x="213" y="496" on="0"/>
        <pt x="201" y="496" on="1"/>
        <pt x="189" y="496" on="0"/>
        <pt x="173" y="513" on="0"/>
        <pt x="173" y="524" on="1"/>
        <pt x="173" y="538" on="0"/>
        <pt x="190" y="555" on="0"/>
        <pt x="203" y="555" on="1"/>
        <pt x="214" y="555" on="0"/>
        <pt x="231" y="539" on="0"/>
      </contour>
      <contour>
        <pt x="360" y="527" on="1"/>
        <pt x="360" y="514" on="0"/>
        <pt x="342" y="496" on="0"/>
        <pt x="330" y="496" on="1"/>
        <pt x="319" y="496" on="0"/>
        <pt x="302" y="513" on="0"/>
        <pt x="302" y="524" on="1"/>
        <pt x="302" y="538" on="0"/>
        <pt x="320" y="555" on="0"/>
        <pt x="332" y="555" on="1"/>
        <pt x="343" y="555" on="0"/>
        <pt x="360" y="539" on="0"/>
      </contour>
    </TTGlyph>
    <TTGlyph name="divide" xMin="59" yMin="172" xMax="358" yMax="487">
      <contour>
        <pt x="213" y="201" on="1"/>
        <pt x="213" y="188" on="0"/>
        <pt x="196" y="172" on="0"/>
        <pt x="185" y="172" on="1"/>
        <pt x="174" y="172" on="0"/>
        <pt x="158" y="188" on="0"/>
        <pt x="158" y="199" on="1"/>
        <pt x="158" y="212" on="0"/>
        <pt x="176" y="228" on="0"/>
        <pt x="187" y="228" on="1"/>
        <pt x="198" y="228" on="0"/>
        <pt x="213" y="212" on="0"/>
      </contour>
      <contour>
        <pt x="64" y="344" on="1"/>
        <pt x="358" y="344" on="1"/>
        <pt x="353" y="315" on="1"/>
        <pt x="59" y="315" on="1"/>
      </contour>
      <contour>
        <pt x="260" y="460" on="1"/>
        <pt x="260" y="447" on="0"/>
        <pt x="243" y="431" on="0"/>
        <pt x="232" y="431" on="1"/>
        <pt x="220" y="431" on="0"/>
        <pt x="205" y="446" on="0"/>
        <pt x="205" y="457" on="1"/>
        <pt x="205" y="470" on="0"/>
        <pt x="222" y="487" on="0"/>
        <pt x="233" y="487" on="1"/>
        <pt x="245" y="487" on="0"/>
        <pt x="260" y="471" on="0"/>
      </contour>
    </TTGlyph>
    <TTGlyph name="divide.lin" xMin="67" yMin="213" xMax="366" yMax="528">
      <component glyphName="divide" x="8" y="41" flags="0x204"/>
    </TTGlyph>
    <TTGlyph name="dollar" xMin="-15" yMin="-70" xMax="380" yMax="718">
      <contour>
        <pt x="308" y="657" on="1"/>
        <pt x="330" y="649" on="0"/>
        <pt x="366" y="624" on="0"/>
        <pt x="380" y="609" on="1"/>
        <pt x="362" y="585" on="1"/>
        <pt x="335" y="615" on="0"/>
        <pt x="300" y="629" on="1"/>
        <pt x="214" y="350" on="1"/>
        <pt x="232" y="330" on="0"/>
        <pt x="267" y="289" on="0"/>
        <pt x="294" y="243" on="0"/>
        <pt x="310" y="192" on="0"/>
        <pt x="310" y="164" on="1"/>
        <pt x="310" y="125" on="0"/>
        <pt x="284" y="61" on="0"/>
        <pt x="239" y="16" on="0"/>
        <pt x="178" y="-8" on="0"/>
        <pt x="142" y="-8" on="1"/>
        <pt x="121" y="-8" on="0"/>
        <pt x="105" y="-4" on="1"/>
        <pt x="85" y="-70" on="1"/>
        <pt x="60" y="-66" on="1"/>
        <pt x="81" y="2" on="1"/>
        <pt x="52" y="12" on="0"/>
        <pt x="4" y="49" on="0"/>
        <pt x="-15" y="72" on="1"/>
        <pt x="4" y="96" on="1"/>
        <pt x="21" y="73" on="0"/>
        <pt x="64" y="38" on="0"/>
        <pt x="89" y="29" on="1"/>
        <pt x="184" y="340" on="1"/>
        <pt x="147" y="377" on="0"/>
        <pt x="93" y="458" on="0"/>
        <pt x="93" y="508" on="1"/>
        <pt x="93" y="543" on="0"/>
        <pt x="116" y="601" on="0"/>
        <pt x="157" y="643" on="0"/>
        <pt x="215" y="667" on="0"/>
        <pt x="250" y="667" on="1"/>
        <pt x="268" y="667" on="0"/>
        <pt x="283" y="664" on="1"/>
        <pt x="300" y="718" on="1"/>
        <pt x="326" y="714" on="1"/>
      </contour>
      <contour>
        <pt x="279" y="165" on="1"/>
        <pt x="279" y="213" on="0"/>
        <pt x="235" y="284" on="0"/>
        <pt x="203" y="319" on="1"/>
        <pt x="113" y="22" on="1"/>
        <pt x="128" y="19" on="0"/>
        <pt x="143" y="19" on="1"/>
        <pt x="203" y="19" on="0"/>
        <pt x="279" y="99" on="0"/>
      </contour>
      <contour>
        <pt x="124" y="511" on="1"/>
        <pt x="124" y="472" on="0"/>
        <pt x="160" y="406" on="0"/>
        <pt x="194" y="370" on="1"/>
        <pt x="275" y="636" on="1"/>
        <pt x="261" y="639" on="0"/>
        <pt x="248" y="639" on="1"/>
        <pt x="191" y="639" on="0"/>
        <pt x="124" y="568" on="0"/>
      </contour>
    </TTGlyph>
    <TTGlyph name="dollar.lin" xMin="-15" yMin="-78" xMax="427" yMax="794">
      <contour>
        <pt x="343" y="724" on="1"/>
        <pt x="368" y="716" on="0"/>
        <pt x="410" y="687" on="0"/>
        <pt x="427" y="670" on="1"/>
        <pt x="408" y="646" on="1"/>
        <pt x="380" y="679" on="0"/>
        <pt x="335" y="696" on="1"/>
        <pt x="239" y="386" on="1"/>
        <pt x="260" y="365" on="0"/>
        <pt x="300" y="319" on="0"/>
        <pt x="331" y="269" on="0"/>
        <pt x="350" y="213" on="0"/>
        <pt x="350" y="181" on="1"/>
        <pt x="350" y="138" on="0"/>
        <pt x="321" y="68" on="0"/>
        <pt x="270" y="19" on="0"/>
        <pt x="202" y="-8" on="0"/>
        <pt x="162" y="-8" on="1"/>
        <pt x="151" y="-8" on="0"/>
        <pt x="130" y="-6" on="0"/>
        <pt x="120" y="-4" on="1"/>
        <pt x="98" y="-78" on="1"/>
        <pt x="71" y="-73" on="1"/>
        <pt x="94" y="3" on="1"/>
        <pt x="61" y="14" on="0"/>
        <pt x="7" y="54" on="0"/>
        <pt x="-15" y="80" on="1"/>
        <pt x="5" y="105" on="1"/>
        <pt x="25" y="79" on="0"/>
        <pt x="74" y="41" on="0"/>
        <pt x="102" y="31" on="1"/>
        <pt x="208" y="375" on="1"/>
        <pt x="188" y="395" on="0"/>
        <pt x="150" y="437" on="0"/>
        <pt x="122" y="482" on="0"/>
        <pt x="105" y="532" on="0"/>
        <pt x="105" y="560" on="1"/>
        <pt x="105" y="599" on="0"/>
        <pt x="131" y="663" on="0"/>
        <pt x="177" y="709" on="0"/>
        <pt x="241" y="735" on="0"/>
        <pt x="279" y="735" on="1"/>
        <pt x="301" y="735" on="0"/>
        <pt x="317" y="731" on="1"/>
        <pt x="336" y="794" on="1"/>
        <pt x="363" y="788" on="1"/>
      </contour>
      <contour>
        <pt x="318" y="181" on="1"/>
        <pt x="318" y="208" on="0"/>
        <pt x="304" y="254" on="0"/>
        <pt x="279" y="296" on="0"/>
        <pt x="247" y="334" on="0"/>
        <pt x="229" y="353" on="1"/>
        <pt x="129" y="23" on="1"/>
        <pt x="145" y="20" on="0"/>
        <pt x="163" y="20" on="1"/>
        <pt x="197" y="20" on="0"/>
        <pt x="254" y="43" on="0"/>
        <pt x="295" y="85" on="0"/>
        <pt x="318" y="145" on="0"/>
      </contour>
      <contour>
        <pt x="136" y="563" on="1"/>
        <pt x="136" y="518" on="0"/>
        <pt x="178" y="447" on="0"/>
        <pt x="218" y="407" on="1"/>
        <pt x="308" y="704" on="1"/>
        <pt x="293" y="707" on="0"/>
        <pt x="278" y="707" on="1"/>
        <pt x="246" y="707" on="0"/>
        <pt x="194" y="685" on="0"/>
        <pt x="156" y="647" on="0"/>
        <pt x="136" y="594" on="0"/>
      </contour>
    </TTGlyph>
    <TTGlyph name="dotaccent" xMin="237" yMin="496" xMax="295" yMax="555">
      <contour>
        <pt x="295" y="527" on="1"/>
        <pt x="295" y="513" on="0"/>
        <pt x="277" y="496" on="0"/>
        <pt x="265" y="496" on="1"/>
        <pt x="253" y="496" on="0"/>
        <pt x="237" y="513" on="0"/>
        <pt x="237" y="524" on="1"/>
        <pt x="237" y="538" on="0"/>
        <pt x="255" y="555" on="0"/>
        <pt x="267" y="555" on="1"/>
        <pt x="279" y="555" on="0"/>
        <pt x="295" y="539" on="0"/>
      </contour>
    </TTGlyph>
    <TTGlyph name="dotlessi" xMin="20" yMin="0" xMax="129" yMax="430">
      <contour>
        <pt x="51" y="0" on="1"/>
        <pt x="20" y="0" on="1"/>
        <pt x="98" y="430" on="1"/>
        <pt x="129" y="430" on="1"/>
      </contour>
    </TTGlyph>
    <TTGlyph name="e" xMin="24" yMin="-9" xMax="313" yMax="439">
      <contour>
        <pt x="161" y="-9" on="1"/>
        <pt x="93" y="-9" on="0"/>
        <pt x="24" y="75" on="0"/>
        <pt x="24" y="150" on="1"/>
        <pt x="24" y="198" on="0"/>
        <pt x="51" y="301" on="0"/>
        <pt x="101" y="385" on="0"/>
        <pt x="169" y="439" on="0"/>
        <pt x="210" y="439" on="1"/>
        <pt x="262" y="439" on="0"/>
        <pt x="313" y="362" on="0"/>
        <pt x="313" y="302" on="1"/>
        <pt x="313" y="281" on="0"/>
        <pt x="306" y="230" on="0"/>
        <pt x="300" y="209" on="1"/>
        <pt x="59" y="209" on="1"/>
        <pt x="57" y="193" on="0"/>
        <pt x="56" y="161" on="0"/>
        <pt x="56" y="149" on="1"/>
        <pt x="56" y="89" on="0"/>
        <pt x="108" y="19" on="0"/>
        <pt x="163" y="19" on="1"/>
        <pt x="185" y="19" on="0"/>
        <pt x="226" y="32" on="0"/>
        <pt x="244" y="43" on="1"/>
        <pt x="254" y="17" on="1"/>
        <pt x="234" y="6" on="0"/>
        <pt x="187" y="-9" on="0"/>
      </contour>
      <contour>
        <pt x="276" y="236" on="1"/>
        <pt x="278" y="250" on="0"/>
        <pt x="282" y="284" on="0"/>
        <pt x="282" y="301" on="1"/>
        <pt x="282" y="324" on="0"/>
        <pt x="274" y="365" on="0"/>
        <pt x="256" y="395" on="0"/>
        <pt x="228" y="412" on="0"/>
        <pt x="208" y="412" on="1"/>
        <pt x="184" y="412" on="0"/>
        <pt x="140" y="384" on="0"/>
        <pt x="102" y="336" on="0"/>
        <pt x="73" y="272" on="0"/>
        <pt x="65" y="236" on="1"/>
      </contour>
    </TTGlyph>
    <TTGlyph name="eacute" xMin="24" yMin="-9" xMax="361" yMax="604">
      <component glyphName="acute" x="18" y="0" flags="0x4"/>
      <component glyphName="e" x="0" y="0" flags="0x4"/>
    </TTGlyph>
    <TTGlyph name="ebreve" xMin="24" yMin="-9" xMax="342" yMax="590">
      <component glyphName="e" x="0" y="0" flags="0x204"/>
      <component glyphName="breve" x="-34" y="0" flags="0x4"/>
    </TTGlyph>
    <TTGlyph name="ecaron" xMin="24" yMin="-9" xMax="345" yMax="594">
      <component glyphName="caron" x="-34" y="0" flags="0x4"/>
      <component glyphName="e" x="0" y="0" flags="0x4"/>
    </TTGlyph>
    <TTGlyph name="ecircumflex" xMin="24" yMin="-9" xMax="327" yMax="595">
      <component glyphName="circumflex" x="-36" y="0" flags="0x4"/>
      <component glyphName="e" x="0" y="0" flags="0x4"/>
    </TTGlyph>
    <TTGlyph name="edieresis" xMin="24" yMin="-9" xMax="325" yMax="555">
      <component glyphName="dieresis" x="-35" y="0" flags="0x4"/>
      <component glyphName="e" x="0" y="0" flags="0x4"/>
    </TTGlyph>
    <TTGlyph name="edotaccent" xMin="24" yMin="-9" xMax="313" yMax="555">
      <component glyphName="e" x="0" y="0" flags="0x204"/>
      <component glyphName="dotaccent" x="-34" y="0" flags="0x4"/>
    </TTGlyph>
    <TTGlyph name="egrave" xMin="24" yMin="-9" xMax="313" yMax="607">
      <component glyphName="e" x="0" y="0" flags="0x204"/>
      <component glyphName="grave" x="-86" y="0" flags="0x4"/>
    </TTGlyph>
    <TTGlyph name="eight" xMin="28" yMin="-6" xMax="377" yMax="667">
      <contour>
        <pt x="377" y="524" on="1"/>
        <pt x="377" y="492" on="0"/>
        <pt x="361" y="432" on="0"/>
        <pt x="330" y="380" on="0"/>
        <pt x="287" y="341" on="0"/>
        <pt x="260" y="331" on="1"/>
        <pt x="293" y="311" on="0"/>
        <pt x="328" y="241" on="0"/>
        <pt x="328" y="198" on="1"/>
        <pt x="328" y="156" on="0"/>
        <pt x="302" y="81" on="0"/>
        <pt x="257" y="26" on="0"/>
        <pt x="196" y="-6" on="0"/>
        <pt x="161" y="-6" on="1"/>
        <pt x="134" y="-6" on="0"/>
        <pt x="86" y="13" on="0"/>
        <pt x="49" y="51" on="0"/>
        <pt x="28" y="107" on="0"/>
        <pt x="28" y="144" on="1"/>
        <pt x="28" y="172" on="0"/>
        <pt x="43" y="232" on="0"/>
        <pt x="75" y="287" on="0"/>
        <pt x="122" y="331" on="0"/>
        <pt x="154" y="342" on="1"/>
        <pt x="125" y="362" on="0"/>
        <pt x="96" y="424" on="0"/>
        <pt x="96" y="463" on="1"/>
        <pt x="96" y="506" on="0"/>
        <pt x="122" y="581" on="0"/>
        <pt x="166" y="636" on="0"/>
        <pt x="225" y="667" on="0"/>
        <pt x="258" y="667" on="1"/>
        <pt x="311" y="667" on="0"/>
        <pt x="377" y="589" on="0"/>
      </contour>
      <contour>
        <pt x="347" y="524" on="1"/>
        <pt x="347" y="578" on="0"/>
        <pt x="298" y="640" on="0"/>
        <pt x="258" y="640" on="1"/>
        <pt x="231" y="640" on="0"/>
        <pt x="183" y="613" on="0"/>
        <pt x="148" y="566" on="0"/>
        <pt x="127" y="501" on="0"/>
        <pt x="127" y="463" on="1"/>
        <pt x="127" y="411" on="0"/>
        <pt x="179" y="348" on="0"/>
        <pt x="220" y="348" on="1"/>
        <pt x="246" y="348" on="0"/>
        <pt x="292" y="376" on="0"/>
        <pt x="327" y="424" on="0"/>
        <pt x="347" y="488" on="0"/>
      </contour>
      <contour>
        <pt x="297" y="198" on="1"/>
        <pt x="297" y="258" on="0"/>
        <pt x="236" y="324" on="0"/>
        <pt x="193" y="324" on="1"/>
        <pt x="166" y="324" on="0"/>
        <pt x="117" y="295" on="0"/>
        <pt x="81" y="246" on="0"/>
        <pt x="59" y="180" on="0"/>
        <pt x="59" y="143" on="1"/>
        <pt x="59" y="84" on="0"/>
        <pt x="119" y="20" on="0"/>
        <pt x="162" y="20" on="1"/>
        <pt x="191" y="20" on="0"/>
        <pt x="241" y="48" on="0"/>
        <pt x="277" y="96" on="0"/>
        <pt x="297" y="161" on="0"/>
      </contour>
    </TTGlyph>
    <TTGlyph name="eight.lin" xMin="34" yMin="-8" xMax="426" yMax="735">
      <contour>
        <pt x="188" y="-8" on="1"/>
        <pt x="157" y="-8" on="0"/>
        <pt x="101" y="14" on="0"/>
        <pt x="59" y="56" on="0"/>
        <pt x="34" y="119" on="0"/>
        <pt x="34" y="160" on="1"/>
        <pt x="34" y="191" on="0"/>
        <pt x="52" y="258" on="0"/>
        <pt x="88" y="318" on="0"/>
        <pt x="141" y="365" on="0"/>
        <pt x="176" y="376" on="1"/>
        <pt x="144" y="398" on="0"/>
        <pt x="109" y="468" on="0"/>
        <pt x="109" y="512" on="1"/>
        <pt x="109" y="557" on="0"/>
        <pt x="137" y="638" on="0"/>
        <pt x="185" y="699" on="0"/>
        <pt x="249" y="735" on="0"/>
        <pt x="286" y="735" on="1"/>
        <pt x="316" y="735" on="0"/>
        <pt x="367" y="714" on="0"/>
        <pt x="405" y="673" on="0"/>
        <pt x="426" y="615" on="0"/>
        <pt x="426" y="579" on="1"/>
        <pt x="426" y="544" on="0"/>
        <pt x="408" y="476" on="0"/>
        <pt x="374" y="419" on="0"/>
        <pt x="324" y="375" on="0"/>
        <pt x="292" y="364" on="1"/>
        <pt x="331" y="341" on="0"/>
        <pt x="372" y="264" on="0"/>
        <pt x="372" y="216" on="1"/>
        <pt x="372" y="169" on="0"/>
        <pt x="343" y="88" on="0"/>
        <pt x="294" y="27" on="0"/>
        <pt x="227" y="-8" on="0"/>
      </contour>
      <contour>
        <pt x="340" y="215" on="1"/>
        <pt x="340" y="249" on="0"/>
        <pt x="320" y="302" on="0"/>
        <pt x="287" y="338" on="0"/>
        <pt x="243" y="357" on="0"/>
        <pt x="219" y="357" on="1"/>
        <pt x="186" y="357" on="0"/>
        <pt x="130" y="326" on="0"/>
        <pt x="89" y="272" on="0"/>
        <pt x="65" y="199" on="0"/>
        <pt x="65" y="158" on="1"/>
        <pt x="65" y="125" on="0"/>
        <pt x="85" y="73" on="0"/>
        <pt x="119" y="37" on="0"/>
        <pt x="164" y="19" on="0"/>
        <pt x="190" y="19" on="1"/>
        <pt x="222" y="19" on="0"/>
        <pt x="277" y="50" on="0"/>
        <pt x="317" y="104" on="0"/>
        <pt x="340" y="175" on="0"/>
      </contour>
      <contour>
        <pt x="395" y="581" on="1"/>
        <pt x="395" y="642" on="0"/>
        <pt x="332" y="707" on="0"/>
        <pt x="284" y="707" on="1"/>
        <pt x="254" y="707" on="0"/>
        <pt x="201" y="674" on="0"/>
        <pt x="162" y="620" on="0"/>
        <pt x="140" y="549" on="0"/>
        <pt x="140" y="511" on="1"/>
        <pt x="140" y="451" on="0"/>
        <pt x="205" y="382" on="0"/>
        <pt x="251" y="382" on="1"/>
        <pt x="281" y="382" on="0"/>
        <pt x="333" y="413" on="0"/>
        <pt x="372" y="467" on="0"/>
        <pt x="395" y="540" on="0"/>
      </contour>
    </TTGlyph>
    <TTGlyph name="ellipsis" xMin="7" yMin="-8" xMax="367" yMax="56">
      <contour>
        <pt x="70" y="25" on="1"/>
        <pt x="70" y="11" on="0"/>
        <pt x="51" y="-8" on="0"/>
        <pt x="37" y="-8" on="1"/>
        <pt x="24" y="-8" on="0"/>
        <pt x="7" y="9" on="0"/>
        <pt x="7" y="22" on="1"/>
        <pt x="7" y="36" on="0"/>
        <pt x="26" y="56" on="0"/>
        <pt x="39" y="56" on="1"/>
        <pt x="52" y="56" on="0"/>
        <pt x="70" y="38" on="0"/>
      </contour>
      <contour>
        <pt x="218" y="25" on="1"/>
        <pt x="218" y="11" on="0"/>
        <pt x="199" y="-8" on="0"/>
        <pt x="186" y="-8" on="1"/>
        <pt x="173" y="-8" on="0"/>
        <pt x="155" y="9" on="0"/>
        <pt x="155" y="22" on="1"/>
        <pt x="155" y="36" on="0"/>
        <pt x="174" y="56" on="0"/>
        <pt x="188" y="56" on="1"/>
        <pt x="201" y="56" on="0"/>
        <pt x="218" y="38" on="0"/>
      </contour>
      <contour>
        <pt x="367" y="25" on="1"/>
        <pt x="367" y="11" on="0"/>
        <pt x="347" y="-8" on="0"/>
        <pt x="334" y="-8" on="1"/>
        <pt x="321" y="-8" on="0"/>
        <pt x="303" y="9" on="0"/>
        <pt x="303" y="22" on="1"/>
        <pt x="303" y="36" on="0"/>
        <pt x="323" y="56" on="0"/>
        <pt x="336" y="56" on="1"/>
        <pt x="349" y="56" on="0"/>
        <pt x="367" y="38" on="0"/>
      </contour>
    </TTGlyph>
    <TTGlyph name="emacron" xMin="24" yMin="-9" xMax="350" yMax="534">
      <component glyphName="e" x="0" y="0" flags="0x204"/>
      <component glyphName="macron" x="-35" y="0" flags="0x4"/>
    </TTGlyph>
    <TTGlyph name="emdash" xMin="47" yMin="243" xMax="532" yMax="271">
      <contour>
        <pt x="526" y="243" on="1"/>
        <pt x="47" y="243" on="1"/>
        <pt x="52" y="271" on="1"/>
        <pt x="532" y="271" on="1"/>
      </contour>
    </TTGlyph>
    <TTGlyph name="emdash.cap" xMin="68" yMin="356" xMax="553" yMax="384">
      <component glyphName="emdash" x="21" y="113" flags="0x204"/>
    </TTGlyph>
    <TTGlyph name="endash" xMin="47" yMin="243" xMax="347" yMax="271">
      <contour>
        <pt x="342" y="243" on="1"/>
        <pt x="47" y="243" on="1"/>
        <pt x="52" y="271" on="1"/>
        <pt x="347" y="271" on="1"/>
      </contour>
    </TTGlyph>
    <TTGlyph name="endash.cap" xMin="68" yMin="356" xMax="368" yMax="384">
      <component glyphName="endash" x="21" y="113" flags="0x204"/>
    </TTGlyph>
    <TTGlyph name="eogonek" xMin="24" yMin="-201" xMax="313" yMax="439">
      <contour>
        <pt x="161" y="-9" on="1"/>
        <pt x="93" y="-9" on="0"/>
        <pt x="24" y="75" on="0"/>
        <pt x="24" y="150" on="1"/>
        <pt x="24" y="198" on="0"/>
        <pt x="51" y="301" on="0"/>
        <pt x="101" y="385" on="0"/>
        <pt x="169" y="439" on="0"/>
        <pt x="210" y="439" on="1"/>
        <pt x="262" y="439" on="0"/>
        <pt x="313" y="362" on="0"/>
        <pt x="313" y="302" on="1"/>
        <pt x="313" y="281" on="0"/>
        <pt x="306" y="230" on="0"/>
        <pt x="300" y="209" on="1"/>
        <pt x="59" y="209" on="1"/>
        <pt x="57" y="193" on="0"/>
        <pt x="56" y="161" on="0"/>
        <pt x="56" y="149" on="1"/>
        <pt x="56" y="89" on="0"/>
        <pt x="108" y="19" on="0"/>
        <pt x="163" y="19" on="1"/>
        <pt x="185" y="19" on="0"/>
        <pt x="226" y="32" on="0"/>
        <pt x="244" y="43" on="1"/>
        <pt x="254" y="17" on="1"/>
        <pt x="236" y="4" on="0"/>
        <pt x="195" y="-31" on="0"/>
        <pt x="161" y="-71" on="0"/>
        <pt x="138" y="-115" on="0"/>
        <pt x="138" y="-137" on="1"/>
        <pt x="138" y="-174" on="0"/>
        <pt x="168" y="-174" on="1"/>
        <pt x="181" y="-174" on="0"/>
        <pt x="204" y="-161" on="0"/>
        <pt x="215" y="-150" on="1"/>
        <pt x="228" y="-171" on="1"/>
        <pt x="214" y="-185" on="0"/>
        <pt x="181" y="-201" on="0"/>
        <pt x="161" y="-201" on="1"/>
        <pt x="135" y="-201" on="0"/>
        <pt x="108" y="-168" on="0"/>
        <pt x="108" y="-145" on="1"/>
        <pt x="108" y="-105" on="0"/>
        <pt x="154" y="-37" on="0"/>
        <pt x="187" y="-7" on="1"/>
        <pt x="180" y="-8" on="0"/>
        <pt x="168" y="-9" on="0"/>
      </contour>
      <contour>
        <pt x="276" y="236" on="1"/>
        <pt x="278" y="250" on="0"/>
        <pt x="282" y="284" on="0"/>
        <pt x="282" y="301" on="1"/>
        <pt x="282" y="324" on="0"/>
        <pt x="274" y="365" on="0"/>
        <pt x="256" y="395" on="0"/>
        <pt x="228" y="412" on="0"/>
        <pt x="208" y="412" on="1"/>
        <pt x="184" y="412" on="0"/>
        <pt x="140" y="384" on="0"/>
        <pt x="102" y="336" on="0"/>
        <pt x="73" y="272" on="0"/>
        <pt x="65" y="236" on="1"/>
      </contour>
    </TTGlyph>
    <TTGlyph name="equal" xMin="52" yMin="255" xMax="292" yMax="402">
      <contour>
        <pt x="264" y="255" on="1"/>
        <pt x="52" y="255" on="1"/>
        <pt x="57" y="284" on="1"/>
        <pt x="270" y="284" on="1"/>
      </contour>
      <contour>
        <pt x="286" y="373" on="1"/>
        <pt x="74" y="373" on="1"/>
        <pt x="79" y="402" on="1"/>
        <pt x="292" y="402" on="1"/>
      </contour>
    </TTGlyph>
    <TTGlyph name="equal.lin" xMin="60" yMin="297" xMax="300" yMax="444">
      <component glyphName="equal" x="8" y="42" flags="0x204"/>
    </TTGlyph>
    <TTGlyph name="eth" xMin="21" yMin="-9" xMax="340" yMax="734">
      <contour>
        <pt x="243" y="642" on="1"/>
        <pt x="288" y="582" on="0"/>
        <pt x="340" y="432" on="0"/>
        <pt x="340" y="339" on="1"/>
        <pt x="340" y="264" on="0"/>
        <pt x="310" y="136" on="0"/>
        <pt x="257" y="43" on="0"/>
        <pt x="185" y="-9" on="0"/>
        <pt x="144" y="-9" on="1"/>
        <pt x="87" y="-9" on="0"/>
        <pt x="21" y="77" on="0"/>
        <pt x="21" y="152" on="1"/>
        <pt x="21" y="201" on="0"/>
        <pt x="48" y="303" on="0"/>
        <pt x="98" y="385" on="0"/>
        <pt x="167" y="438" on="0"/>
        <pt x="208" y="438" on="1"/>
        <pt x="246" y="438" on="0"/>
        <pt x="297" y="393" on="0"/>
        <pt x="308" y="357" on="1"/>
        <pt x="302" y="437" on="0"/>
        <pt x="255" y="569" on="0"/>
        <pt x="215" y="623" on="1"/>
        <pt x="130" y="567" on="1"/>
        <pt x="115" y="590" on="1"/>
        <pt x="198" y="645" on="1"/>
        <pt x="170" y="680" on="0"/>
        <pt x="133" y="711" on="1"/>
        <pt x="153" y="734" on="1"/>
        <pt x="173" y="717" on="0"/>
        <pt x="208" y="683" on="0"/>
        <pt x="225" y="663" on="1"/>
        <pt x="313" y="721" on="1"/>
        <pt x="327" y="698" on="1"/>
      </contour>
      <contour>
        <pt x="303" y="272" on="1"/>
        <pt x="303" y="301" on="0"/>
        <pt x="290" y="352" on="0"/>
        <pt x="266" y="389" on="0"/>
        <pt x="230" y="410" on="0"/>
        <pt x="208" y="410" on="1"/>
        <pt x="175" y="410" on="0"/>
        <pt x="118" y="362" on="0"/>
        <pt x="76" y="288" on="0"/>
        <pt x="52" y="196" on="0"/>
        <pt x="52" y="153" on="1"/>
        <pt x="52" y="93" on="0"/>
        <pt x="102" y="19" on="0"/>
        <pt x="147" y="19" on="1"/>
        <pt x="179" y="19" on="0"/>
        <pt x="236" y="64" on="0"/>
        <pt x="278" y="136" on="0"/>
        <pt x="303" y="227" on="0"/>
      </contour>
    </TTGlyph>
    <TTGlyph name="exclam" xMin="13" yMin="-8" xMax="189" yMax="733">
      <contour>
        <pt x="82" y="165" on="1"/>
        <pt x="58" y="166" on="1"/>
        <pt x="156" y="733" on="1"/>
        <pt x="189" y="733" on="1"/>
      </contour>
      <contour>
        <pt x="76" y="25" on="1"/>
        <pt x="76" y="11" on="0"/>
        <pt x="57" y="-8" on="0"/>
        <pt x="44" y="-8" on="1"/>
        <pt x="31" y="-8" on="0"/>
        <pt x="13" y="9" on="0"/>
        <pt x="13" y="22" on="1"/>
        <pt x="13" y="36" on="0"/>
        <pt x="32" y="56" on="0"/>
        <pt x="45" y="56" on="1"/>
        <pt x="59" y="56" on="0"/>
        <pt x="76" y="38" on="0"/>
      </contour>
    </TTGlyph>
    <TTGlyph name="exclamdown" xMin="19" yMin="-5" xMax="196" yMax="737">
      <contour>
        <pt x="196" y="706" on="1"/>
        <pt x="196" y="692" on="0"/>
        <pt x="176" y="673" on="0"/>
        <pt x="163" y="673" on="1"/>
        <pt x="150" y="673" on="0"/>
        <pt x="132" y="690" on="0"/>
        <pt x="132" y="704" on="1"/>
        <pt x="132" y="718" on="0"/>
        <pt x="152" y="737" on="0"/>
        <pt x="165" y="737" on="1"/>
        <pt x="178" y="737" on="0"/>
        <pt x="196" y="720" on="0"/>
      </contour>
      <contour>
        <pt x="52" y="-5" on="1"/>
        <pt x="19" y="-5" on="1"/>
        <pt x="126" y="563" on="1"/>
        <pt x="151" y="562" on="1"/>
      </contour>
    </TTGlyph>
    <TTGlyph name="f" xMin="0" yMin="-199" xMax="336" yMax="741">
      <contour>
        <pt x="326" y="699" on="1"/>
        <pt x="315" y="704" on="0"/>
        <pt x="286" y="712" on="0"/>
        <pt x="269" y="712" on="1"/>
        <pt x="232" y="712" on="0"/>
        <pt x="190" y="662" on="0"/>
        <pt x="179" y="603" on="1"/>
        <pt x="147" y="430" on="1"/>
        <pt x="243" y="430" on="1"/>
        <pt x="238" y="401" on="1"/>
        <pt x="142" y="401" on="1"/>
        <pt x="31" y="-199" on="1"/>
        <pt x="0" y="-199" on="1"/>
        <pt x="110" y="400" on="1"/>
        <pt x="48" y="400" on="1"/>
        <pt x="50" y="416" on="1"/>
        <pt x="116" y="430" on="1"/>
        <pt x="149" y="610" on="1"/>
        <pt x="154" y="636" on="0"/>
        <pt x="172" y="683" on="0"/>
        <pt x="201" y="719" on="0"/>
        <pt x="242" y="741" on="0"/>
        <pt x="271" y="741" on="1"/>
        <pt x="290" y="741" on="0"/>
        <pt x="326" y="731" on="0"/>
        <pt x="336" y="726" on="1"/>
      </contour>
    </TTGlyph>
    <TTGlyph name="f_f" xMin="0" yMin="-199" xMax="547" yMax="741">
      <contour>
        <pt x="536" y="699" on="1"/>
        <pt x="525" y="704" on="0"/>
        <pt x="496" y="712" on="0"/>
        <pt x="479" y="712" on="1"/>
        <pt x="442" y="712" on="0"/>
        <pt x="401" y="662" on="0"/>
        <pt x="390" y="603" on="1"/>
        <pt x="357" y="430" on="1"/>
        <pt x="453" y="430" on="1"/>
        <pt x="448" y="401" on="1"/>
        <pt x="352" y="401" on="1"/>
        <pt x="241" y="-199" on="1"/>
        <pt x="210" y="-199" on="1"/>
        <pt x="321" y="400" on="1"/>
        <pt x="258" y="400" on="1"/>
        <pt x="260" y="416" on="1"/>
        <pt x="326" y="430" on="1"/>
        <pt x="359" y="610" on="1"/>
        <pt x="364" y="636" on="0"/>
        <pt x="382" y="683" on="0"/>
        <pt x="411" y="719" on="0"/>
        <pt x="453" y="741" on="0"/>
        <pt x="482" y="741" on="1"/>
        <pt x="500" y="741" on="0"/>
        <pt x="536" y="731" on="0"/>
        <pt x="547" y="726" on="1"/>
      </contour>
      <contour>
        <pt x="326" y="699" on="1"/>
        <pt x="315" y="704" on="0"/>
        <pt x="286" y="712" on="0"/>
        <pt x="269" y="712" on="1"/>
        <pt x="232" y="712" on="0"/>
        <pt x="190" y="662" on="0"/>
        <pt x="179" y="603" on="1"/>
        <pt x="147" y="430" on="1"/>
        <pt x="243" y="430" on="1"/>
        <pt x="238" y="401" on="1"/>
        <pt x="142" y="401" on="1"/>
        <pt x="31" y="-199" on="1"/>
        <pt x="0" y="-199" on="1"/>
        <pt x="110" y="400" on="1"/>
        <pt x="48" y="400" on="1"/>
        <pt x="50" y="416" on="1"/>
        <pt x="116" y="430" on="1"/>
        <pt x="149" y="610" on="1"/>
        <pt x="154" y="636" on="0"/>
        <pt x="172" y="683" on="0"/>
        <pt x="201" y="719" on="0"/>
        <pt x="242" y="741" on="0"/>
        <pt x="271" y="741" on="1"/>
        <pt x="290" y="741" on="0"/>
        <pt x="326" y="731" on="0"/>
        <pt x="336" y="726" on="1"/>
      </contour>
    </TTGlyph>
    <TTGlyph name="f_f_i" xMin="0" yMin="-199" xMax="590" yMax="741">
      <contour>
        <pt x="326" y="699" on="1"/>
        <pt x="315" y="704" on="0"/>
        <pt x="286" y="712" on="0"/>
        <pt x="269" y="712" on="1"/>
        <pt x="232" y="712" on="0"/>
        <pt x="190" y="662" on="0"/>
        <pt x="179" y="603" on="1"/>
        <pt x="147" y="430" on="1"/>
        <pt x="243" y="430" on="1"/>
        <pt x="238" y="401" on="1"/>
        <pt x="142" y="401" on="1"/>
        <pt x="31" y="-199" on="1"/>
        <pt x="0" y="-199" on="1"/>
        <pt x="110" y="400" on="1"/>
        <pt x="48" y="400" on="1"/>
        <pt x="50" y="416" on="1"/>
        <pt x="116" y="430" on="1"/>
        <pt x="149" y="610" on="1"/>
        <pt x="154" y="636" on="0"/>
        <pt x="172" y="683" on="0"/>
        <pt x="201" y="719" on="0"/>
        <pt x="242" y="741" on="0"/>
        <pt x="271" y="741" on="1"/>
        <pt x="290" y="741" on="0"/>
        <pt x="326" y="731" on="0"/>
        <pt x="336" y="726" on="1"/>
      </contour>
      <contour>
        <pt x="536" y="699" on="1"/>
        <pt x="525" y="704" on="0"/>
        <pt x="496" y="712" on="0"/>
        <pt x="479" y="712" on="1"/>
        <pt x="442" y="712" on="0"/>
        <pt x="401" y="662" on="0"/>
        <pt x="390" y="603" on="1"/>
        <pt x="357" y="430" on="1"/>
        <pt x="453" y="430" on="1"/>
        <pt x="448" y="401" on="1"/>
        <pt x="352" y="401" on="1"/>
        <pt x="241" y="-199" on="1"/>
        <pt x="210" y="-199" on="1"/>
        <pt x="321" y="400" on="1"/>
        <pt x="258" y="400" on="1"/>
        <pt x="260" y="416" on="1"/>
        <pt x="326" y="430" on="1"/>
        <pt x="359" y="610" on="1"/>
        <pt x="364" y="636" on="0"/>
        <pt x="382" y="683" on="0"/>
        <pt x="411" y="719" on="0"/>
        <pt x="453" y="741" on="0"/>
        <pt x="482" y="741" on="1"/>
        <pt x="500" y="741" on="0"/>
        <pt x="536" y="731" on="0"/>
        <pt x="547" y="726" on="1"/>
      </contour>
      <contour>
        <pt x="472" y="0" on="1"/>
        <pt x="440" y="0" on="1"/>
        <pt x="519" y="430" on="1"/>
        <pt x="550" y="430" on="1"/>
      </contour>
      <contour>
        <pt x="590" y="583" on="1"/>
        <pt x="590" y="571" on="0"/>
        <pt x="573" y="555" on="0"/>
        <pt x="562" y="555" on="1"/>
        <pt x="550" y="555" on="0"/>
        <pt x="535" y="570" on="0"/>
        <pt x="535" y="581" on="1"/>
        <pt x="535" y="594" on="0"/>
        <pt x="552" y="610" on="0"/>
        <pt x="563" y="610" on="1"/>
        <pt x="575" y="610" on="0"/>
        <pt x="590" y="595" on="0"/>
      </contour>
    </TTGlyph>
    <TTGlyph name="f_f_l" xMin="0" yMin="-199" xMax="604" yMax="741">
      <contour>
        <pt x="326" y="699" on="1"/>
        <pt x="315" y="704" on="0"/>
        <pt x="286" y="712" on="0"/>
        <pt x="269" y="712" on="1"/>
        <pt x="232" y="712" on="0"/>
        <pt x="190" y="662" on="0"/>
        <pt x="179" y="603" on="1"/>
        <pt x="147" y="430" on="1"/>
        <pt x="243" y="430" on="1"/>
        <pt x="238" y="401" on="1"/>
        <pt x="142" y="401" on="1"/>
        <pt x="31" y="-199" on="1"/>
        <pt x="0" y="-199" on="1"/>
        <pt x="110" y="400" on="1"/>
        <pt x="48" y="400" on="1"/>
        <pt x="50" y="416" on="1"/>
        <pt x="116" y="430" on="1"/>
        <pt x="149" y="610" on="1"/>
        <pt x="154" y="636" on="0"/>
        <pt x="172" y="683" on="0"/>
        <pt x="201" y="719" on="0"/>
        <pt x="242" y="741" on="0"/>
        <pt x="271" y="741" on="1"/>
        <pt x="290" y="741" on="0"/>
        <pt x="326" y="731" on="0"/>
        <pt x="336" y="726" on="1"/>
      </contour>
      <contour>
        <pt x="536" y="699" on="1"/>
        <pt x="525" y="704" on="0"/>
        <pt x="496" y="712" on="0"/>
        <pt x="479" y="712" on="1"/>
        <pt x="442" y="712" on="0"/>
        <pt x="401" y="662" on="0"/>
        <pt x="390" y="603" on="1"/>
        <pt x="357" y="430" on="1"/>
        <pt x="453" y="430" on="1"/>
        <pt x="448" y="401" on="1"/>
        <pt x="352" y="401" on="1"/>
        <pt x="241" y="-199" on="1"/>
        <pt x="210" y="-199" on="1"/>
        <pt x="321" y="400" on="1"/>
        <pt x="258" y="400" on="1"/>
        <pt x="260" y="416" on="1"/>
        <pt x="326" y="430" on="1"/>
        <pt x="359" y="610" on="1"/>
        <pt x="364" y="636" on="0"/>
        <pt x="382" y="683" on="0"/>
        <pt x="411" y="719" on="0"/>
        <pt x="453" y="741" on="0"/>
        <pt x="482" y="741" on="1"/>
        <pt x="500" y="741" on="0"/>
        <pt x="536" y="731" on="0"/>
        <pt x="547" y="726" on="1"/>
      </contour>
      <contour>
        <pt x="469" y="0" on="1"/>
        <pt x="439" y="0" on="1"/>
        <pt x="573" y="733" on="1"/>
        <pt x="604" y="733" on="1"/>
      </contour>
    </TTGlyph>
    <TTGlyph name="fi" xMin="0" yMin="-199" xMax="380" yMax="741">
      <contour>
        <pt x="326" y="699" on="1"/>
        <pt x="315" y="704" on="0"/>
        <pt x="286" y="712" on="0"/>
        <pt x="269" y="712" on="1"/>
        <pt x="232" y="712" on="0"/>
        <pt x="190" y="662" on="0"/>
        <pt x="179" y="603" on="1"/>
        <pt x="147" y="430" on="1"/>
        <pt x="243" y="430" on="1"/>
        <pt x="238" y="401" on="1"/>
        <pt x="142" y="401" on="1"/>
        <pt x="31" y="-199" on="1"/>
        <pt x="0" y="-199" on="1"/>
        <pt x="110" y="400" on="1"/>
        <pt x="48" y="400" on="1"/>
        <pt x="50" y="416" on="1"/>
        <pt x="116" y="430" on="1"/>
        <pt x="149" y="610" on="1"/>
        <pt x="154" y="636" on="0"/>
        <pt x="172" y="683" on="0"/>
        <pt x="201" y="719" on="0"/>
        <pt x="242" y="741" on="0"/>
        <pt x="271" y="741" on="1"/>
        <pt x="290" y="741" on="0"/>
        <pt x="326" y="731" on="0"/>
        <pt x="336" y="726" on="1"/>
      </contour>
      <contour>
        <pt x="262" y="0" on="1"/>
        <pt x="230" y="0" on="1"/>
        <pt x="309" y="430" on="1"/>
        <pt x="340" y="430" on="1"/>
      </contour>
      <contour>
        <pt x="380" y="583" on="1"/>
        <pt x="380" y="571" on="0"/>
        <pt x="362" y="555" on="0"/>
        <pt x="351" y="555" on="1"/>
        <pt x="340" y="555" on="0"/>
        <pt x="325" y="570" on="0"/>
        <pt x="325" y="581" on="1"/>
        <pt x="325" y="594" on="0"/>
        <pt x="342" y="610" on="0"/>
        <pt x="353" y="610" on="1"/>
        <pt x="364" y="610" on="0"/>
        <pt x="380" y="595" on="0"/>
      </contour>
    </TTGlyph>
    <TTGlyph name="five" xMin="6" yMin="-8" xMax="367" yMax="660">
      <contour>
        <pt x="362" y="632" on="1"/>
        <pt x="164" y="632" on="1"/>
        <pt x="117" y="380" on="1"/>
        <pt x="128" y="382" on="0"/>
        <pt x="153" y="384" on="0"/>
        <pt x="161" y="384" on="1"/>
        <pt x="194" y="384" on="0"/>
        <pt x="251" y="366" on="0"/>
        <pt x="293" y="327" on="0"/>
        <pt x="317" y="268" on="0"/>
        <pt x="317" y="228" on="1"/>
        <pt x="317" y="189" on="0"/>
        <pt x="291" y="105" on="0"/>
        <pt x="241" y="36" on="0"/>
        <pt x="168" y="-8" on="0"/>
        <pt x="121" y="-8" on="1"/>
        <pt x="86" y="-8" on="0"/>
        <pt x="29" y="11" on="0"/>
        <pt x="6" y="25" on="1"/>
        <pt x="17" y="52" on="1"/>
        <pt x="39" y="39" on="0"/>
        <pt x="92" y="20" on="0"/>
        <pt x="124" y="20" on="1"/>
        <pt x="157" y="20" on="0"/>
        <pt x="216" y="54" on="0"/>
        <pt x="260" y="111" on="0"/>
        <pt x="285" y="188" on="0"/>
        <pt x="285" y="230" on="1"/>
        <pt x="285" y="264" on="0"/>
        <pt x="264" y="313" on="0"/>
        <pt x="229" y="343" on="0"/>
        <pt x="182" y="357" on="0"/>
        <pt x="155" y="357" on="1"/>
        <pt x="133" y="357" on="0"/>
        <pt x="100" y="350" on="0"/>
        <pt x="87" y="347" on="1"/>
        <pt x="82" y="351" on="1"/>
        <pt x="140" y="660" on="1"/>
        <pt x="367" y="660" on="1"/>
      </contour>
    </TTGlyph>
    <TTGlyph name="five.lin" xMin="7" yMin="-8" xMax="416" yMax="727">
      <contour>
        <pt x="411" y="699" on="1"/>
        <pt x="183" y="699" on="1"/>
        <pt x="128" y="419" on="1"/>
        <pt x="147" y="422" on="0"/>
        <pt x="172" y="424" on="0"/>
        <pt x="181" y="424" on="1"/>
        <pt x="218" y="424" on="0"/>
        <pt x="281" y="403" on="0"/>
        <pt x="327" y="361" on="0"/>
        <pt x="354" y="295" on="0"/>
        <pt x="354" y="250" on="1"/>
        <pt x="354" y="206" on="0"/>
        <pt x="324" y="114" on="0"/>
        <pt x="269" y="39" on="0"/>
        <pt x="189" y="-8" on="0"/>
        <pt x="139" y="-8" on="1"/>
        <pt x="98" y="-8" on="0"/>
        <pt x="34" y="14" on="0"/>
        <pt x="7" y="30" on="1"/>
        <pt x="19" y="57" on="1"/>
        <pt x="43" y="42" on="0"/>
        <pt x="104" y="20" on="0"/>
        <pt x="142" y="20" on="1"/>
        <pt x="178" y="20" on="0"/>
        <pt x="244" y="58" on="0"/>
        <pt x="293" y="121" on="0"/>
        <pt x="322" y="205" on="0"/>
        <pt x="322" y="252" on="1"/>
        <pt x="322" y="291" on="0"/>
        <pt x="299" y="345" on="0"/>
        <pt x="260" y="380" on="0"/>
        <pt x="206" y="396" on="0"/>
        <pt x="176" y="396" on="1"/>
        <pt x="150" y="396" on="0"/>
        <pt x="111" y="390" on="0"/>
        <pt x="94" y="386" on="1"/>
        <pt x="91" y="390" on="1"/>
        <pt x="158" y="727" on="1"/>
        <pt x="416" y="727" on="1"/>
      </contour>
    </TTGlyph>
    <TTGlyph name="fl" xMin="0" yMin="-199" xMax="394" yMax="741">
      <contour>
        <pt x="259" y="0" on="1"/>
        <pt x="228" y="0" on="1"/>
        <pt x="363" y="733" on="1"/>
        <pt x="394" y="733" on="1"/>
      </contour>
      <contour>
        <pt x="326" y="699" on="1"/>
        <pt x="315" y="704" on="0"/>
        <pt x="286" y="712" on="0"/>
        <pt x="269" y="712" on="1"/>
        <pt x="232" y="712" on="0"/>
        <pt x="190" y="662" on="0"/>
        <pt x="179" y="603" on="1"/>
        <pt x="147" y="430" on="1"/>
        <pt x="243" y="430" on="1"/>
        <pt x="238" y="401" on="1"/>
        <pt x="142" y="401" on="1"/>
        <pt x="31" y="-199" on="1"/>
        <pt x="0" y="-199" on="1"/>
        <pt x="110" y="400" on="1"/>
        <pt x="48" y="400" on="1"/>
        <pt x="50" y="416" on="1"/>
        <pt x="116" y="430" on="1"/>
        <pt x="149" y="610" on="1"/>
        <pt x="154" y="636" on="0"/>
        <pt x="172" y="683" on="0"/>
        <pt x="201" y="719" on="0"/>
        <pt x="242" y="741" on="0"/>
        <pt x="271" y="741" on="1"/>
        <pt x="290" y="741" on="0"/>
        <pt x="326" y="731" on="0"/>
        <pt x="336" y="726" on="1"/>
      </contour>
    </TTGlyph>
    <TTGlyph name="florin" xMin="22" yMin="0" xMax="369" yMax="667">
      <contour>
        <pt x="359" y="624" on="1"/>
        <pt x="348" y="629" on="0"/>
        <pt x="317" y="639" on="0"/>
        <pt x="302" y="639" on="1"/>
        <pt x="264" y="639" on="0"/>
        <pt x="219" y="585" on="0"/>
        <pt x="202" y="528" on="1"/>
        <pt x="162" y="387" on="1"/>
        <pt x="246" y="387" on="1"/>
        <pt x="240" y="359" on="1"/>
        <pt x="154" y="359" on="1"/>
        <pt x="52" y="0" on="1"/>
        <pt x="22" y="0" on="1"/>
        <pt x="123" y="359" on="1"/>
        <pt x="65" y="359" on="1"/>
        <pt x="69" y="374" on="1"/>
        <pt x="130" y="387" on="1"/>
        <pt x="172" y="534" on="1"/>
        <pt x="180" y="562" on="0"/>
        <pt x="202" y="610" on="0"/>
        <pt x="233" y="646" on="0"/>
        <pt x="275" y="667" on="0"/>
        <pt x="302" y="667" on="1"/>
        <pt x="322" y="667" on="0"/>
        <pt x="358" y="657" on="0"/>
        <pt x="369" y="652" on="1"/>
      </contour>
    </TTGlyph>
    <TTGlyph name="florin.lin" xMin="40" yMin="0" xMax="399" yMax="735">
      <contour>
        <pt x="389" y="691" on="1"/>
        <pt x="377" y="696" on="0"/>
        <pt x="343" y="706" on="0"/>
        <pt x="326" y="706" on="1"/>
        <pt x="281" y="706" on="0"/>
        <pt x="229" y="642" on="0"/>
        <pt x="213" y="572" on="1"/>
        <pt x="175" y="425" on="1"/>
        <pt x="271" y="425" on="1"/>
        <pt x="266" y="396" on="1"/>
        <pt x="169" y="396" on="1"/>
        <pt x="71" y="0" on="1"/>
        <pt x="40" y="0" on="1"/>
        <pt x="136" y="395" on="1"/>
        <pt x="72" y="395" on="1"/>
        <pt x="75" y="411" on="1"/>
        <pt x="143" y="424" on="1"/>
        <pt x="182" y="578" on="1"/>
        <pt x="189" y="612" on="0"/>
        <pt x="213" y="670" on="0"/>
        <pt x="247" y="712" on="0"/>
        <pt x="295" y="735" on="0"/>
        <pt x="327" y="735" on="1"/>
        <pt x="348" y="735" on="0"/>
        <pt x="387" y="724" on="0"/>
        <pt x="399" y="719" on="1"/>
      </contour>
    </TTGlyph>
    <TTGlyph name="four" xMin="13" yMin="0" xMax="373" yMax="669">
      <contour>
        <pt x="364" y="200" on="1"/>
        <pt x="287" y="200" on="1"/>
        <pt x="250" y="0" on="1"/>
        <pt x="220" y="0" on="1"/>
        <pt x="257" y="200" on="1"/>
        <pt x="13" y="200" on="1"/>
        <pt x="15" y="210" on="1"/>
        <pt x="357" y="669" on="1"/>
        <pt x="373" y="669" on="1"/>
        <pt x="292" y="227" on="1"/>
        <pt x="369" y="227" on="1"/>
      </contour>
      <contour>
        <pt x="329" y="588" on="1"/>
        <pt x="62" y="227" on="1"/>
        <pt x="262" y="227" on="1"/>
      </contour>
    </TTGlyph>
    <TTGlyph name="four.lin" xMin="16" yMin="0" xMax="423" yMax="736">
      <contour>
        <pt x="416" y="220" on="1"/>
        <pt x="328" y="220" on="1"/>
        <pt x="287" y="0" on="1"/>
        <pt x="256" y="0" on="1"/>
        <pt x="297" y="220" on="1"/>
        <pt x="16" y="220" on="1"/>
        <pt x="18" y="232" on="1"/>
        <pt x="406" y="736" on="1"/>
        <pt x="423" y="736" on="1"/>
        <pt x="332" y="248" on="1"/>
        <pt x="420" y="248" on="1"/>
      </contour>
      <contour>
        <pt x="376" y="652" on="1"/>
        <pt x="65" y="248" on="1"/>
        <pt x="302" y="248" on="1"/>
      </contour>
    </TTGlyph>
    <TTGlyph name="fraction" xMin="-26" yMin="-11" xMax="535" yMax="680">
      <contour>
        <pt x="-6" y="-11" on="1"/>
        <pt x="-26" y="5" on="1"/>
        <pt x="514" y="680" on="1"/>
        <pt x="535" y="665" on="1"/>
      </contour>
    </TTGlyph>
    <TTGlyph name="fraction.lin" xMin="-30" yMin="-12" xMax="602" yMax="748">
      <contour>
        <pt x="-8" y="-12" on="1"/>
        <pt x="-30" y="4" on="1"/>
        <pt x="580" y="748" on="1"/>
        <pt x="602" y="732" on="1"/>
      </contour>
    </TTGlyph>
    <TTGlyph name="g" xMin="-1" yMin="-207" xMax="355" yMax="437">
      <contour>
        <pt x="262" y="-69" on="1"/>
        <pt x="248" y="-141" on="0"/>
        <pt x="180" y="-207" on="0"/>
        <pt x="115" y="-207" on="1"/>
        <pt x="83" y="-207" on="0"/>
        <pt x="21" y="-190" on="0"/>
        <pt x="-1" y="-179" on="1"/>
        <pt x="11" y="-153" on="1"/>
        <pt x="35" y="-165" on="0"/>
        <pt x="87" y="-179" on="0"/>
        <pt x="117" y="-179" on="1"/>
        <pt x="165" y="-179" on="0"/>
        <pt x="221" y="-129" on="0"/>
        <pt x="232" y="-67" on="1"/>
        <pt x="251" y="39" on="1"/>
        <pt x="228" y="18" on="0"/>
        <pt x="175" y="-7" on="0"/>
        <pt x="144" y="-7" on="1"/>
        <pt x="121" y="-7" on="0"/>
        <pt x="80" y="11" on="0"/>
        <pt x="47" y="48" on="0"/>
        <pt x="28" y="105" on="0"/>
        <pt x="28" y="144" on="1"/>
        <pt x="28" y="192" on="0"/>
        <pt x="54" y="296" on="0"/>
        <pt x="103" y="381" on="0"/>
        <pt x="173" y="437" on="0"/>
        <pt x="216" y="437" on="1"/>
        <pt x="251" y="437" on="0"/>
        <pt x="300" y="404" on="0"/>
        <pt x="316" y="384" on="1"/>
        <pt x="324" y="430" on="1"/>
        <pt x="355" y="430" on="1"/>
      </contour>
      <contour>
        <pt x="308" y="350" on="1"/>
        <pt x="293" y="374" on="0"/>
        <pt x="246" y="409" on="0"/>
        <pt x="217" y="409" on="1"/>
        <pt x="182" y="409" on="0"/>
        <pt x="124" y="358" on="0"/>
        <pt x="82" y="281" on="0"/>
        <pt x="59" y="189" on="0"/>
        <pt x="59" y="149" on="1"/>
        <pt x="59" y="84" on="0"/>
        <pt x="110" y="21" on="0"/>
        <pt x="148" y="21" on="1"/>
        <pt x="179" y="21" on="0"/>
        <pt x="234" y="51" on="0"/>
        <pt x="257" y="74" on="1"/>
      </contour>
    </TTGlyph>
    <TTGlyph name="gbreve" xMin="-1" yMin="-207" xMax="369" yMax="590">
      <component glyphName="g" x="0" y="0" flags="0x204"/>
      <component glyphName="breve" x="-7" y="0" flags="0x4"/>
    </TTGlyph>
    <TTGlyph name="gcommaaccent" xMin="-1" yMin="-207" xMax="355" yMax="645">
      <contour>
        <pt x="224" y="536" on="1"/>
        <pt x="224" y="555" on="0"/>
        <pt x="242" y="590" on="0"/>
        <pt x="269" y="618" on="0"/>
        <pt x="300" y="639" on="0"/>
        <pt x="312" y="645" on="1"/>
        <pt x="319" y="634" on="1"/>
        <pt x="298" y="620" on="0"/>
        <pt x="262" y="584" on="0"/>
        <pt x="254" y="561" on="1"/>
        <pt x="269" y="558" on="0"/>
        <pt x="287" y="541" on="0"/>
        <pt x="287" y="528" on="1"/>
        <pt x="287" y="515" on="0"/>
        <pt x="269" y="497" on="0"/>
        <pt x="257" y="497" on="1"/>
        <pt x="246" y="497" on="0"/>
        <pt x="224" y="517" on="0"/>
      </contour>
      <contour>
        <pt x="262" y="-69" on="1"/>
        <pt x="248" y="-141" on="0"/>
        <pt x="180" y="-207" on="0"/>
        <pt x="115" y="-207" on="1"/>
        <pt x="83" y="-207" on="0"/>
        <pt x="21" y="-190" on="0"/>
        <pt x="-1" y="-179" on="1"/>
        <pt x="11" y="-153" on="1"/>
        <pt x="35" y="-165" on="0"/>
        <pt x="87" y="-179" on="0"/>
        <pt x="117" y="-179" on="1"/>
        <pt x="165" y="-179" on="0"/>
        <pt x="221" y="-129" on="0"/>
        <pt x="232" y="-67" on="1"/>
        <pt x="251" y="39" on="1"/>
        <pt x="228" y="18" on="0"/>
        <pt x="175" y="-7" on="0"/>
        <pt x="144" y="-7" on="1"/>
        <pt x="121" y="-7" on="0"/>
        <pt x="80" y="11" on="0"/>
        <pt x="47" y="48" on="0"/>
        <pt x="28" y="105" on="0"/>
        <pt x="28" y="144" on="1"/>
        <pt x="28" y="192" on="0"/>
        <pt x="54" y="296" on="0"/>
        <pt x="103" y="381" on="0"/>
        <pt x="173" y="437" on="0"/>
        <pt x="216" y="437" on="1"/>
        <pt x="251" y="437" on="0"/>
        <pt x="300" y="404" on="0"/>
        <pt x="316" y="384" on="1"/>
        <pt x="324" y="430" on="1"/>
        <pt x="355" y="430" on="1"/>
      </contour>
      <contour>
        <pt x="308" y="350" on="1"/>
        <pt x="293" y="374" on="0"/>
        <pt x="246" y="409" on="0"/>
        <pt x="217" y="409" on="1"/>
        <pt x="182" y="409" on="0"/>
        <pt x="124" y="358" on="0"/>
        <pt x="82" y="281" on="0"/>
        <pt x="59" y="189" on="0"/>
        <pt x="59" y="149" on="1"/>
        <pt x="59" y="84" on="0"/>
        <pt x="110" y="21" on="0"/>
        <pt x="148" y="21" on="1"/>
        <pt x="179" y="21" on="0"/>
        <pt x="234" y="51" on="0"/>
        <pt x="257" y="74" on="1"/>
      </contour>
    </TTGlyph>
    <TTGlyph name="gdotaccent" xMin="-1" yMin="-207" xMax="355" yMax="555">
      <component glyphName="g" x="0" y="0" flags="0x204"/>
      <component glyphName="dotaccent" x="-8" y="0" flags="0x4"/>
    </TTGlyph>
    <TTGlyph name="germandbls" xMin="14" yMin="-91" xMax="347" yMax="741">
      <contour>
        <pt x="188" y="202" on="1"/>
        <pt x="233" y="194" on="0"/>
        <pt x="291" y="132" on="0"/>
        <pt x="291" y="79" on="1"/>
        <pt x="291" y="44" on="0"/>
        <pt x="267" y="-18" on="0"/>
        <pt x="224" y="-64" on="0"/>
        <pt x="164" y="-91" on="0"/>
        <pt x="129" y="-91" on="1"/>
        <pt x="112" y="-91" on="0"/>
        <pt x="84" y="-86" on="0"/>
        <pt x="73" y="-82" on="1"/>
        <pt x="81" y="-55" on="1"/>
        <pt x="103" y="-63" on="0"/>
        <pt x="128" y="-63" on="1"/>
        <pt x="157" y="-63" on="0"/>
        <pt x="205" y="-42" on="0"/>
        <pt x="240" y="-5" on="0"/>
        <pt x="260" y="46" on="0"/>
        <pt x="260" y="75" on="1"/>
        <pt x="260" y="103" on="0"/>
        <pt x="241" y="144" on="0"/>
        <pt x="210" y="170" on="0"/>
        <pt x="168" y="181" on="0"/>
        <pt x="145" y="180" on="1"/>
        <pt x="145" y="181" on="1"/>
        <pt x="142" y="186" on="1"/>
        <pt x="297" y="401" on="1"/>
        <pt x="118" y="401" on="1"/>
        <pt x="44" y="0" on="1"/>
        <pt x="14" y="0" on="1"/>
        <pt x="125" y="610" on="1"/>
        <pt x="130" y="636" on="0"/>
        <pt x="148" y="683" on="0"/>
        <pt x="177" y="719" on="0"/>
        <pt x="218" y="741" on="0"/>
        <pt x="247" y="741" on="1"/>
        <pt x="266" y="741" on="0"/>
        <pt x="302" y="731" on="0"/>
        <pt x="312" y="726" on="1"/>
        <pt x="302" y="699" on="1"/>
        <pt x="291" y="704" on="0"/>
        <pt x="262" y="712" on="0"/>
        <pt x="245" y="712" on="1"/>
        <pt x="208" y="712" on="0"/>
        <pt x="166" y="662" on="0"/>
        <pt x="155" y="603" on="1"/>
        <pt x="123" y="430" on="1"/>
        <pt x="345" y="430" on="1"/>
        <pt x="347" y="424" on="1"/>
      </contour>
    </TTGlyph>
    <TTGlyph name="grave" xMin="179" yMin="478" xMax="343" yMax="607">
      <contour>
        <pt x="331" y="478" on="1"/>
        <pt x="179" y="580" on="1"/>
        <pt x="200" y="607" on="1"/>
        <pt x="343" y="495" on="1"/>
      </contour>
    </TTGlyph>
    <TTGlyph name="greater" xMin="3" yMin="92" xMax="261" yMax="574">
      <contour>
        <pt x="22" y="92" on="1"/>
        <pt x="3" y="112" on="1"/>
        <pt x="224" y="326" on="1"/>
        <pt x="85" y="558" on="1"/>
        <pt x="110" y="574" on="1"/>
        <pt x="261" y="322" on="1"/>
      </contour>
    </TTGlyph>
    <TTGlyph name="greater.lin" xMin="17" yMin="131" xMax="275" yMax="613">
      <component glyphName="greater" x="14" y="39" flags="0x204"/>
    </TTGlyph>
    <TTGlyph name="guillemotleft" xMin="28" yMin="38" xMax="278" yMax="365">
      <contour>
        <pt x="164" y="199" on="1"/>
        <pt x="216" y="38" on="1"/>
        <pt x="185" y="38" on="1"/>
        <pt x="133" y="204" on="1"/>
        <pt x="245" y="365" on="1"/>
        <pt x="278" y="365" on="1"/>
      </contour>
      <contour>
        <pt x="60" y="200" on="1"/>
        <pt x="111" y="38" on="1"/>
        <pt x="80" y="38" on="1"/>
        <pt x="28" y="205" on="1"/>
        <pt x="140" y="365" on="1"/>
        <pt x="173" y="365" on="1"/>
      </contour>
    </TTGlyph>
    <TTGlyph name="guillemotleft.cap" xMin="60" yMin="206" xMax="310" yMax="533">
      <component glyphName="guillemotleft" x="32" y="168" flags="0x204"/>
    </TTGlyph>
    <TTGlyph name="guillemotright" xMin="-4" yMin="38" xMax="246" yMax="365">
      <contour>
        <pt x="134" y="38" on="1"/>
        <pt x="102" y="38" on="1"/>
        <pt x="214" y="203" on="1"/>
        <pt x="163" y="365" on="1"/>
        <pt x="194" y="365" on="1"/>
        <pt x="246" y="199" on="1"/>
      </contour>
      <contour>
        <pt x="29" y="38" on="1"/>
        <pt x="-4" y="38" on="1"/>
        <pt x="110" y="204" on="1"/>
        <pt x="58" y="365" on="1"/>
        <pt x="89" y="365" on="1"/>
        <pt x="141" y="200" on="1"/>
      </contour>
    </TTGlyph>
    <TTGlyph name="guillemotright.cap" xMin="28" yMin="206" xMax="278" yMax="533">
      <component glyphName="guillemotright" x="32" y="168" flags="0x204"/>
    </TTGlyph>
    <TTGlyph name="guilsinglleft" xMin="25" yMin="38" xMax="170" yMax="365">
      <contour>
        <pt x="57" y="199" on="1"/>
        <pt x="109" y="38" on="1"/>
        <pt x="77" y="38" on="1"/>
        <pt x="25" y="204" on="1"/>
        <pt x="137" y="365" on="1"/>
        <pt x="170" y="365" on="1"/>
      </contour>
    </TTGlyph>
    <TTGlyph name="guilsinglleft.cap" xMin="57" yMin="206" xMax="202" yMax="533">
      <component glyphName="guilsinglleft" x="32" y="168" flags="0x204"/>
    </TTGlyph>
    <TTGlyph name="guilsinglright" xMin="-4" yMin="38" xMax="141" yMax="365">
      <contour>
        <pt x="29" y="38" on="1"/>
        <pt x="-4" y="38" on="1"/>
        <pt x="110" y="204" on="1"/>
        <pt x="58" y="365" on="1"/>
        <pt x="89" y="365" on="1"/>
        <pt x="141" y="200" on="1"/>
      </contour>
    </TTGlyph>
    <TTGlyph name="guilsinglright.cap" xMin="28" yMin="206" xMax="173" yMax="533">
      <component glyphName="guilsinglright" x="32" y="168" flags="0x204"/>
    </TTGlyph>
    <TTGlyph name="h" xMin="16" yMin="0" xMax="332" yMax="733">
      <contour>
        <pt x="332" y="351" on="1"/>
        <pt x="332" y="342" on="0"/>
        <pt x="329" y="313" on="0"/>
        <pt x="326" y="299" on="1"/>
        <pt x="271" y="0" on="1"/>
        <pt x="240" y="0" on="1"/>
        <pt x="295" y="298" on="1"/>
        <pt x="297" y="311" on="0"/>
        <pt x="301" y="338" on="0"/>
        <pt x="301" y="347" on="1"/>
        <pt x="301" y="378" on="0"/>
        <pt x="268" y="410" on="0"/>
        <pt x="240" y="410" on="1"/>
        <pt x="222" y="410" on="0"/>
        <pt x="188" y="397" on="0"/>
        <pt x="155" y="375" on="0"/>
        <pt x="123" y="347" on="0"/>
        <pt x="109" y="332" on="1"/>
        <pt x="47" y="0" on="1"/>
        <pt x="16" y="0" on="1"/>
        <pt x="151" y="733" on="1"/>
        <pt x="183" y="733" on="1"/>
        <pt x="114" y="367" on="1"/>
        <pt x="181" y="437" on="0"/>
        <pt x="246" y="437" on="1"/>
        <pt x="285" y="437" on="0"/>
        <pt x="332" y="392" on="0"/>
      </contour>
    </TTGlyph>
    <TTGlyph name="hbar" xMin="16" yMin="0" xMax="332" yMax="733">
      <contour>
        <pt x="332" y="351" on="1"/>
        <pt x="332" y="342" on="0"/>
        <pt x="329" y="313" on="0"/>
        <pt x="326" y="299" on="1"/>
        <pt x="271" y="0" on="1"/>
        <pt x="240" y="0" on="1"/>
        <pt x="295" y="298" on="1"/>
        <pt x="297" y="311" on="0"/>
        <pt x="301" y="338" on="0"/>
        <pt x="301" y="347" on="1"/>
        <pt x="301" y="378" on="0"/>
        <pt x="268" y="410" on="0"/>
        <pt x="240" y="410" on="1"/>
        <pt x="222" y="410" on="0"/>
        <pt x="188" y="397" on="0"/>
        <pt x="155" y="375" on="0"/>
        <pt x="123" y="347" on="0"/>
        <pt x="109" y="332" on="1"/>
        <pt x="47" y="0" on="1"/>
        <pt x="16" y="0" on="1"/>
        <pt x="122" y="579" on="1"/>
        <pt x="72" y="579" on="1"/>
        <pt x="77" y="608" on="1"/>
        <pt x="128" y="608" on="1"/>
        <pt x="151" y="733" on="1"/>
        <pt x="183" y="733" on="1"/>
        <pt x="159" y="608" on="1"/>
        <pt x="276" y="608" on="1"/>
        <pt x="271" y="579" on="1"/>
        <pt x="154" y="579" on="1"/>
        <pt x="114" y="367" on="1"/>
        <pt x="181" y="437" on="0"/>
        <pt x="246" y="437" on="1"/>
        <pt x="285" y="437" on="0"/>
        <pt x="332" y="392" on="0"/>
      </contour>
    </TTGlyph>
</ttFont>
